<?xml version="1.0" encoding="UTF-8" standalone="no"?>
<!-- Created with Inkscape (http://www.inkscape.org/) -->
<?xml-stylesheet type="text/css" href="../css/style.css"?>
<svg width="500" height="550" viewBox="0 0 500 550" version="1.1" id="svg5" xml:space="preserve"
  xmlns="http://www.w3.org/2000/svg" xmlns:svg="http://www.w3.org/2000/svg">
  <path id="fondo" data-tipo="seleccionable" d="M 0,550 V 0 h 500 v 550 z"/>
  <g id="copa">
    <ellipse id="base" data-tipo="seleccionable" cx="254.12733" cy="487.58392" rx="112.0574" ry="38.553146" />
    <path id="soporte" data-tipo="seleccionable" d="m 224.88044,383.89115 c 25.85872,37.19767 12.6257,65.56609 -8.92903,89.36284 13.34107,14.09953 66.93617,15.50964 78.57637,-0.53453 -24.03467,-26.02039 -29.66449,-50.11874 -11.07333,-90.34774"/>
    <path id="contenedor" data-tipo="seleccionable" d="m 43.844757,286.96085 c 130.177973,46.9096 265.938353,50.09044 408.209803,2.26783 -11.38016,52.54124 -65.48673,88.97253 -199.56924,95.24895 C 133.854,384.37268 66.946733,355.60864 43.844757,286.96085 Z"/>
  </g>

  <g id="helado">
    <ellipse id="bola3" data-tipo="seleccionable" cx="247.68182" cy="155.43916" rx="96.004898" ry="83.153847" />
    <path id="oblea" data-tipo="seleccionable" d="m 197.97356,163.65418 c 0,0 -86.49356,-104.975046 -110.360023,-134.103417 C 76.537605,16.032893 29.573559,43.317175 41.576924,58.665737 71.996457,97.56284 133.8021,176.59301 133.8021,176.59301"/>
    <g id="textura" transform="translate(0,-26)">
      <path d="M 91.939708,62.540382 71.092914,120.26997"/>
      <path d="M 106.39314,78.417626 85.412811,140.71818"/>
      <path d="M 120.77137,95.898154 99.172888,158.31303"/>
      <path d="m 135.85521,114.22659 -20.9818,64.16252"/>
      <path d="m 151.31801,133.00888 -21.79218,69.58413"/>
      <path d="M 41.576924,84.665737 106.39314,78.417626"/>
      <path d="M 55.079497,101.93132 120.77137,95.898154"/>
      <path d="m 71.092914,120.26997 64.762296,-6.04338"/>
      <path d="m 85.412811,140.71818 65.905199,-7.7093"/>
      <path d="M 99.172888,158.31303 163.12207,147.34371"/>
      <path d="m 114.87341,178.38911 64.82067,-10.92426"/>
      <path d="M 55.079497,101.93132 75.154364,52.088453"/>
      <path d="m 166.39252,151.31491 -21.14031,64.76063"/>
      <path d="M 91.939708,62.540382 48.459324,64.693869"/>
      <path d="m 190.50675,180.59097 -57.48821,10.84955"/>
      <path d="m 179.69408,167.46485 -15.92179,54.37897"/>
    </g>
    <path id="bola2" data-tipo="seleccionable" d="M 452.05456,289.22868 C 478.98698,249.64571 452.1794,171.7397 374.19232,157.69441 311.71468,147.34765 275.80353,171.37636 250.21749,218.16994 L 227.5322,323.24431 c 23.54226,0.40164 48.12284,-0.1879 71.0061,-1.65696 5.67298,13.55707 9.29763,27.89591 28.97447,24.90409 13.06601,-4.00113 12.10143,-8.93595 24.75717,-26.26905 9.85208,5.35883 17.34736,9.30018 27.59196,4.72465 7.17466,-4.42437 10.24594,-5.72868 15.80975,-19.33643 z"/>
    <path id="bola1" data-tipo="seleccionable" d="m 151.67773,155.43945 c -72.278084,4.07871 -111.078895,44.79282 -107.832027,131.52149 -0.769692,6.28979 -1.582575,16.72543 -7.513672,34.0625 -3.834663,23.89067 22.414882,32.78629 33.794922,24.01562 7.448329,-5.12636 12.176475,-19.872 19.830078,-16.50195 12.675379,7.52274 21.604209,11.46996 28.726559,9.82812 9.06078,-3.21709 13.64103,-11.512 12.01758,-26.83789 l -0.3457,-0.0976 c 32.17603,6.55771 64.57201,10.44169 97.17578,11.81445 15.37905,-1.49371 33.88097,-9.9094 34.92383,-57.92383 C 259.22142,203.14875 225.29101,156.4486 151.67773,155.43945 Z" />
  </g>
</svg>

