<?xml version="1.0" encoding="UTF-8" standalone="no"?>
<!-- Created with Inkscape (http://www.inkscape.org/) -->
<?xml-stylesheet type="text/css" href="../css/style.css"?>

<svg width="250" height="380" viewBox="0 0 250 380" version="1.1" id="svg5" xml:space="preserve"
  xmlns="http://www.w3.org/2000/svg" xmlns:svg="http://www.w3.org/2000/svg" xmlns:xlink="http://www.w3.org/1999/xlink">
  
  <!-- Created By Erik Medina (https://github.com/erme07) -->
  <defs>
  </defs>
  <symbol id="hat_astronauta">
    <path style="fill:#c6baad" d="M 82.5,134 C 41.4,104 61.2,43.9 100,32 c 46,-14.2 115,19.8 75,83" id="path11689" />
    <path style="fill:#f7f4ec" d="M 105,120 C 67.8,108 66.8,67.5 81.3,46 97.5,22 144,23.2 168,39.6 c 33,22.9 14,85.4 1,79.4" id="path13744" />
    <path style="fill:none;stroke:#1b1910;stroke-width:10;stroke-linecap:round;stroke-linejoin:round" d="M 82.5,134 C 41.4,104 61.2,43.9 100,32 c 46,-14.2 115,19.8 75,83" id="path10889" />
    <path style="fill:#37434f;stroke:#0b1218;stroke-width:10;stroke-linecap:round;stroke-linejoin:round" d="m 183,94.5 c -6,8.5 -21,-5.2 -31,-4.7 -13,0.7 -26,10.2 -39,9.7 -27.1,-2 -27.7,-34 -17.9,-48 C 105,36.9 126,28.7 143,31.6 c 33,5.4 54,41.6 40,62.9 z" />
    <path style="fill:#788faa" d="m 144,50.3 c -5,-1.1 -11,1.6 -16,-0.3 -8,-3.2 -5,-11.6 3,-13.2 10,-1.9 23,2.6 32,9.5 4,3.3 2,11.2 -6,9.2 -5,-0.6 -8,-4.3 -13,-5.2 z"/>
    <path style="fill:#ad3418" d="m 81.5,147 -4,-14 C 110,109 144,103 179,111 v 14 c -35,-6 -64,2 -97.5,22 z" id="path14033" />
    <path style="fill:#ffffff;fill-opacity:0.209" d="m 98.5,119 c 0,0 10.5,11 15.5,10 25,-5 43,-6 66,-4 v -14 c -23,-8 -55,-3 -81.5,8 z" id="path14158" />
    <path style="fill:none;stroke:#180802;stroke-width:8;stroke-linecap:round;stroke-linejoin:round" d="M 79.7,146 75,132 c 32,-24 71,-29 106,-21 l -3,15 c -35,-6 -65,0 -98.3,20 z" id="path13800" />
  </symbol>
  
  <symbol id="skin_momia">
    <path style="fill:#eecea7" d="m 73.4,232 c 0,41 3,76 7.7,107 16.2,8 34.9,8 48.9,-3 3,-12 7,-23 6,-38 7,1 3,0 15,1 1,22 2,32 7,35 10,2 25,3 36,-2 8,-31 12,-66 12,-104 -37,22 -82,21 -132.6,4 z"/>
    <path style="fill:#fff5de" d="m 96.5,238 c 6.5,32 23.5,44 49.5,43 34,3 50,-17 54,-49 -31,13 -64,18 -103.5,6 z"/>
    <path style="fill:none;stroke:#b5826b;stroke-width:5;stroke-linecap:round;stroke-linejoin:round" d="m 81,331 c 16.2,-1 37,-4 53,-8 l -1,-6 c -11,0 -25,-5 -35.4,-12 H 78.5 c 28.5,1 56.5,-7 83.5,-18 -29,-1 -47,-3 -87.3,-9 38.3,5 86.3,11 128.3,6 l 1,-11 c -44,-1 -87,-8 -130.3,-22"/>
    <path style="fill:none;stroke:#b5826b;stroke-width:5;stroke-linecap:round;stroke-linejoin:round" d="m 147,245 c 19,4 38,10 58,9"/>
    <path style="fill:none;stroke:#b5826b;stroke-width:5;stroke-linecap:round;stroke-linejoin:round" d="m 152,319 c 11,-2 24,-5 28,-9 h 19 c -15,0 -30,0 -48,-3"  />
    <path style="fill:none;stroke:#2e2218;stroke-width:10;stroke-linecap:round;stroke-linejoin:round" d="m 69.5,232 c 0,41 4.8,76 9.5,107 16.2,8 36,5 51,-3 5,-8 5,-24 6,-38 7,1 3,0 15,1 1,22 2,32 7,35 10,2 33,4 37,-1 4,-4 12,-64 12,-105 -37,22 -87,21 -137.5,4 z"/>
    <path style="fill:#2e2218" d="m 152,303 c 13,-2 19,-5 25,-11 -9,2 -17,2 -26,2 z" />
  </symbol>

  <symbol id="skin_kid">
    <path style="fill:#1e3e68" d="m 72.5,301 -2.8,-25 c 57.3,9 105.3,9 139.3,-1 -2,7 -3,14 -4,21 -17,7 -35,11 -57,11 l -2,-8 h -11 l -1,9 c -21,3 -38.5,1 -61.5,-7 z"/>
    <path style="fill:#8c2a5a" d="m 69.4,271 1.3,-50 c 10.2,10 37.3,14 78.3,14 l 27,21 16,-22 17,-5 -1,40 c -35,13 -80,13 -138.6,2 z"/>
    <path style="fill:#ad3939" d="m 98,229 c 4,18 12,35 27,47 l 64,2 c 8,-11 16,-24 18,-46 h -14 l -16,23 -28,-19 z"  />
    <path style="fill:none;stroke:#000000;stroke-width:10;stroke-linecap:round;stroke-linejoin:round" d="M 69.4,271 C 123,284 175,283 208,270"  />
    <path style="fill:none;stroke:#000000;stroke-width:10;stroke-linecap:round;stroke-linejoin:round" d="m 70.7,221 c -3.6,36 -1.1,58 1.8,80 19,9 39.5,13 63.5,6 v -8 h 12 l 1,8 c 19,1 36,-1 55,-10 5,-15 5,-38 5,-68 l -17,5 c -6,13 -11,17 -16,22 -9,-5 -18,-11 -27,-21 -23,-1 -41,2 -78.3,-14 z" />
    <path style="fill:#000000" d="m 146,294 c 12,0 25,-1 37,-3 -6,4 -17,7 -35,9 z" />
    <path style="fill:#312c29;stroke:#000000;stroke-width:10;stroke-linecap:round;stroke-linejoin:round" d="m 74.9,322 3.1,19 c 17.7,7 35,7 53,-2 l 5,-17 c -23,6 -43.9,6 -61.1,0 z"  />
    <path style="fill:#312c29;stroke:#000000;stroke-width:10;stroke-linecap:round;stroke-linejoin:round" d="m 150,320 c 20,2 33,0 50,-6 -1,10 -3,15 -6,19 -13,5 -26,6 -40,2 -3,-5 -5,-10 -4,-15 z" />
  </symbol>

  <symbol id="skin_sport">
    <path style="fill:#1538a1" d="m 71.2,225 c -4,36 -0.7,56 2.3,78 19,9 38.5,13 62.5,6 v -8 h 12 l 1,8 c 19,1 36,-1 55,-10 5,-15 5,-36 5,-66 -46,17 -92,9 -137.8,-8 z"/>
    <path style="fill:#6d87ad" d="m 184,276 c 0,-5 0,-8 0,-13 2,-2 14,-11 15,-23 l 9,-3 c -1,21 -6,23 -11,28 l -1,9 z" />
    <path style="fill:#6d87ad" d="m 91.9,233 c 0.3,10 -2,24 20.1,38 v 9 l 16,-1 -1,-15 c -19,-9 -19,-19 -22,-28 z"  />
    <path style="fill:#ffffff;fill-opacity:0.248" d="m 97,233 c 4,18 15,36 30,48 l 58,-3 c 8,-11 17,-20 19,-42 -38,7 -73,5 -107,-3 z"  />
    <path style="fill:none;stroke:#071428;stroke-width:10;stroke-linecap:round;stroke-linejoin:round" d="M 71.7,273 C 125,286 174,285 207,272"  />
    <path style="fill:#071428" d="m 146,296 c 12,0 25,-1 37,-3 -6,4 -17,7 -35,9 z"/>
    <path style="fill:none;stroke:#071428;stroke-width:10;stroke-linecap:round;stroke-linejoin:round" d="m 71.2,225 c -4,36 -0.7,56 2.3,78 19,9 38.5,13 62.5,6 v -8 h 12 l 1,8 c 19,1 36,-1 55,-10 5,-15 5,-36 3,-66 -46,17 -90,9 -135.8,-8 z" />
  </symbol>

  <symbol id="skin_banana">
    <path style="fill:#392c22;stroke:#100c08;stroke-width:8;stroke-linecap:round;stroke-linejoin:round" d="m 46.8,311 -19.9,-5 c -4.4,-8 -6.3,-13 1,-22 L 48,281"  />
    <path style="fill:#b5811b" d="m 78.5,325 c -14.1,-46 47.5,-34 55.5,-4 40,1 73,-46 73,-74 14,-3 16,7 22,17 5,-14 3,-57 -34,-37 -12,7 -24,34 -36,53 -4,-18 -11,-36 -32,-50 l -49,5 c -1.3,34 -14.1,43 -30,46 l -1.2,30 c 8.2,12 18.2,14 31.7,14 z"/>
    <path style="fill:#bda284;stroke:#1e1102;stroke-width:8;stroke-linecap:round;stroke-linejoin:round" d="M 127,230 C 117,223 102,214 94,213 87.6,211 76.1,210 62.5,213 41,216 25.8,269 40.9,265 67.2,224 108,230 127,230 Z"/>
    <path style="fill:none;stroke:#754008;stroke-width:8;stroke-linecap:round;stroke-linejoin:round" d="m 49.2,292 c 0,0 43.8,3 44.3,-59"  />
    <path style="fill:none;stroke:#754008;stroke-width:8;stroke-linecap:round;stroke-linejoin:round" d="m 134,321 c 0,0 24,-14 25,-41" />
    <path style="fill:#754008" d="m 47.5,311 c 8.7,2 17.3,6 26.7,0 l 2.9,13 C 66.2,323 55.8,321 47.5,311 Z"  />
    <path style="fill:#754008" d="m 227,249 c 3,8 5,6 3,11 l -22,-12 -7,22 c 2,-8 -5,-18 -1,-25 5,-9 24,-6 27,4 z"  />
    <path style="fill:#d3b526" d="m 103,230 c 11,47 35,58 55,58 27,-6 29,-21 38,-43 4,-28 -6,-16 -10,-11 -11,11 -21,29 -28,43 -1,-25 -15,-36 -28,-45 -16,-3 -21,-5 -27,-2 z"/>
    <path style="fill-opacity:0.209;stroke:#1e1102;stroke-width:8;stroke-linecap:round;stroke-linejoin:round" d="m 79.8,325 c -10.3,-48 46.2,-34 54.2,-4 40,1 74,-38 72,-73 14,-3 17,6 23,16 5,-14 3,-57 -34,-37 -12,7 -25,26 -36,53 -4,-18 -11,-36 -32,-50 -18,0 -35.6,-2 -52.9,8 -1.3,34 -10.2,40 -26.1,43 l -1.2,30 c 8.2,12 19.5,14 33,14 z"/>
    <path style="fill:#524539" d="m 27.2,294 16.3,-1 0.3,-7 -13.7,2 c -1.9,2 -2.6,4 -2.9,6 z" />
    <path style="fill:#ffffff;fill-opacity:0.462" d="m 71,216 c -6,1 -12,2 -18,9 -1.2,2 -1.8,4 0.5,5 -2.8,4 -1.8,6 0.3,6 1.9,0 3.9,-1 6,-2 2.3,-4 8.2,-5 13.2,-6 3.1,0 5.3,-2 7.5,-4 8.7,3 15.7,0 23.5,0 2,-2 1,-3 -5,-5 -6.2,0 -17.8,-2 -35.2,5 4.3,-3 11.5,-6 7.2,-8 z"/>
  </symbol>
  
  <symbol id="hat_bicho">
    <path style="fill:#186d52" d="m 137,40.5 c 26,2.2 34,25.1 29,47 1,9.2 6,11.7 11,14.5 15,6 15,37 -8,23 -6,-6 -12,-9 -18,-2 -5,6 -15,10 -23,1 -6,-10 -12,-10 -24,1 -14.7,8 -22.9,-9 -11.5,-20 5.2,-5 11.5,-7.5 14.5,-16.5 1,-23.2 0,-48 30,-48 z"/>
    <path style="fill:#3fbe3f" d="m 141,43.1 c -34,-0.7 -22,46.7 -27,53.9 -4,5 -19.3,12 -16.8,19 16.8,-9 29.8,-9 40.8,7 13,4 14,-12 24,-11 7,1 14,13 20,10 5,-2 2,-15 2,-15 -5,-3 -10,-7.7 -16,-12.6 0,-10.2 3,-13.9 -1,-33.6 -7,-14 -16,-18.8 -26,-17.7 z"/>
    <path style="fill:none;stroke:#021902;stroke-width:10;stroke-linecap:round;stroke-linejoin:round" d="m 135,39.9 c 0,0 -12,-18.7 11,-15.9" />
    <circle style="fill:#031903" cx="147" cy="23.5" r="7.5" />
    <path style="fill:none;stroke:#083008;stroke-width:10;stroke-linecap:round;stroke-linejoin:round" d="m 137,40.5 c 26,2.2 34,25.1 29,47 1,9.2 6,11.7 11,14.5 15,6 15,37 -8,23 -6,-6 -12,-9 -18,-2 -5,6 -15,10 -23,1 -6,-10 -12,-10 -24,1 -14.7,8 -22.9,-9 -11.5,-20 5.2,-5 11.5,-7.5 14.5,-16.5 1,-23.2 0,-48 30,-48 z"/>
    <ellipse style="fill:#091815" cx="147" cy="70.8" rx="24.9" ry="24.3" />
    <ellipse style="fill:#a6cbc5" cx="148" cy="71.1" rx="16" ry="15.6" />
    <path style="fill:#d6ecec" d="m 140,57.5 c -8,4.2 -3,12.4 4,18.7 5,4.3 14,7.2 19,0.3 3,-14.3 -7,-25.3 -23,-19 z" />
    <circle style="fill:#421a34" cx="150" cy="70.4" r="5.96" />
  </symbol>

  <symbol id="hat_jason">
    <path style="fill:#1d1e26;stroke:#101012;stroke-width:10;stroke-linecap:round;stroke-linejoin:round" d="m 123,170 c -16,-1 -31.2,-4 -45.9,-16 -0.9,-6 -2,-13 5.3,-19 13.9,7 27.6,12 41.6,13" id="path2161" />
    <path style="fill:#2c2d36;stroke:#101012;stroke-width:10;stroke-linecap:round;stroke-linejoin:round" d="m 141,118 -38,-6 c 7,-7 20,-12.9 29,-12.2 13,1.2 23,1.2 39,7.2" id="path5430" />
    <path style="fill:#b5aa9f" d="m 121,161 c 2,35 21,53 49,55 22,1 40,-15 42,-54 -5,-42 -23,-54 -46,-56 -46,14 -42,35 -45,55 z" id="path6202" />
    <path style="fill:#d3d0c6" d="m 144,116 c -22,25 -11,63 5,75 3,-6 7,-11 6,-24 2,-6 4,-4 10,-2 5,2 11,1 15,-6 0,5 2,10 -6,11 h -11 c 3,8 3,17 3,25 10,3 14,2 19,0 1,-7 1,-10 2,-23 1,-13 7,15 7,28 12,-9 16,-29 15,-53 -5,-26 -20,-34 -36,-39 -10,-3 -20,0 -29,8 z" />
    <path style="fill:#b5aa9f" d="m 141,142 c -1,-1 -3,-1 0,-4 5,-2 11,-3 20,0 4,1 6,-3 7,-4 1,5 0,9 -5,11 -7,-2 -15,-4 -22,-3 z"/>
    <path style="fill:#b5aa9f" d="m 177,146 c -3,-2 -2,-6 0,-11 2,7 6,7 9,8 z" />
    <ellipse style="fill:#b5aa9f" cx="164" cy="126" rx="2.83" ry="2.3" />
    <ellipse style="fill:#b5aa9f" cx="178" cy="126" rx="2.65" ry="2.3" />
    <path style="fill:#f72842;stroke:#5a1c21;stroke-width:5;stroke-linecap:round;stroke-linejoin:round" d="m 142,154 c -6,-1 -7,-8 -2,-11 11,-3 23,1 25,4 2,3 0,10 -23,7 z"/>
    <path style="fill:#f72842;stroke:#5a1c21;stroke-width:5;stroke-linecap:round;stroke-linejoin:round" d="m 177,148 c 0,4 13,8 19,5 3,-1 2,-9 0,-10 -8,-3 -19,2 -19,5 z" />
    <path style="fill:none;stroke:#20201b;stroke-width:10;stroke-linecap:round;stroke-linejoin:round" d="m 121,161 c -1,35 21,53 49,55 22,1 44,-15 42,-54 -2,-41 -26,-57 -46,-56 -49,4 -44,38 -45,55 z" />
    <path style="fill:#2c2d36" d="m 112,164 c -7,-1 -13.6,-3 -20.6,-7 l 1.7,-12 c 3.8,2 9.9,4 18.9,7" />
    <ellipse style="fill:#212018" cx="164" cy="186" rx="4.4" ry="3.53" />
    <ellipse style="fill:#212018" cx="163" cy="174" rx="4.4" ry="3.53" />
    <ellipse style="fill:#212018" cx="182" cy="174" rx="4.4" ry="3.53" />
    <ellipse style="fill:#212018" cx="183" cy="186" rx="4.4" ry="3.53" />
    <path style="fill:#eeebe7" d="m 170,164 c -2,-4 -1,-8 -1,-13 1,-1 3,-1 4,0 -1,4 0,6 1,7 3,1 5,1 5,2 -1,2 -7,8 -9,4 z" />
    <path style="fill:#eeebe7" d="m 174,113 c 9,0 23,13 22,15 -1,1 -8,0 -15,-4 -7,-6 -7,-9 -7,-11 z" />
  </symbol>
  <g id="personaje">
    <ellipse style="fill:#000000;fill-opacity:0.498" cx="135" cy="344" rx="86.3" ry="16.4" />
    <path id="characterColor" style="fill:var(--colorRed)" d="m 135,111 c -18,0 -34,6 -43.5,17 -8,9 -12.9,27 -15.7,50 v 0 c -11.3,0 -16.6,1 -26.1,4 -16.2,5 -13.2,98 -0.5,110 11.6,7 18.5,4 26.7,4 1.3,16 3.1,30 5.2,43 22.9,8 32.9,8 48.9,-3 5,-18 6,-38 6,-38 l 15,1 c 3,24 6,32 12,36 12,2 24,1 31,-3 l 7,-36 c 6,-30 11,-136 -13,-162 -16,-16 -35,-23 -53,-23 z" />
    <path style="display:inline;fill:#000000;fill-opacity:0.337" d="m 75.9,296 c 1.4,18 3.4,30 5.2,43 16.4,7 34.9,9 48.9,-3 l 6,-38 15,1 c -1,13 0,23 7,35 10,2 26,3 36,-2 13,-44 10,-90 11,-135 -2,31 -8,55 -18,67 -24,12 -59,11 -73,3 -17.6,-7 -34.1,-118 -14,-147 -16.7,18 -22,36 -24.2,58 -1.2,8 -2.9,25 -7,24 -9.7,-1 -19.4,2 -29.2,8 -3.4,28 -0.5,55 9.6,82 8.2,4 16.6,7 26.7,4" />
    <path style="fill:none;stroke:#000000;stroke-width:10;stroke-linecap:round;stroke-linejoin:round" d="m 135,111 c -18,0 -34,6 -43.5,17 -8,9 -12.9,27 -15.7,50 v 0 c -11.3,0 -16.6,1 -26.1,4 -16.2,5 -13.2,98 -0.5,110 11.6,7 18.5,4 26.7,4 1.3,16 2.6,33 5.2,43 12.1,7 35.9,5 48.9,-3 4,-4 6,-38 6,-38 l 15,1 c 3,24 1,31 7,35 12,2 32,3 36,-2 3,-4 6,-24 7,-36 2,-22 11,-136 -13,-162 -16,-16 -35,-23 -53,-23 z" />
    <path style="fill:#000000" d="m 153,303 c 12,-2 18,-5 24,-11 -9,2 -16,2 -25,2 z" />
    <path style="fill:#008000;stroke:#000000;stroke-width:10;stroke-linecap:round;stroke-linejoin:round" d="M 75.9,296 C 72.3,243 72.8,205 75.8,178"/>
    <g id="g294">
      <path style="fill:#4a646d;stroke:#000000;stroke-width:10;stroke-linecap:round;stroke-linejoin:round" d="m 130,207 c 19,12 79,3 85,-15 3,-12 1,-32 -16,-39 -17,-9 -66,-9 -74,0 -10,4 -11,46 5,54 z"  />
      <path style="fill:#94c9db" d="m 131,155 c 6,31 13,32 41,31 12,0 29,0 39,-8 -1,-16 -12,-23 -31,-25 -17,-2 -35,-4 -49,2 z"/>
      <path style="fill:#fefefe" d="m 159,171 c 8,3 34,3 37,2 3,-1 3,-9 -2,-11 -10,-5 -21,-8 -34,-6 -8,4 -8,12 -1,15 z" />
    </g>
  </g>
  <g id="hat"></g>
</svg>