<?xml version="1.0" encoding="UTF-8" standalone="no"?>
<!-- Created with Inkscape (http://www.inkscape.org/) -->
<?xml-stylesheet type="text/css" href="../css/style.css"?>

<svg id="svg5" height="380" version="1.1" viewBox="0 0 250 380" width="250" xml:space="preserve" xmlns="http://www.w3.org/2000/svg" xmlns:xlink="http://www.w3.org/1999/xlink" xmlns:svg="http://www.w3.org/2000/svg">
	<!-- Created By Erik Medina (https://github.com/erme07) -->
	<defs>
		<!-- ::::::::::::::::::  skins :::::::::::::::::::: -->
		<symbol id="skin_momia">
			<path d="m 73.4 232 c 0 41 3 76 7.7 107 c 16.2 8 34.9 8 48.9 -3 c 3 -12 7 -23 6 -38 c 7 1 3 0 15 1 c 1 22 2 32 7 35 c 10 2 25 3 36 -2 c 8 -31 12 -66 12 -104 c -37 22 -82 21 -132.6 4 z" fill="#eecea7"/>
			<path d="m 96.5 238 c 6.5 32 23.5 44 49.5 43 c 34 3 50 -17 54 -49 c -31 13 -64 18 -103.5 6 z" fill="#fff5de"/>
			<path d="m 81 331 c 16.2 -1 37 -4 53 -8 l -1 -6 c -11 0 -25 -5 -35.4 -12 H 78.5 c 28.5 1 56.5 -7 83.5 -18 c -29 -1 -47 -3 -87.3 -9 c 38.3 5 86.3 11 128.3 6 l 1 -11 c -44 -1 -87 -8 -130.3 -22" fill="none" stroke="#b5826b" stroke-linecap="round" stroke-linejoin="round" stroke-width="5"/>
			<path d="m 147 245 c 19 4 38 10 58 9" fill="none" stroke="#b5826b" stroke-linecap="round" stroke-linejoin="round" stroke-width="5"/>
			<path d="m 152 319 c 11 -2 24 -5 28 -9 h 19 c -15 0 -30 0 -48 -3" fill="none" stroke="#b5826b" stroke-linecap="round" stroke-linejoin="round" stroke-width="5"/>
			<path d="m 69.5 232 c 0 41 4.8 76 9.5 107 c 16.2 8 36 5 51 -3 c 5 -8 5 -24 6 -38 c 7 1 3 0 15 1 c 1 22 2 32 7 35 c 10 2 33 4 37 -1 c 4 -4 12 -64 12 -105 c -37 22 -87 21 -137.5 4 z" fill="none" stroke="#2e2218" stroke-linecap="round" stroke-linejoin="round" stroke-width="10"/>
			<path d="m 152 303 c 13 -2 19 -5 25 -11 c -9 2 -17 2 -26 2 z" fill="#2e2218"/>
		</symbol>
		<symbol id="skin_kid">
			<path d="m 72.5 301 l -2.8 -25 c 57.3 9 105.3 9 139.3 -1 c -2 7 -3 14 -4 21 c -17 7 -35 11 -57 11 l -2 -8 h -11 l -1 9 c -21 3 -38.5 1 -61.5 -7 z" fill="#1e3e68"/>
			<path d="m 69.4 271 l 1.3 -50 c 10.2 10 37.3 14 78.3 14 l 27 21 l 16 -22 l 17 -5 l -1 40 c -35 13 -80 13 -138.6 2 z" fill="#8c2a5a"/>
			<path d="m 98 229 c 4 18 12 35 27 47 l 64 2 c 8 -11 16 -24 18 -46 h -14 l -16 23 l -28 -19 z" fill="#ad3939"/>
			<path d="M 69.4 271 C 123 284 175 283 208 270" fill="none" stroke="#000000" stroke-linecap="round" stroke-linejoin="round" stroke-width="10"/>
			<path d="m 70.7 221 c -3.6 36 -1.1 58 1.8 80 c 19 9 39.5 13 63.5 6 v -8 h 12 l 1 8 c 19 1 36 -1 55 -10 c 5 -15 5 -38 5 -68 l -17 5 c -6 13 -11 17 -16 22 c -9 -5 -18 -11 -27 -21 c -23 -1 -41 2 -78.3 -14 z" fill="none" stroke="#000000" stroke-linecap="round" stroke-linejoin="round" stroke-width="10"/>
			<path d="m 146 294 c 12 0 25 -1 37 -3 c -6 4 -17 7 -35 9 z"/>
			<path d="m 74.9 322 l 3.1 19 c 17.7 7 35 7 53 -2 l 5 -17 c -23 6 -43.9 6 -61.1 0 z" fill="#312c29" stroke="#000000" stroke-linecap="round" stroke-linejoin="round" stroke-width="10"/>
			<path d="m 150 320 c 20 2 33 0 50 -6 c -1 10 -3 15 -6 19 c -13 5 -26 6 -40 2 c -3 -5 -5 -10 -4 -15 z" fill="#312c29" stroke="#000000" stroke-linecap="round" stroke-linejoin="round" stroke-width="10"/>
		</symbol>
		<symbol id="skin_sport">
			<path d="m 71.2 225 c -4 36 -.7 56 2.3 78 c 19 9 38.5 13 62.5 6 v -8 h 12 l 1 8 c 19 1 36 -1 55 -10 c 5 -15 5 -36 5 -66 c -46 17 -92 9 -137.8 -8 z" fill="#1538a1"/>
			<path d="m 184 276 c 0 -5 0 -8 0 -13 c 2 -2 14 -11 15 -23 l 9 -3 c -1 21 -6 23 -11 28 l -1 9 z" fill="#6d87ad"/>
			<path d="m 91.9 233 c .3 10 -2 24 20.1 38 v 9 l 16 -1 l -1 -15 c -19 -9 -19 -19 -22 -28 z" fill="#6d87ad"/>
			<path d="m 97 233 c 4 18 15 36 30 48 l 58 -3 c 8 -11 17 -20 19 -42 c -38 7 -73 5 -107 -3 z" fill="#ffffff" fill-opacity=".248"/>
			<path d="M 71.7 273 C 125 286 174 285 207 272" fill="none" stroke="#071428" stroke-linecap="round" stroke-linejoin="round" stroke-width="10"/>
			<path d="m 146 296 c 12 0 25 -1 37 -3 c -6 4 -17 7 -35 9 z" fill="#071428"/>
			<path d="m 71.2 225 c -4 36 -.7 56 2.3 78 c 19 9 38.5 13 62.5 6 v -8 h 12 l 1 8 c 19 1 36 -1 55 -10 c 5 -15 5 -36 3 -66 c -46 17 -90 9 -135.8 -8 z" fill="none" stroke="#071428" stroke-linecap="round" stroke-linejoin="round" stroke-width="10"/>
		</symbol>
		<symbol id="skin_sport2">
			<path d="m 71.2 225 c -4 36 -.7 56 2.3 78 c 19 9 38.5 13 62.5 6 v -8 h 12 l 1 8 c 19 1 36 -1 55 -10 c 5 -15 5 -36 5 -66 c -46 17 -92 9 -137.8 -8 z" fill="#860d2e"/>
			<path d="m 67.5 255 c 29.8 8 62.5 14 90.5 11 l -1 -21 C 129 242 98.9 234 70.4 225 Z" fill="#470c36"/>
			<path d="m 157 282 l -1 -17 c 17 1 37 -7 54 -11 l -1 19 c -17 7 -35 7 -52 9 z" fill="#470c36"/>
			<path d="m 97 233 c 4 18 15 36 30 48 l 58 -3 c 8 -11 17 -20 19 -42 c -38 7 -73 5 -107 -3 z" fill="#ffffff" fill-opacity=".1"/>
			<path d="M 71.7 273 C 125 286 174 285 207 272" fill="none" stroke="#1b0405" stroke-linecap="round" stroke-linejoin="round" stroke-width="10"/>
			<path d="m 146 296 c 12 0 25 -1 37 -3 c -6 4 -17 7 -35 9 z" fill="#1b0405"/>
			<path d="m 71.2 225 c -4 36 -.7 56 2.3 78 c 19 9 38.5 13 62.5 6 v -8 h 12 l 1 8 c 19 1 36 -1 55 -10 c 5 -15 5 -36 3 -66 c -46 17 -90 9 -135.8 -8 z" fill="none" stroke="#1b0405" stroke-linecap="round" stroke-linejoin="round" stroke-width="10"/>
		</symbol>
		<symbol id="skin_banana">
			<path d="m 46.8 311 l -19.9 -5 c -4.4 -8 -6.3 -13 1 -22 L 48 281" fill="#392c22" stroke="#100c08" stroke-linecap="round" stroke-linejoin="round" stroke-width="8"/>
			<path d="m 78.5 325 c -14.1 -46 47.5 -34 55.5 -4 c 40 1 73 -46 73 -74 c 14 -3 16 7 22 17 c 5 -14 3 -57 -34 -37 c -12 7 -24 34 -36 53 c -4 -18 -11 -36 -32 -50 l -49 5 c -1.3 34 -14.1 43 -30 46 l -1.2 30 c 8.2 12 18.2 14 31.7 14 z" fill="#b5811b"/>
			<path d="M 127 230 C 117 223 102 214 94 213 C 87.6 211 76.1 210 62.5 213 C 41 216 25.8 269 40.9 265 C 67.2 224 108 230 127 230 Z" fill="#bda284" stroke="#1e1102" stroke-linecap="round" stroke-linejoin="round" stroke-width="8"/>
			<path d="m 49.2 292 c 0 0 43.8 3 44.3 -59" fill="none" stroke="#754008" stroke-linecap="round" stroke-linejoin="round" stroke-width="8"/>
			<path d="m 134 321 c 0 0 24 -14 25 -41" fill="none" stroke="#754008" stroke-linecap="round" stroke-linejoin="round" stroke-width="8"/>
			<path d="m 47.5 311 c 8.7 2 17.3 6 26.7 0 l 2.9 13 C 66.2 323 55.8 321 47.5 311 Z" fill="#754008"/>
			<path d="m 227 249 c 3 8 5 6 3 11 l -22 -12 l -7 22 c 2 -8 -5 -18 -1 -25 c 5 -9 24 -6 27 4 z" fill="#754008"/>
			<path d="m 103 230 c 11 47 35 58 55 58 c 27 -6 29 -21 38 -43 c 4 -28 -6 -16 -10 -11 c -11 11 -21 29 -28 43 c -1 -25 -15 -36 -28 -45 c -16 -3 -21 -5 -27 -2 z" fill="#d3b526"/>
			<path d="m 79.8 325 c -10.3 -48 46.2 -34 54.2 -4 c 40 1 74 -38 72 -73 c 14 -3 17 6 23 16 c 5 -14 3 -57 -34 -37 c -12 7 -25 26 -36 53 c -4 -18 -11 -36 -32 -50 c -18 0 -35.6 -2 -52.9 8 c -1.3 34 -10.2 40 -26.1 43 l -1.2 30 c 8.2 12 19.5 14 33 14 z" fill-opacity=".209" stroke="#1e1102" stroke-linecap="round" stroke-linejoin="round" stroke-width="8"/>
			<path d="m 27.2 294 l 16.3 -1 l .3 -7 l -13.7 2 c -1.9 2 -2.6 4 -2.9 6 z" fill="#524539"/>
			<path d="m 71 216 c -6 1 -12 2 -18 9 c -1.2 2 -1.8 4 .5 5 c -2.8 4 -1.8 6 .3 6 c 1.9 0 3.9 -1 6 -2 c 2.3 -4 8.2 -5 13.2 -6 c 3.1 0 5.3 -2 7.5 -4 c 8.7 3 15.7 0 23.5 0 c 2 -2 1 -3 -5 -5 c -6.2 0 -17.8 -2 -35.2 5 c 4.3 -3 11.5 -6 7.2 -8 z" fill="#ffffff" fill-opacity=".462"/>
		</symbol>
		<symbol id="skin_arbusto">
			<path id="path4875" d="M 111 246 C 101 227 94.6 194 75 206" fill="none" stroke="#000000" stroke-linecap="round" stroke-linejoin="round" stroke-width="8"/>
			<path id="path4877" d="m 219 238 c 0 -10 -6 -20 -11 -30" fill="none" stroke="#000000" stroke-linecap="round" stroke-linejoin="round" stroke-width="8"/>
			<path d="m 244 307 c 15 -69 -59 -111 -147.7 -57 c -9.5 20 -17 26 -26.6 32 c -23.9 43 -5.8 41 48.3 38 c 53 -3 123 -8 126 -13 z" fill="#e7c38f" stroke="#34241d" stroke-linecap="round" stroke-linejoin="round" stroke-width="10"/>
			<path d="m 109 281 c 6 -16 10 -35 35 -19 c 9 -24 22 -16 35 -12 c 9 -14 31 -5 31 7 c 10 1 16 6 16 16 c 10 11 5 32 -14 29 c -18 1 -34 2 -49 2 c -12 6 -23 6 -35 3 c -8 -1 -15 0 -23 2 c -42.7 4 -21.7 -24 4 -28 z" fill="none" stroke="#299415" stroke-linecap="round" stroke-linejoin="round" stroke-width="5"/>
			<path d="m 100 299 c 1 -5 5 -9 11 -12 v 13 c 4 -9 10 -18 16 -25 c -1 9 -2 18 -1 24 c 8 -13 18 -23 28 -33 c -3 9 -8 19 -9 28 c 5 -9 14 -19 23 -28 c -5 11 -10 21 -9 30 c 10 -15 22 -27 35 -38 c -5 13 -11 27 -12 34 c 6 -9 12 -18 22 -23 c -2 7 -6 14 -4 21 c 3 -5 5 -10 13 -12 c -5 6 -6 12 -5 18 c 3 -4 5 -8 10 -12" fill="none" stroke="#299415" stroke-linecap="round" stroke-linejoin="round" stroke-width="5"/>
			<ellipse cx="169" cy="264" fill="#c62139" rx="6.78" ry="7.01"/>
			<ellipse cx="126" cy="286" fill="#c62139" rx="6.78" ry="7.01"/>
			<ellipse cx="204" cy="284" fill="#c62139" rx="6.78" ry="7.01"/>
			<path d="m 80 316 c -14 -1 -12.3 -13 0 -31 c 11.1 -6 16.3 -8 22 -23 c 0 -3 -1 -6 -2 -8 c -5 10 -14.1 24 -26 31 c -17.8 30 -8.7 31 6 31 z" fill="#ce9363"/>
			<path d="m 110 249 c 35 -13 70 -16 106 -7 c -12 -8 -20 -12 -53 -11 c -11 0 -38 6 -53 18 z" fill="#f7dfad"/>
		</symbol>
		<symbol id="skin_hotdog">
			<path d="m 199 310 c 27 3 51 -87 17 -115 l -13 10 c 3 39 1 72 -4 105 z" fill="#e4c489"/>
			<path d="m 209 305 c 12 -45 17 -83 1 -103 l 10 -6 c 33 54 -5 110 -11 109 z" fill="#c68639"/>
			<path d="m 200 310 c 27 3 50 -87 16 -115 l -13 10 c 3 39 1 72 -3 105 z" fill="none" fill-opacity=".47" stroke="#000000" stroke-linecap="round" stroke-linejoin="round" stroke-width="10"/>
			<path d="m 199 223 c -19 3 -74 13 -64 32 c 3 14 59 10 55 19 c -5 10 -63 5 -59 18 c 2 15 83 6 77 -23 c -4 -16 -37 -12 -56 -17 c 17 -8 41 -13 54 -18 c 4 -2 4 -13 -7 -11 z" fill="#db0909" stroke="#000000" stroke-linecap="round" stroke-linejoin="round" stroke-width="8"/>
			<path d="m 155 232 c 7 4 25 12 21 17 c -60 10 17 57 23 52 c 7 -11 -33 -24 -28 -34 c -1 -4 20 -3 22 -10 c 2 -27 -31 -33 -36 -35 c -4 -1 -10 5 -2 10 z" fill="#e6df2b" stroke="#000000" stroke-linecap="round" stroke-linejoin="round" stroke-width="8"/>
			<path d="M 87 320 C 43.2 313 27.2 242 51.2 206 c 21.5 -21 56.8 -11 62.8 0 c 13 44 11 115 -27 114 z" fill="#c8883c"/>
			<path d="m 90.2 322 c 7.8 -8 11.8 -20 8.8 -40 c 7 -4 3 -17 0 -29 c 9 -13 .5 -35 -6.7 -57 l 21.7 7 c 24 97 -14 120 -23.8 119 z" fill="#e4c589"/>
			<path d="m 47.7 222 c 4 18 19.8 20 24.1 23 c 4.6 6 4.1 13 4.2 20 c -38.1 -5 17.7 98 44 6 c 1 35 -11 47 -28.8 49 c -32.5 1 -55.8 -54 -43.5 -98 z" fill="#7f2300" fill-opacity=".47"/>
			<path d="M 87 320 C 43.2 313 33.2 240 52.5 208 C 74 187 108 197 114 208 c 11 42 11 113 -27 112 z" fill="none" stroke="#000000" stroke-linecap="round" stroke-linejoin="round" stroke-width="10"/>
		</symbol>
		<symbol id="skin_gift">
			<path d="m 54.4 217 l 53.6 18 l 6 80 l -51.3 -19 z" fill="#b9bfda" stroke="#000000" stroke-linecap="round" stroke-linejoin="round" stroke-width="10"/>
			<path d="m 114 315 l -6 -80 l 113 -9 c -3 34 -8 64 -14 79 z" fill="#e9eff4"/>
			<path d="m 144 314 c 2 -21 5 -40 4 -83 h 19 l -8 80 z" fill="#b2bbd1"/>
			<path d="m 114 315 l -6 -80 l 115 -13 c -3 34 -10 68 -16 83 z" fill="none" stroke="#000000" stroke-linecap="round" stroke-linejoin="round" stroke-width="10"/>
			<path d="m 151 317 c 3 -23 10 -67 6 -85 l -3 -6 h 23 c 1 0 4 3 5 5 c 2 11 -1 63 -9 84 z" fill="#f7ef5d"/>
			<path d="m 153 303 l -1 15 l 22 -3 l 3 -12 z" fill="#d6aa31"/>
			<path d="m 158 239 l 26 -1 c -1 -5 0 -10 -5 -12 h -25 c 4 7 4 10 4 13 z" fill="#fffbde"/>
			<path d="m 151 317 c 3 -23 10 -67 6 -85 l -3 -6 h 23 c 1 0 4 3 5 5 c 2 11 -1 63 -9 84 z" fill="none" stroke="#000000" stroke-linecap="round" stroke-linejoin="round" stroke-width="5"/>
			<path d="m 98 316 c -3.8 -26 -7 -52 -8.6 -83 c -.9 -3 2.9 -6 5 -8 l -14.9 -4 c -4.2 2 -6.1 4 -7.6 6 c 1.9 28 4.4 55 8 80 c -.3 7 13.8 12 18.1 9 z" fill="#d6aa31"/>
			<path d="m 72.1 227 c 5.3 3 10.8 5 16.6 5 l 6.5 -7 l -14.2 -5 c -7.6 2 -6.9 5 -8.9 7 z" fill="#f7e85a"/>
			<path d="m 78.3 299 l 17.2 3 l 3 15 l -18.2 -6 z" fill="#976a18"/>
			<path d="m 98 314 c -3.8 -26 -7 -50 -8.6 -81 c -.9 -3 2.9 -6 5 -8 l -14.9 -4 c -4.2 2 -6.1 4 -7.6 6 c 1.9 28 4.4 55 8 80 c 1.7 4 13.8 10 18.1 7 z" fill="none" stroke="#000000" stroke-linecap="round" stroke-linejoin="round" stroke-width="5"/>
			<path d="m 53.8 216 l 19.4 -8 l -.3 15 z" fill="#b9bfda" stroke="#000000" stroke-linecap="round" stroke-linejoin="round" stroke-width="8"/>
			<path d="m 224 220 l -19 -10 v 14 z" fill="#b9bfda" stroke="#000000" stroke-linecap="round" stroke-linejoin="round" stroke-width="8"/>
		</symbol>
		<symbol id="skin_astronauta">
			<path d="m 71.8 225 c -.7 40 1.6 81 8.8 114 c 17.5 10 37.4 9 50.4 -2 c 4 -12 3 -23 2 -36 h 15 l 5 33 c 15 5 29 5 42 -1 c 6 -26 12 -60 11 -104 c -25 16 -82 21 -134.2 -4 z" fill="#d1c4b2"/>
			<path d="m 77 319 l 3 22 c 18.2 9 36 11 53 -3 l 2 -17 c -19 1 -38.7 2 -58 -2 z" fill="#847062"/>
			<path d="m 147 313 l 5 23 c 15 4 29 6 44 -1 l 5 -23 c -18 4 -36 4 -54 1 z" fill="#7b6d5a"/>
			<path d="m 77 319 c 18.4 4 37 6 57 1" fill="none" stroke="#1b1910" stroke-linecap="round" stroke-linejoin="round" stroke-width="8"/>
			<path d="m 150 314 c 17 3 33 2 50 -2" fill="none" stroke="#1b1910" stroke-linecap="round" stroke-linejoin="round" stroke-width="8"/>
			<path d="m 97.9 235 c 1 18 3.1 35 24.1 40 l -12 6 l 23 2 l -5 3 c 66 26 82 -29 81 -52 c -32 12 -72 6 -111.1 1 z" fill="#f7f4ec"/>
			<path d="m 71.8 225 c 48.2 21 93.2 22 134.2 7 l 2 18 c -37 8 -77 13 -137.2 -8 z" fill="#d66921"/>
			<path d="m 72.5 242 l 27.5 12 c -.8 -7 -2.2 -14 -2.6 -20 l -24.9 -8 z" fill="#9c3010"/>
			<path d="M 71.8 240 C 118 267 177 257 207 249" fill="none" stroke="#1b1910" stroke-linecap="round" stroke-linejoin="round" stroke-width="8"/>
			<path d="m 158 277 c 1 -10 2 -16 2 -24 l 24 -3 c 1 8 0 14 -2 23 z" fill="#f7f4ec" stroke="#1b1910" stroke-linecap="round" stroke-linejoin="round" stroke-width="8"/>
			<path d="m 144 300 c 11 -9 18 -17 20 -23 l 13 -3 c -4 18 -18 23 -29 29 z" fill="#d66921" stroke="#1b1910" stroke-linecap="round" stroke-linejoin="round" stroke-width="5"/>
			<path d="m 71.8 225 c -.7 40 1.6 81 8.8 114 c 17.5 10 37.4 9 50.4 -2 c 4 -12 5 -23 4 -36 h 13 l 5 33 c 15 5 29 5 42 -1 c 6 -26 12 -60 11 -104 c -25 16 -82 21 -134.2 -4 z" fill="none" stroke="#1b1910" stroke-linecap="round" stroke-linejoin="round" stroke-width="10"/>
			<path d="m 83.8 274 l -.3 -19 l 17.5 6 l 1 18 z" fill="#294798"/>
			<path d="m 96.3 264 l -3.7 5 l 1.7 5 l -5.5 -2 l -4.8 4 l .3 -6 l -4.7 -4 l 5.7 -1 l 1.9 -6 l 3.2 5 z" fill="#ffff00" transform="matrix(.667 .146 -.083 .836 55.7 30.2)"/>
			<path d="m 168 261 l 8 -1" fill="none" stroke="#1b1910" stroke-linecap="round" stroke-linejoin="round" stroke-width="5"/>
			<path d="m 168 267 l 7 -1" fill="none" stroke="#1b1910" stroke-linecap="round" stroke-linejoin="round" stroke-width="5"/>
		</symbol>
		<symbol id="skin_calabaza">
			<path d="m 73.5 210 c -54.7 49 -10.5 105 -1 88 c 7.4 12 26 16 31.5 5 c 14 5 30 13 48 0 c 5 12 35 9 48 -3 c 9 11 50 -36 8 -76 l -15 17 l -20 -10 l -13 16 l -12 -15 l -14 10 l -8 -18 l -20 11 z" fill="#ff6200" stroke-linecap="round" stroke-width="10"/>
			<path d="M 70.4 296 C 59.3 272 63.1 246 89.6 224" fill="none" stroke="#bd341b" stroke-linecap="round" stroke-linejoin="round" stroke-width="5"/>
			<path d="M 106 305 C 91.6 289 87.9 265 106 236" fill="none" stroke="#bd341b" stroke-linecap="round" stroke-linejoin="round" stroke-width="8"/>
			<path d="m 135 310 c -10 -19 -4 -46 1 -69" fill="none" stroke="#bd341b" stroke-linecap="round" stroke-linejoin="round" stroke-width="8"/>
			<path d="m 164 310 c 10 -19 20 -39 1 -68" fill="none" stroke="#bd341b" stroke-linecap="round" stroke-linejoin="round" stroke-width="8"/>
			<path d="m 202 300 c 4 -17 5 -37 -6 -59" fill="none" stroke="#bd341b" stroke-linecap="round" stroke-linejoin="round" stroke-width="5"/>
			<path d="m 50.6 285 c 5.9 0 10.5 -4 14.5 -11 c 16.9 21 24.3 16 29.3 4 c 16.6 17 27.6 12 35.6 2 c 9 12 19 12 31 9 c 8 6 13 -1 19 -5 c 3 11 13 4 24 -4 c 6 8 11 10 16 14 c -7 5 -13 8 -20 8 c -15 10 -31 14 -49 3 c -16 9 -32 8 -48 -1 c -10 10 -20.3 8 -31 -6 c -8.9 7 -16.1 3 -21.4 -13 z" fill="#290c00" fill-opacity=".411" stroke-linecap="round" stroke-linejoin="round" stroke-width="5"/>
			<path d="m 93.1 231 c -11.4 19 -11.2 35 -6.3 35 c 3.5 -11 7.5 -21 15.2 -32 z" fill="#ff8c00" stroke-linecap="round" stroke-linejoin="round" stroke-width="5"/>
			<path d="m 118 231 c -15 21 -11 45 -4 43 c 5 -11 9 -21 18 -31 l -5 -17 z" fill="#ff8c00" stroke-linecap="round" stroke-linejoin="round" stroke-width="5"/>
			<path d="m 140 243 c 8 12 8 24 10 36 c 7 2 14 -3 12 -35 l -12 -11 z" fill="#ff8c00" stroke-linecap="round" stroke-linejoin="round" stroke-width="5"/>
			<path d="m 175 237 c 5 11 13 23 14 40 c 6 3 9 0 8 -32 z" fill="#ff8c00" stroke-linecap="round" stroke-linejoin="round" stroke-width="5"/>
			<path d="m 200 233 c 8 10 17 19 17 39 c 4 -10 8 -19 -11 -47 z" fill="#ff8c00" stroke-linecap="round" stroke-linejoin="round" stroke-width="5"/>
			<path d="m 79.7 216 c -10.1 13 -26.4 23 -24 56 c -3.6 -9 -10 -25 19.5 -59 z" fill="#ff8c00" stroke-linecap="round" stroke-linejoin="round" stroke-width="5"/>
			<path d="M 53 289 C 40.6 288 30.8 282 23.4 273 l 12.7 -3 c 5.3 4 9.8 5 13.4 5" fill="#002a15" stroke="#0a0909" stroke-linecap="round" stroke-linejoin="round" stroke-width="5"/>
			<path d="m 23.9 260 c -.9 -3 3.8 -12 13.7 -5 c 2.8 2 5.6 11 -.5 14 c -8.1 4 -23 5 -32.72 -6 c -2.5 -3 -.74 -11 6.62 -8 c 4.2 6 8.3 7 12.5 7 c 4.7 0 6.8 -2 7.9 -4 c -3 3 -5.5 4 -7.5 2 z" fill="#0f4925" stroke="#0a0909" stroke-linecap="round" stroke-linejoin="round" stroke-width="5"/>
			<path d="m 73.5 209 c -54.7 49 -10.5 106 -1 89 c 7.4 12 26 16 31.5 5 c 14 5 30 13 48 0 c 5 12 35 9 48 -3 c 9 11 49 -37 7 -77 l -15 20 l -19 -14 l -13 18 l -12 -17 l -13 12 l -9 -19 l -20 12 z" fill="none" stroke="#000000" stroke-linecap="round" stroke-width="10"/>
		</symbol>
		<!-- ::::::::::::::::::  pets :::::::::::::::::::: -->
		<symbol id="pet_doggy">
			<path d="m 42 340 l 2.6 7 c 4.1 1 8.1 2 12.9 -1 l .5 -6" fill="#266d97" stroke="#000000" stroke-linecap="round" stroke-linejoin="round" stroke-width="5"/>
			<path d="m 95.8 329 l 2.7 17 c 3.5 3 9.5 4 13.5 0 c 3 -8 1 -19 1 -24" fill="#266d97" stroke="#000000" stroke-linecap="round" stroke-linejoin="round" stroke-width="5"/>
			<path d="m 42.9 340 c 1.2 5 1.2 11 -.1 15 c -6 3 -12.4 3 -16.3 0 c -3.6 -5 -.6 -11 0 -16 c -9.9 -5 -15.3 -14 -7.4 -34 c -18.297 -14 -16.81 -31 -5 -50 c 2.1 19 7.2 33 17.7 39 l 46 -15 l -6.7 9 l -17.3 -8 c -2.4 -12 3.8 -24 11.7 -29 c 8.3 2 12.8 9 17.2 10 l 24.3 -6 c 7 -6 15 -9 24 4 c 1 6 11 13 0 18 l -9 10 c -1 9 9 8 14 10 c -14 3 -37.3 16 -56.1 -1 l -9.2 13 c 9.2 3 13.2 8 44.3 2 c 7 0 9 2 5 7 c -5 2 -16 5 -19 14 c 0 7 -1.4 15 -3.2 22 c -3.8 2 -8.8 2 -12.6 0 c -2.7 -3 -2.8 -10 -2.9 -16 c -12.7 3 -25.6 3 -39.4 2 z" fill="#45c4d0" stroke-linecap="round" stroke-linejoin="round" stroke-width="8"/>
			<path d="m 12.4 263 c -6.66 22 10.4 36 14.4 40 c -3.1 43 94.2 5 95.2 10 c -5 9 -14 13 -21 20 c 1 13 -1.4 17 -2.7 23 H 84.6 c -3 -5 -5 -10 -3.3 -18 c -12.4 3 -24.7 6 -37.1 1 c 2.3 8 2 15 -3.2 20 c -6.2 1 -12.3 0 -18 -5 c -.7 -5 -.2 -10 2.8 -15 C 10.9 333 13.1 319 17.7 304 C 6.14 292 1.41 278 12.4 263 Z" fill="#266d97" stroke-linecap="round" stroke-linejoin="round" stroke-width="8"/>
			<path d="m 71.3 308 l 9 -11 c 14.9 8 26.7 8 38.7 5 l -1 10 c -22.2 3 -40.8 4 -46.7 -4 z" fill="#35237d" stroke-linecap="round" stroke-linejoin="round" stroke-width="5"/>
			<path d="m 117 310 l 1 -7" fill="#a13078" stroke="#000000" stroke-linecap="round" stroke-linejoin="round" stroke-width="5"/>
			<path d="m 77.7 281 c -.1 -3 -1.1 -4 -2.7 -6 c -10 6 -27.3 -1 -18.5 4 l 13.5 9 z" fill="#266d97" stroke-linecap="round" stroke-linejoin="round" stroke-width="5"/>
			<path d="m 42.9 340 c 1.2 5 2.7 12 -.1 16 c -4.6 3 -13.6 2 -17.5 -1 c -3.6 -5 .6 -11 1.2 -16 c -9.9 -5 -15.3 -14 -7.4 -34 c -18.297 -14 -16.81 -31 -5 -50 c 2.1 19 6.8 31 17.3 37 c 7.8 0 20.6 -1 31.9 -6 c -2.2 -3 -5.9 -4 -10.7 -9 c -1.5 -3 3.9 -23 12.9 -26 c 8.3 2 12.8 9 17.2 10 l 24.3 -6 c 9 -8 15 -9 24 4 c 4 5 11 13 0 18 l -9 10 c -1 9 9 8 14 10 c -14 3 -37.3 16 -56.1 -1 l -9.2 13 c 9.2 3 13.2 8 44.3 2 c 7 0 9 2 5 7 c -5 2 -14 6 -19 14 c 0 7 -1 17 -2.6 24 c -3.8 2 -8.8 2 -12.6 0 c -2.7 -3 -3.4 -12 -3.5 -18 c -12.7 3 -25.6 3 -39.4 2 z" fill="none" stroke="#000000" stroke-linecap="round" stroke-linejoin="round" stroke-width="5"/>
			<path d="m 94.5 293 c 7.5 2 15.5 2 23.5 -1 c 8 -3 12 -11 11 -17 c -1 -14 -17 -19 -25 -18 c -9.6 1 -19.5 8 -20 18 c -.3 7 2.3 16 10.5 18 z" fill="#d1e8f6" stroke="#000000" stroke-linecap="round" stroke-linejoin="round" stroke-width="5"/>
			<ellipse cx="108" cy="271" fill="#10152a" rx="8.4" ry="7.07" stroke-linecap="round" stroke-linejoin="round" stroke-width="10.552"/>
			<path d="m 82.2 329 c 5 -5 8.8 -11 8.4 -15 c -.5 -5 -7 -7 -10.2 -5 c -4.6 3 -10.6 12 -10.6 17 c 0 6 8.4 7 12.4 3 z" fill="#a13078" stroke-linecap="round" stroke-linejoin="round" stroke-width="5"/>
			<path d="m 77 314 c 2 0 3 2 1.3 8 c 2 -2 3.6 -5 6.2 -4 c 1.9 2 1.4 7 -1.7 11 c -2.5 2 -4.6 5 -10.6 2 c -5.6 -3 -3.6 -13 4.8 -17 z" fill="#df65ce" stroke-linecap="round" stroke-linejoin="round" stroke-width="5"/>
			<path d="m 82.2 329 c 5 -5 8.8 -11 8.4 -15 c -.5 -5 -7 -7 -10.2 -5 c -4.6 3 -10.6 12 -10.6 17 c 0 6 8.4 7 12.4 3 z" fill="none" stroke="#000000" stroke-linecap="round" stroke-linejoin="round" stroke-width="3"/>
			<path d="m 63.3 288 l 5.9 1 c 6.3 -3 7.1 -5 8.4 -8 c 0 0 -6.5 4 -9.7 3 c -2 -1 -6.5 -3 -6.5 -3 z" stroke-linecap="round" stroke-linejoin="round" stroke-width="5"/>
			<path d="m 89.6 267 c -3.2 26 20.4 25 36.4 13 c -5 15 -24 14 -30.1 12 c -6 -2 -15.9 -12 -6.3 -25 z" fill="#90a6c9" stroke-linecap="round" stroke-linejoin="round" stroke-width="5"/>
		</symbol>
		<symbol id="pet_ovni">
			<path d="M 71.4 256 C 49.5 267 5.86 281 4.59 291 C .59 322 146 326 141 290 C 140 282 94.9 269 71.4 256 Z" fill="#b3c3c9" stroke-linecap="round" stroke-linejoin="round" stroke-width="8"/>
			<path d="M 7.75 286 C 43.4 317 116 309 140 286 c 1 33 -39 29 -66.7 32 c -41 -4 -72.732 -8 -65.55 -32 z" fill="#717f93" stroke-linecap="round" stroke-linejoin="round" stroke-width="8"/>
			<path d="M 71.4 256 C 49.5 267 5.86 281 4.59 291 C .59 322 146 326 141 290 C 140 282 94.9 269 71.4 256 Z" fill="none" stroke="#000000" stroke-linecap="round" stroke-linejoin="round" stroke-width="8"/>
			<ellipse cx="24" cy="289" fill="#1eb56e" rx="5" ry="4.12" stroke-linecap="round" stroke-linejoin="round" stroke-width="8"/>
			<ellipse cx="41.2" cy="296" fill="#f03448" rx="5" ry="4.12" stroke-linecap="round" stroke-linejoin="round" stroke-width="8"/>
			<ellipse cx="61.2" cy="300" fill="#5734f0" rx="5" ry="4.12" stroke-linecap="round" stroke-linejoin="round" stroke-width="8"/>
			<ellipse cx="82.2" cy="300" fill="#1fb56f" rx="5" ry="4.12" stroke-linecap="round" stroke-linejoin="round" stroke-width="8"/>
			<ellipse cx="102" cy="295" fill="#f03549" rx="5" ry="4.12" stroke-linecap="round" stroke-linejoin="round" stroke-width="8"/>
			<ellipse cx="119" cy="287" fill="#5735ef" rx="5" ry="4.12" stroke-linecap="round" stroke-linejoin="round" stroke-width="8"/>
			<path d="m 32.9 278 c 26.8 17 52.6 13 78.1 1 c -6 -20 -17 -35 -39.6 -36 c -24.6 4 -34.5 17 -38.5 35 z" fill="#b3c3c9" stroke-linecap="round" stroke-linejoin="round" stroke-width="8"/>
			<path d="m 109 271 c -23.5 10 -39.6 11 -53.2 7 c -16.3 -5 -5.4 -18 2.5 -30 c -16.2 5 -22.4 18 -25.5 32 c 40.4 22 77.2 2 78.2 0 z" fill="#6f93bd" stroke-linecap="round" stroke-linejoin="round" stroke-width="8"/>
			<path d="m 32.9 278 c 26.8 17 52.6 13 78.1 1 c -6 -20 -16.6 -35 -39.6 -36 c -25.6 1 -34.5 17 -38.5 35 z" fill="none" stroke="#000000" stroke-linecap="round" stroke-linejoin="round" stroke-width="8"/>
			<path d="m 86.5 264 c 2.2 3 6.8 0 5.5 -4 c -.7 -3 -15.5 -12 -16.5 -8 c -.4 2 8.3 5 11 12 z" fill="#fdfefe" stroke-linecap="round" stroke-linejoin="round" stroke-width="8"/>
		</symbol>
		<symbol id="pet_robot">
			<path d="m 53.2 239 l -8 -22" fill="none" stroke="#0a0909" stroke-linecap="round" stroke-linejoin="round" stroke-width="5"/>
			<ellipse cx="43.6" cy="215" fill="#0a0909" rx="9.5" ry="8.12" stroke-linecap="round" stroke-linejoin="round" stroke-width="8"/>
			<path d="m 112 270 c -38.7 10 -81.8 20 -88.3 -5 c -5.2 -22 39.5 -30 81.3 -28 c 10 8 9 20 7 33 z" fill="#b5ae94" stroke="#000000" stroke-linecap="round" stroke-linejoin="round" stroke-width="8"/>
			<path d="m 67.7 279 c -5.2 -9 -7.2 -19 -4.1 -30 c 10 -6 26.6 -10 41.4 -11 c 9 4 9 17 8 32 z" fill="#565b60" stroke="#000000" stroke-linecap="round" stroke-linejoin="round" stroke-width="5"/>
			<circle cx="79" cy="258" fill="#42cfde" r="4.97" stroke-linecap="round" stroke-linejoin="round" stroke-width="6.21534"/>
			<circle cx="97.2" cy="256" fill="#42cfde" r="4.97" stroke-linecap="round" stroke-linejoin="round" stroke-width="6.21534"/>
			<path d="m 44.8 259 c .6 6 1.3 7 2 9 c 1.9 2 2.9 1 3.7 -1 c .1 -2 .2 -4 -.9 -8 c -1.5 -2 -3.1 -4 -4.8 0 z" fill="#84756b" stroke-linecap="round" stroke-linejoin="round" stroke-width="5"/>
			<path d="m 40.6 267 c -.7 -2 -.9 -5 -1.3 -7 c .3 -2 1.4 -4 3.8 0 l .5 6 c -.4 4 -1.9 3 -3 1 z" fill="#84756b" stroke-linecap="round" stroke-linejoin="round" stroke-width="5"/>
			<path d="m 34.8 265 c -.4 0 -.6 -2 -.7 -4 c .7 -1 1.4 -3 3 0 c .5 2 .5 3 .5 4 c -1.5 2 -2 1 -2.8 0 z" fill="#84756b" stroke-linecap="round" stroke-linejoin="round" stroke-width="5"/>
			<path d="m 34.9 251 l 26.8 -4 c 3.1 -2 8.3 -4 13.8 -6 c -13.5 0 -29.7 4 -40.6 10 z" fill="#84756b" stroke-linecap="round" stroke-linejoin="round" stroke-width="5"/>
			<path d="m 56 282 l 1 13" fill="none" stroke="#000000" stroke-linecap="round" stroke-linejoin="round" stroke-width="8"/>
			<path d="m 30 361 c 15.1 1 26.1 0 42 -2 l 31 -10 c 7 -8 1 -17 -4.6 -19 l -69.6 5 c -6.8 5 -14.4 15 1.2 26 z" fill="#575d60" stroke-linecap="round" stroke-linejoin="round" stroke-width="5"/>
			<ellipse cx="34.5" cy="348" fill="none" rx="7.25" ry="6.98" stroke="#000000" stroke-linecap="round" stroke-linejoin="round" stroke-width="5"/>
			<ellipse cx="58.9" cy="348" fill="none" rx="7.25" ry="6.98" stroke="#000000" stroke-linecap="round" stroke-linejoin="round" stroke-width="5"/>
			<path d="m 68.6 360 c 6.5 -10 3.8 -19 -3.4 -28 l 33.4 -2 c 9.4 6 9.4 12 3.4 19 z" fill="#202728" stroke-linecap="round" stroke-linejoin="round" stroke-width="5"/>
			<path d="m 66.8 359 c 7.8 -5 7.5 -19 -3.2 -26" fill="none" stroke="#000000" stroke-linecap="round" stroke-linejoin="round" stroke-width="5"/>
			<ellipse cx="34.6" cy="348" fill="#5a4942" rx="2.39" ry="2.12" stroke-linecap="round" stroke-linejoin="round" stroke-width="5"/>
			<ellipse cx="58.8" cy="348" fill="#5a4942" rx="2.28" ry="2.09" stroke-linecap="round" stroke-linejoin="round" stroke-width="5"/>
			<path d="m 29.8 360 c 3.1 1 26.3 1 42.2 -1 l 31 -10 c 7 -8 1 -17 -4.6 -19 l -69.6 5 c -9.2 4 -12.5 20 1 25 z" fill="none" stroke="#000000" stroke-linecap="round" stroke-linejoin="round" stroke-width="5"/>
			<path d="m 78 343 l 20 -5" fill="#575d60" stroke="#000000" stroke-linecap="round" stroke-linejoin="round" stroke-width="2"/>
			<path d="M 77.9 350 L 100 343" fill="#575d60" stroke="#000000" stroke-linecap="round" stroke-linejoin="round" stroke-width="2"/>
			<path d="m 28.1 335 l 43.7 1 l 26 -7 v -37 l -68.5 4 c -8 16 -5.8 27 -1.2 39 z" fill="#b7b099" stroke-linecap="round" stroke-linejoin="round" stroke-width="10"/>
			<path d="m 99 329 l -32.7 9 c -3.4 -12 -6.5 -24 -1.8 -44 l 34.4 -3 z" fill="#847768" stroke-linecap="round" stroke-linejoin="round" stroke-width="10"/>
			<path d="M 64.8 335 C 61.7 320 61 309 63.8 296" fill="#b7b099" stroke="#000000" stroke-linecap="round" stroke-linejoin="round" stroke-width="10"/>
			<path d="m 28.1 335 l 43.7 1 l 26 -7 v -37 l -68.5 4 c -8 16 -5.8 27 -1.2 39 z" fill="none" stroke="#000000" stroke-linecap="round" stroke-linejoin="round" stroke-width="8"/>
			<path d="m 37.7 306 c -2.7 0 -4.2 11 -1.4 19 c 6.5 -1 18.8 -1 16.9 -5 H 40.9 Z" fill="#847768" stroke-linecap="round" stroke-linejoin="round" stroke-width="10"/>
			<path d="m 72.1 309 l 3.2 -5 h 11.3 l 2.7 7 l 1.6 -12 l -19.3 1 z" fill="#5d4c45" stroke-linecap="round" stroke-linejoin="round" stroke-width="10"/>
		</symbol>
		<!-- ::::::::::::::::::  hats :::::::::::::::::::: -->
		<symbol id="hat_bicho">
			<path d="m 137 40.5 c 26 2.2 34 25.1 29 47 c 1 9.2 6 11.7 11 14.5 c 15 6 15 37 -8 23 c -6 -6 -12 -9 -18 -2 c -5 6 -15 10 -23 1 c -6 -10 -12 -10 -24 1 c -14.7 8 -22.9 -9 -11.5 -20 c 5.2 -5 11.5 -7.5 14.5 -16.5 c 1 -23.2 0 -48 30 -48 z" fill="#186d52"/>
			<path d="m 141 43.1 c -34 -.7 -22 46.7 -27 53.9 c -4 5 -19.3 12 -16.8 19 c 16.8 -9 29.8 -9 40.8 7 c 13 4 14 -12 24 -11 c 7 1 14 13 20 10 c 5 -2 2 -15 2 -15 c -5 -3 -10 -7.7 -16 -12.6 c 0 -10.2 3 -13.9 -1 -33.6 c -7 -14 -16 -18.8 -26 -17.7 z" fill="#3fbe3f"/>
			<path d="m 135 39.9 c 0 0 -12 -18.7 11 -15.9" fill="none" stroke="#021902" stroke-linecap="round" stroke-linejoin="round" stroke-width="10"/>
			<circle cx="147" cy="23.5" fill="#031903" r="7.5"/>
			<path d="m 137 40.5 c 26 2.2 34 25.1 29 47 c 1 9.2 6 11.7 11 14.5 c 15 6 15 37 -8 23 c -6 -6 -12 -9 -18 -2 c -5 6 -15 10 -23 1 c -6 -10 -12 -10 -24 1 c -14.7 8 -22.9 -9 -11.5 -20 c 5.2 -5 11.5 -7.5 14.5 -16.5 c 1 -23.2 0 -48 30 -48 z" fill="none" stroke="#083008" stroke-linecap="round" stroke-linejoin="round" stroke-width="10"/>
			<ellipse cx="147" cy="70.8" fill="#091815" rx="24.9" ry="24.3"/>
			<ellipse cx="148" cy="71.1" fill="#a6cbc5" rx="16" ry="15.6"/>
			<path d="m 140 57.5 c -8 4.2 -3 12.4 4 18.7 c 5 4.3 14 7.2 19 .3 c 3 -14.3 -7 -25.3 -23 -19 z" fill="#d6ecec"/>
			<circle cx="150" cy="70.4" fill="#421a34" r="5.96"/>
		</symbol>
		<symbol id="hat_jason">
			<path d="m 123 170 c -16 -1 -31.2 -4 -45.9 -16 c -.9 -6 -2 -13 5.3 -19 c 13.9 7 27.6 12 41.6 13" fill="#1d1e26" stroke="#101012" stroke-linecap="round" stroke-linejoin="round" stroke-width="10"/>
			<path d="m 141 118 l -38 -6 c 7 -7 20 -12.9 29 -12.2 c 13 1.2 23 1.2 39 7.2" fill="#2c2d36" stroke="#101012" stroke-linecap="round" stroke-linejoin="round" stroke-width="10"/>
			<path d="m 121 161 c 2 35 21 53 49 55 c 22 1 40 -15 42 -54 c -5 -42 -23 -54 -46 -56 c -46 14 -42 35 -45 55 z" fill="#b5aa9f"/>
			<path d="m 144 116 c -22 25 -11 63 5 75 c 3 -6 7 -11 6 -24 c 2 -6 4 -4 10 -2 c 5 2 11 1 15 -6 c 0 5 2 10 -6 11 h -11 c 3 8 3 17 3 25 c 10 3 14 2 19 0 c 1 -7 1 -10 2 -23 c 1 -13 7 15 7 28 c 12 -9 16 -29 15 -53 c -5 -26 -20 -34 -36 -39 c -10 -3 -20 0 -29 8 z" fill="#d3d0c6"/>
			<path d="m 141 142 c -1 -1 -3 -1 0 -4 c 5 -2 11 -3 20 0 c 4 1 6 -3 7 -4 c 1 5 0 9 -5 11 c -7 -2 -15 -4 -22 -3 z" fill="#b5aa9f"/>
			<path d="m 177 146 c -3 -2 -2 -6 0 -11 c 2 7 6 7 9 8 z" fill="#b5aa9f"/>
			<ellipse cx="164" cy="126" fill="#b5aa9f" rx="2.83" ry="2.3"/>
			<ellipse cx="178" cy="126" fill="#b5aa9f" rx="2.65" ry="2.3"/>
			<path d="m 142 154 c -6 -1 -7 -8 -2 -11 c 11 -3 23 1 25 4 c 2 3 0 10 -23 7 z" fill="#f72842" stroke="#5a1c21" stroke-linecap="round" stroke-linejoin="round" stroke-width="5"/>
			<path d="m 177 148 c 0 4 13 8 19 5 c 3 -1 2 -9 0 -10 c -8 -3 -19 2 -19 5 z" fill="#f72842" stroke="#5a1c21" stroke-linecap="round" stroke-linejoin="round" stroke-width="5"/>
			<path d="m 121 161 c -1 35 21 53 49 55 c 22 1 44 -15 42 -54 c -2 -41 -26 -57 -46 -56 c -49 4 -44 38 -45 55 z" fill="none" stroke="#20201b" stroke-linecap="round" stroke-linejoin="round" stroke-width="10"/>
			<path d="m 112 164 c -7 -1 -13.6 -3 -20.6 -7 l 1.7 -12 c 3.8 2 9.9 4 18.9 7" fill="#2c2d36"/>
			<ellipse cx="164" cy="186" fill="#212018" rx="4.4" ry="3.53"/>
			<ellipse cx="163" cy="174" fill="#212018" rx="4.4" ry="3.53"/>
			<ellipse cx="182" cy="174" fill="#212018" rx="4.4" ry="3.53"/>
			<ellipse cx="183" cy="186" fill="#212018" rx="4.4" ry="3.53"/>
			<path d="m 170 164 c -2 -4 -1 -8 -1 -13 c 1 -1 3 -1 4 0 c -1 4 0 6 1 7 c 3 1 5 1 5 2 c -1 2 -7 8 -9 4 z" fill="#eeebe7"/>
			<path d="m 174 113 c 9 0 23 13 22 15 c -1 1 -8 0 -15 -4 c -7 -6 -7 -9 -7 -11 z" fill="#eeebe7"/>
		</symbol>
		<symbol id="hat_astronauta">
			<path d="M 82.5 134 C 41.4 104 61.2 43.9 100 32 c 46 -14.2 115 19.8 75 83" fill="#c6baad"/>
			<path d="M 105 120 C 67.8 108 66.8 67.5 81.3 46 C 97.5 22 144 23.2 168 39.6 c 33 22.9 14 85.4 1 79.4" fill="#f7f4ec"/>
			<path d="M 82.5 134 C 41.4 104 61.2 43.9 100 32 c 46 -14.2 115 19.8 75 83" fill="none" stroke="#1b1910" stroke-linecap="round" stroke-linejoin="round" stroke-width="10"/>
			<path d="m 183 94.5 c -6 8.5 -21 -5.2 -31 -4.7 c -13 .7 -26 10.2 -39 9.7 c -27.1 -2 -27.7 -34 -17.9 -48 C 105 36.9 126 28.7 143 31.6 c 33 5.4 54 41.6 40 62.9 z" fill="#37434f" stroke="#0b1218" stroke-linecap="round" stroke-linejoin="round" stroke-width="10"/>
			<path d="m 144 50.3 c -5 -1.1 -11 1.6 -16 -.3 c -8 -3.2 -5 -11.6 3 -13.2 c 10 -1.9 23 2.6 32 9.5 c 4 3.3 2 11.2 -6 9.2 c -5 -.6 -8 -4.3 -13 -5.2 z" fill="#788faa"/>
			<path d="m 81.5 147 l -4 -14 C 110 109 144 103 179 111 v 14 c -35 -6 -64 2 -97.5 22 z" fill="#ad3418"/>
			<path d="m 98.5 119 c 0 0 10.5 11 15.5 10 c 25 -5 43 -6 66 -4 v -14 c -23 -8 -55 -3 -81.5 8 z" fill="#ffffff" fill-opacity=".209"/>
			<path d="M 79.7 146 L 75 132 c 32 -24 71 -29 106 -21 l -3 15 c -35 -6 -65 0 -98.3 20 z" fill="none" stroke="#180802" stroke-linecap="round" stroke-linejoin="round" stroke-width="8"/>
		</symbol>
		<symbol id="hat_corona">
			<path d="m 88.4 132 c -4.8 -19 -14 -32.4 -25.9 -45 c 12.1 -1.8 22 1.5 33.2 3.3 c 3.7 -27.2 4.3 -37 6.3 -42.6 c 8 9.7 20 25.3 27 30.6 c 7 -6.4 11 -11.8 30 -24.1 c -6 18.4 -8 40.5 -4 59.8 c -26 -8 -54 -1 -66.6 18 z" fill="#bd591b" stroke="#000000" stroke-linecap="round" stroke-linejoin="round" stroke-width="10"/>
			<path d="m 84.3 88.3 c 6.5 6.3 14.9 11.7 17.7 21.7 c 19 -9 38 -3 52 0 l 4 -54 l -30 22 l -24 -26.5 l -8 38 z" fill="#fcdf52" stroke-linecap="round" stroke-linejoin="round" stroke-width="10"/>
			<path d="m 122 76.4 c 0 4.8 1 9.6 1 11 c -6 4.2 -5 6.8 0 7.9 c 1 2.2 1 4.7 5 5.7 c 1 7 6 3 9 3 c 2 -1 0 -3 -2 -4 c 3 -1.5 6 -2.7 6 -5.2 c 0 -1.7 0 -3.5 -2 -3.9 c 2 -2 1 -4 -2 -6 c 2 -3.9 0 -6.9 -1 -9.9 l -7 4.5 z" fill="#ffffff" stroke-linecap="round" stroke-linejoin="round" stroke-width="10"/>
			<path d="m 88.4 132 c -4.8 -19 -14 -32.4 -25.9 -45 c 12.1 -1.8 22 1.5 33.2 3.3 c 3.7 -27.2 4.3 -37 6.3 -42.6 c 8 9.7 20 25.3 27 30.6 c 7 -6.4 11 -11.8 30 -24.1 c -6 18.4 -8 40.5 -4 59.8 c -26 -8 -54 -1 -66.6 18 z" fill="none" fill-opacity=".38" stroke="#000000" stroke-linecap="round" stroke-linejoin="round" stroke-width="10"/>
		</symbol>
		<symbol id="hat_ellieRose">
			<path d="m 116 150 c -17.1 14 -17.9 43 -10 64 c -7.4 -4 -12 -10 -18 -17 l -4 22 c -4.5 -12 -7.8 -24 -8 -37 l -7 21 c -10.4 -28 -8.8 -51 10 -65 c -1.6 -46.2 52 -57.6 86 -38 c 29 12 48 11 58 -.5 c 1 7.5 -8 15.5 -17 22.5 c 9 0 19 -4 28 -8 c -15 28 -68 52 -118 36 z" fill="#991842" stroke="#000000" stroke-linecap="round" stroke-linejoin="round" stroke-width="10"/>
			<path d="m 94.8 104 c -17.1 38 19.2 37 70.2 26 c -8 7 -8 7 -10 9 c 14 1 41 1 70 -21 c -6 2 -10 3 -16 4 c 7 -3 10 -10 12 -18 c -15 4 -31 6 -52 -2 c -30 -14.9 -56 -18.8 -74.2 2 z" fill="#de2e2e" stroke-linecap="round" stroke-linejoin="round" stroke-width="10"/>
			<path d="m 72.3 147 c 23.6 -8 21.5 7 18.7 22 l -4.1 -5 c -1 14 -3.1 24 -6.1 31 L 76 181 L 68.6 202 C 62.3 185 57 167 72.3 147 Z" fill="#de2e2e" stroke-linecap="round" stroke-linejoin="round" stroke-width="10"/>
			<path d="m 118 106 l -19.7 5 c 3.7 -8 6.7 -17.4 32.7 -18.7 c 20 4.2 40 12.7 37 23.7 c -1 2 -28 -16.9 -35 -9 c 12 2 17 5 19 7 c -3 1 -7 1 -9 4 c 4 3 8 6 4 10 c -5 2 -6 0 -5 -4 c -4 -2 -7 -1 -11 -2 c -1 -4 -5 -2 -7 -3 c 0 -2 2 -4 6 -5 c -13 0 -27 0 -12 -8 z" fill="#ef8b8b" stroke-linecap="round" stroke-linejoin="round" stroke-width="10"/>
			<path d="m 116 150 c -17.1 14 -17.9 43 -10 64 c -7.4 -4 -12 -10 -18 -17 l -4 22 c -4.5 -12 -7.8 -24 -8 -37 l -7 21 c -10.4 -28 -8.8 -51 10 -65 c -1.6 -46.2 52 -57.6 86 -38 c 29 12 48 11 58 -.5 c 1 7.5 -8 15.5 -17 22.5 c 9 0 19 -4 28 -8 c -15 28 -68 52 -118 36 z" fill="none" stroke="#000000" stroke-linecap="round" stroke-linejoin="round" stroke-width="10"/>
		</symbol>
		<symbol id="hat_devil">
			<path d="M 66.5 97.5 C 82.2 65.2 93.9 49.1 111 23 c -8 36.8 -13.5 73.4 1 95 c 0 11 -5 12 -13.8 12 c -11.9 -4 -26.5 -12 -29.7 -15 c -2.1 -4 -2 -15.5 -2 -17.5 z" fill="#4d0000" stroke-linecap="round" stroke-linejoin="round" stroke-width="10"/>
			<path d="m 94.8 130 c 3.1 -3 9.2 -7 9.2 -11 C 103 117 91.9 105 89 102 C 94.6 89.6 99 46 99 46 L 67.5 97.9 L 68.9 116 Z" fill="#bb1400" stroke-linecap="round" stroke-linejoin="round" stroke-width="10"/>
			<path d="m 76.7 118 c 14.7 -2 9 -8 0 -14 c 3.7 -7 8.9 -21.3 13.1 -40.4 c -3.4 -7.5 -21.2 20.8 -23.7 39.4 c -2.6 12 2.9 15 10.6 15 z" fill="#e7aea5" stroke-linecap="round" stroke-linejoin="round" stroke-width="10"/>
			<path d="M 66.5 97.5 C 82.2 65.2 93.9 49.1 111 23 c -6 36.8 -9 73.4 1 95 c 0 11 -5 12 -13.8 12 c -11.9 -4 -26.5 -12 -29.7 -15 c -2.1 -4 -2 -15.5 -2 -17.5 z" fill="none" stroke="#000000" stroke-linecap="round" stroke-linejoin="round" stroke-width="10"/>
			<path d="m 165 117 c 6 -13 1 -59.1 1 -90.5 c 14 30.4 38 82.5 39 87.5 c -1 4 -9 17 -14 24 c -3 -6 -17 -16 -26 -21 z" fill="#4a0000" stroke-linecap="round" stroke-linejoin="round" stroke-width="10"/>
			<path d="m 168 80.5 c 8 16.8 13 29.5 12 32.5 c 5 7 10 8 18 -12 L 171 36.3 c -7 -5.9 -4 22.2 -3 44.2 z" fill="#bb1400" stroke-linecap="round" stroke-linejoin="round" stroke-width="10"/>
			<path d="m 171 53.8 c 7 19.9 15 42.1 14 45.1 c 4 2.1 7 6.1 12 -.6 L 172 43 Z" fill="#deaaa5" stroke-linecap="round" stroke-linejoin="round" stroke-width="10"/>
			<path d="m 165 117 c 6 -13 1 -59.1 1 -90.5 c 14 30.4 38 82.5 39 87.5 c -1 4 -9 17 -14 24 c -3 -6 -17 -16 -26 -21 z" fill="none" stroke="#000000" stroke-linecap="round" stroke-linejoin="round" stroke-width="10"/>
		</symbol>
		<symbol id="hat_cuchillo">
			<path d="M 163 60.2 C 120 92.3 76.2 121 29.7 144 c 25 9 37.4 7 51.4 5 c 12.9 -32 43.9 -47 62.9 -19 c 14 -8 27 -18 41 -41.5 z" fill="#9fafaf" stroke-linecap="round" stroke-linejoin="round" stroke-width="10"/>
			<path d="M 116 95.2 L 155 70.8 L 140 125 c -8 -9 -17 -11 -25 -11 z" fill="#ffffff" stroke-linecap="round" stroke-linejoin="round" stroke-width="10"/>
			<path d="m 83.8 144 l 7.1 -30 l 15.1 -8 l -3 16 c -15.9 10 -13.4 15 -19.2 22 z" fill="#ffffff" stroke-linecap="round" stroke-linejoin="round" stroke-width="10"/>
			<path d="M 163 60.2 C 120 92.3 76.2 121 29.7 144 c 25 9 37.4 7 51.4 5 c 14.9 -44 49.9 -38 62.9 -19 c 14 -8 27 -18 41 -41.5 z" fill="none" stroke="#000000" stroke-linecap="round" stroke-linejoin="round" stroke-width="10"/>
			<path d="m 184 45.7 c -30 -18.5 -29 4.7 -26 11.1 c 5 11.3 22 28.6 30 33.1 c 11 6.7 30 2.9 20 -15.9 c -4 -7.9 -19 -24 -24 -28.3 z" fill="#574436" stroke="#000000" stroke-linecap="round" stroke-linejoin="round" stroke-width="10"/>
			<path d="m 174 70.7 c 38 14.7 18 -.4 25 -1.8 c 5 7.6 10 15.8 4 18.4 c -8 3.2 -18 -2.8 -29 -16.6 z" fill="#422d25" stroke-linecap="round" stroke-linejoin="round" stroke-width="10"/>
			<path d="m 178 51.8 c 0 10.8 9 18.4 19 20.6 C 213 55.9 245 36 229 21 C 211 8.7 196 34.7 178 51.8 Z" fill="#422d25" stroke="#000000" stroke-linecap="round" stroke-linejoin="round" stroke-width="10"/>
			<path d="m 183 54 c 13 -6.2 25 -26.5 43 -28.8 c -10 -6.9 -19 3 -27 12 z" fill="#574436" stroke-linecap="round" stroke-linejoin="round" stroke-width="10"/>
		</symbol>
		<symbol id="hat_drPeste">
			<path d="M 84 121 C 80.4 116 71.2 102 64.2 91.3 C 77.6 64.4 99.4 61.2 122 60.2 c 3 15.7 3 37.8 11 40.8 z" fill="#1e1e29" stroke="#000000" stroke-linecap="round" stroke-linejoin="round" stroke-width="10"/>
			<path d="M 78.4 77.2 C 82 93 88.8 105 97.1 115 C 111 112 122 108 132 102 C 129 94.3 125 78.6 122 61.6 C 111 61.7 99.9 60.7 78.4 77.2 Z" fill="#3e3c4d" stroke-linecap="round" stroke-linejoin="round" stroke-width="10"/>
			<path d="M 84 121 C 80.4 116 71.2 102 64.2 91.3 C 77.6 64.4 99.4 61.2 122 60.2 c 3 15.7 3 37.8 11 40.8 z" fill="none" stroke="#000000" stroke-linecap="round" stroke-linejoin="round" stroke-width="10"/>
			<path d="M 83.2 142 C 52.4 155 53.9 123 73.4 121 C 90.2 118 111 111 129 99.3 c 10 -8.7 21 -9 26 -4 c 5 4.7 4 16.7 -4 17.7 c -12 0 -50 10 -67.8 29 z" fill="#211c29" stroke="#000000" stroke-linecap="round" stroke-linejoin="round" stroke-width="10"/>
			<path d="m 244 204 c 1 -73 -67 -76 -128 -59 c -11 13 -16 45 6 62 c 10 6 33 8 40 6 c 34 -7 60 -16 82 -9 z" fill="#3e3c4d" stroke-linecap="round" stroke-linejoin="round" stroke-width="10"/>
			<path d="m 106 174 c 3 14 6 30 18 34 c 14 8 29 6 43 6 c 30 -9 56 -13 78 -10 l -1 -16 c -13 -1 -28 -5 -42 -8 c -52 8 -35 4 -50 6 c -22 0 -34 -6 -46 -12 z" fill="#1e1e29" stroke-linecap="round" stroke-linejoin="round" stroke-width="5"/>
			<path d="m 108 175 c 17 10 34 12 50 11 c 16 -2 31 -6 47 -5 c 9 2 24 4 38 8" fill="none" stroke="#000000" stroke-linecap="round" stroke-linejoin="round" stroke-width="5"/>
			<path d="m 194 155 c 3 -2 6 -3 6 -8 c 10 2 25 11 25 18 c -18 -10 -30 -9 -31 -10 z" fill="#7b798c" stroke-linecap="round" stroke-linejoin="round" stroke-width="5"/>
			<ellipse cx="123" cy="171" fill="#211c29" rx="3.89" ry="3.36" stroke-linecap="round" stroke-linejoin="round" stroke-width="5"/>
			<ellipse cx="141" cy="175" fill="#211c29" rx="3.89" ry="3.36" stroke-linecap="round" stroke-linejoin="round" stroke-width="5"/>
			<ellipse cx="162" cy="174" fill="#211c29" rx="3.89" ry="3.36" stroke-linecap="round" stroke-linejoin="round" stroke-width="5"/>
			<ellipse cx="183" cy="171" fill="#211c29" rx="3.89" ry="3.36" stroke-linecap="round" stroke-linejoin="round" stroke-width="5"/>
			<ellipse cx="205" cy="170" fill="#211c29" rx="3.89" ry="3.36" stroke-linecap="round" stroke-linejoin="round" stroke-width="5"/>
			<ellipse cx="226" cy="175" fill="#211c29" rx="3.89" ry="3.36" stroke-linecap="round" stroke-linejoin="round" stroke-width="5"/>
			<path d="m 244 204 c 1 -73 -67 -76 -128 -59 c -11 13 -16 45 6 62 c 10 6 33 8 40 6 c 34 -7 60 -16 82 -9 z" fill="none" stroke="#000000" stroke-linecap="round" stroke-linejoin="round" stroke-width="10"/>
			<circle cx="125" cy="141" fill="#393029" r="17" stroke="#000000" stroke-linecap="round" stroke-linejoin="round" stroke-width="10"/>
			<path d="m 132 159 l -18 -30 l 9 -4 l 17 27 z" fill="#aa6258" stroke-linecap="round" stroke-linejoin="round" stroke-width="10"/>
			<circle cx="125" cy="141" fill="none" r="17" stroke="#000000" stroke-linecap="round" stroke-linejoin="round" stroke-width="10"/>
			<ellipse cx="168" cy="136" fill="#3a3029" rx="15.7" ry="16.3" stroke="#000000" stroke-linecap="round" stroke-linejoin="round" stroke-width="9.02404"/>
			<path d="m 155 126 l 7 -5 l 21 24 l -7 5 z" fill="#aa6258" stroke-linecap="round" stroke-linejoin="round" stroke-width="10"/>
			<ellipse cx="168" cy="136" fill="none" rx="15.7" ry="16.3" stroke="#000000" stroke-linecap="round" stroke-linejoin="round" stroke-width="9.02404"/>
		</symbol>
		<symbol id="hat_sopapa">
			<path d="m 123 86.9 l 2 -76.6 c 1 -6.19 15 -5.96 16 .2 l 2 76 z" fill="#dbb2a2" stroke="#000000" stroke-linecap="round" stroke-linejoin="round" stroke-width="8"/>
			<path d="m 96.5 122 c 24.5 14 49.5 10 73.5 0 c 1 -10 -4 -10 -8 -11 c 0 -10 -5 -13.9 -12 -15.8 c 5 -19 -14 -6.9 -17 -7.8 c -4 .9 -24 -11.4 -16 7.2 c -7 2.6 -12 7.4 -11 16.4 c -6 1 -11.2 2 -9.5 11 z" fill="#9c2e2e" stroke-linecap="round" stroke-linejoin="round" stroke-width="8"/>
			<path d="m 105 112 c 21 8 40 8 58 0" fill="none" stroke="#430920" stroke-linecap="round" stroke-linejoin="round" stroke-width="5"/>
			<path d="m 117 95.5 c 8 5.5 27 4.3 33 0 l -1 -9.9 l -16 2.3 l -17 -2.7 z" fill="#430920" stroke-linecap="round" stroke-linejoin="round" stroke-width="5"/>
			<path d="m 113 128 c -2 -7 1 -11 6 -12 c 1 -9 3 -14 13 -17.7 V 86.8 l -16 -1.5 l 1 10.5 c -9 1.2 -11 8.2 -12 16.2 c -7.1 0 -7.2 4 -9 7 z" fill="#430920" fill-opacity=".593" stroke-linecap="round" stroke-linejoin="round" stroke-width="5"/>
			<path d="m 96.5 122 c 24.5 15 67.5 8 73.5 0 c 1 -10 -4 -10 -8 -11 c 0 -10 -5 -12.5 -12 -14.4 c 5 -19 -3 -10.6 -17 -10.4 c -14 -.3 -24 -10.2 -16 8.4 c -7 2.6 -12 7.4 -11 16.4 c -6 1 -11.2 2 -9.5 11 z" fill="none" stroke="#000000" stroke-linecap="round" stroke-linejoin="round" stroke-width="8"/>
			<path d="m 146 108 c 1 -2 1 -6 0 -7 c -1 -1 -6 0 -7 1 c -1 1 0 2 2 2 c -1 1 -2 3 -1 4 c 1 1 3 0 4 -2 c 0 2 1 4 2 2 z" fill="#be4946" stroke-linecap="round" stroke-linejoin="round" stroke-width="5"/>
			<path d="m 155 123 c -1 1 -7 -1 -2 -3 c 1 -2 2 -3 4 -2 c 2 1 1 3 -2 3 c 0 0 1 2 0 2 z" fill="#be4946" stroke-linecap="round" stroke-linejoin="round" stroke-width="5"/>
		</symbol>
		<symbol id="hat_cornamenta">
			<path d="M 126 111 C 122 74.9 122 36.9 103 10.8 C 96.8 4.87 85.2 4.17 85.1 14.3 C 93 25.9 101 35.5 101 47.1 C 90.9 33.9 81 26.2 73.5 20.5 C 60.7 11.3 48.8 21.8 58.3 33 C 71.8 40.6 84.7 51.6 96.9 67.2 C 85.7 61.9 76.3 58.8 62.8 57.3 c -13.8 -.4 -16.8 17 -1 20 c 21.7 3.2 30.9 8.6 39.2 12.9 c 9 6.7 13 11.8 14 22.8 z" fill="#261d1a" stroke="#000000" stroke-linecap="round" stroke-linejoin="round" stroke-width="10"/>
			<path d="m 140 110 l 15 -42.8 c -18 -17.8 -23 -47.8 -6 -52.7 c 12 -2.6 14 13.5 18 39.6 c 2 -19.6 5 -36.6 15 -41.7 c 14 -9.68 20 1 20 6.7 c -6 19.8 -14 30.5 -22 44.5 l 19 -7.1 c 16 -1.7 13 16.2 4 19.2 c -10 5 -20 6.1 -30 6 L 156 114 Z" fill="#261d1a" stroke="#000000" stroke-linecap="round" stroke-linejoin="round" stroke-width="10"/>
			<path d="M 101 119 C 77 112 77.9 91.9 89.4 86.5 C 106 80.2 115 94.6 114 113 Z" fill="#734508" stroke="#000000" stroke-linecap="round" stroke-linejoin="round" stroke-width="10"/>
			<path d="m 102 113 c -10.3 -7 -9.2 -13.4 -7.4 -16 c 2.8 -4 8.4 5 12.4 14 z" fill="#411a0b" stroke-linecap="round" stroke-linejoin="round" stroke-width="10"/>
			<path d="M 156 114 C 166 92.8 178 78.9 188 89.9 C 198 102 188 116 168 118 Z" fill="#734104" stroke="#000000" stroke-linecap="round" stroke-linejoin="round" stroke-width="10"/>
			<path d="m 166 112 c 0 -6 6 -13.9 13 -14.4 c 3 -.2 3 9.4 -6 14.4 c -1 0 -3 1 -4 1 c -1 0 -3 -1 -3 -1 z" fill="#411a0b" stroke-linecap="round" stroke-linejoin="round" stroke-width="10"/>
		</symbol>
		<symbol id="hat_calabaza">
			<path d="M 89.6 82.4 L 75.1 50 L 99.8 38.4 L 134 63.2 Z" fill="#426131" stroke-linecap="round" stroke-linejoin="round" stroke-width="10"/>
			<path d="M 101 73.2 L 86.6 46.7" fill="none" stroke="#084929" stroke-linecap="round" stroke-linejoin="round" stroke-width="8"/>
			<path d="M 115 69.3 L 97.6 43.8" fill="none" stroke="#084929" stroke-linecap="round" stroke-linejoin="round" stroke-width="8"/>
			<path d="M 89.6 82.4 L 75.1 50 L 99.8 38.4 L 134 63.2 Z" fill="none" stroke="#000000" stroke-linecap="round" stroke-linejoin="round" stroke-width="10"/>
			<path d="M 78.5 154 C 54.9 139 42.1 93.9 78 78.5 l 30 -5.8 c 28 -26 52 -16.1 59 -13.2 c 39 17.5 32 58.5 19 74.5 l -17 -18 l -9 15 l -22 -18 l -16 29 l -25 -17 z" fill="#ff6200" stroke-linecap="round" stroke-linejoin="round" stroke-width="10"/>
			<path d="M 88.3 138 C 62 120 73.8 92.7 80.3 81.8" fill="none" stroke="#bd381a" stroke-linecap="round" stroke-linejoin="round" stroke-width="8"/>
			<path d="M 108 132 C 90.8 118 94.2 89.4 95.6 77.1" fill="none" stroke="#bd381a" stroke-linecap="round" stroke-linejoin="round" stroke-width="8"/>
			<path d="M 134 123 C 111 110 112 83.2 110 73.3" fill="none" stroke="#bd381a" stroke-linecap="round" stroke-linejoin="round" stroke-width="8"/>
			<path d="M 151 123 C 157 99.5 144 78.6 122 64.8" fill="none" stroke="#bd381a" stroke-linecap="round" stroke-linejoin="round" stroke-width="8"/>
			<path d="m 173 120 c 8 -16 12 -38.5 -20 -64.2" fill="none" stroke="#bd381a" stroke-linecap="round" stroke-linejoin="round" stroke-width="8"/>
			<path d="M 87.2 78.7 C 72.9 98.4 78.3 106 81.7 113 C 82.3 103 83.4 92.7 93.2 77.4 Z" fill="#ff8c00" stroke-linecap="round" stroke-linejoin="round" stroke-width="8"/>
			<path d="m 113 71.7 c 11 6.8 22 13.8 33 26.1 c -5 -15.5 -17 -22.4 -27 -30.7 z" fill="#ff8c00" stroke-linecap="round" stroke-linejoin="round" stroke-width="8"/>
			<path d="M 174 95.9 C 161 80.4 151 64.9 126 63.6 l 21 -6.2 c 17 9.7 26 26.3 27 38.5 z" fill="#ff8c00" stroke-linecap="round" stroke-linejoin="round" stroke-width="8"/>
			<path d="m 173 67.3 c 10 10.6 17 25.6 19 38.7 c -1 -8.1 1 -18 -1 -25.5 c -4 -2.7 -12 -8.9 -18 -13.2 z" fill="#ff8c00" stroke-linecap="round" stroke-linejoin="round" stroke-width="8"/>
			<path d="m 63.7 121 c -.6 -12 2.1 -23.3 8.1 -33 c -5.9 5.5 -8.4 10.1 -9.6 16 c -1.7 8 -.9 12 1.5 17 z" fill="#ff8c00" stroke-linecap="round" stroke-linejoin="round" stroke-width="8"/>
			<path d="M 78.5 154 C 54.9 139 42.1 93.9 78 78.5 l 30 -5.8 c 28 -26 52 -16.1 59 -13.2 c 39 17.5 35 57.5 22 73.5 l -23 -16 l -8 15 l -20 -19 l -16 29 l -25 -17 z" fill="none" stroke="#000000" stroke-linecap="round" stroke-linejoin="round" stroke-width="10"/>
			<path d="m 96.8 115 l 22.2 -7 c -4 -7 -15 -17.8 -19 -16.9 c -5 2 -4.8 14.9 -3.2 23.9 z" fill="#310c08" stroke-linecap="round" stroke-linejoin="round" stroke-width="8"/>
			<path d="m 152 103 l 17 -6.7 c -2 -8.1 -10 -16.7 -14 -16.5 c -3 0 -5 12.7 -3 23.2 z" fill="#310c08" stroke-linecap="round" stroke-linejoin="round" stroke-width="8"/>
			<path d="m 114 110 l -17.4 5 c -.7 -7 -1.8 -15 1.3 -22 c 7.1 4.8 14.1 12 16.1 17 z" fill="#5a2418" stroke-linecap="round" stroke-linejoin="round" stroke-width="8"/>
			<path d="m 152 103 l 15 -5.7 c -4 -5.5 -6 -11.8 -14 -15.3 c -3 7.5 -2 16.2 -1 21 z" fill="#5a2418" stroke-linecap="round" stroke-linejoin="round" stroke-width="8"/>
		</symbol>
		<symbol id="hat_medic">
			<path d="M 77.9 153 C 108 130 152 132 194 138 c -2 -8 -10 -15 -14 -17 c -32 -4 -60 -6 -92.3 9 c -7.4 8 -8.3 15 -9.8 23 z" fill="#29418c" stroke-linecap="round" stroke-linejoin="round" stroke-width="10"/>
			<path d="m 100 140 l 8 -17 c 22 -4 42 -5 71 -2 c 6 4 10 10 13 17 c -30 -4 -62 -3 -92 2 z" fill="#3969a5" stroke-linecap="round" stroke-linejoin="round" stroke-width="10"/>
			<path d="M 77.9 153 C 108 130 152 132 194 138 c -2 -8 -10 -15 -14 -17 c -32 -4 -60 -6 -92.3 9 c -7.4 8 -8.3 15 -9.8 23 z" fill="none" stroke="#000000" stroke-linecap="round" stroke-linejoin="round" stroke-width="10"/>
			<ellipse cx="162" cy="104" fill="#a4b1bd" rx="24.9" ry="24.3" stroke-linecap="round" stroke-linejoin="round" stroke-width="11.0651"/>
			<path d="m 145 89.3 l 14 15.7 l -5 17 l 15 1 l -4 -15 l 15 10 l 4 -6 l -17 -8 l -4 -20 l -4 .3 l 4 18.7 l -7 -19.2 z" fill="#f0eef4" stroke-linecap="round" stroke-linejoin="round" stroke-width="3"/>
			<ellipse cx="162" cy="104" fill="none" rx="24.9" ry="24.3" stroke="#000000" stroke-linecap="round" stroke-linejoin="round" stroke-width="11.0651"/>
			<ellipse cx="163" cy="104" fill="#a4b1bd" rx="4.26" ry="4.35" stroke="#5a697b" stroke-linecap="round" stroke-linejoin="round" stroke-width="1.85076"/>
		</symbol>
		<symbol id="hat_egg">
			<path d="m 136 127 c 10 1 16 4 36 2 c 9 -1 12 -18 3 -23 c -22 -14.3 -74 -19 -90.5 16 c -1.1 3 -3.9 6 0 9 c 9.8 -1 15.3 -1 18.5 0 c -1 12 4 16 10 18 c 14 -2 18 -11 23 -22 z" fill="#d0c1a5" stroke-linecap="round" stroke-linejoin="round" stroke-width="10"/>
			<path d="m 87.3 119 c 5.6 4 13.7 1 20.7 -1 c 0 10 3 17 10 17 c 3 0 6 -5 10 -16 c 13 1 27 4 40 -2 c 4 -1 8 -3 4 -12 c -36 -15.5 -65 -13.8 -84.7 14 z" fill="#fff3de" stroke-linecap="round" stroke-linejoin="round" stroke-width="10"/>
			<path d="m 136 127 c 10 1 16 4 36 2 c 9 -1 12 -18 3 -23 c -22 -14.3 -74 -19 -90.5 16 c -1.1 3 -3.9 6 0 9 c 9.8 -1 15.3 -1 18.5 0 c -1 12 4 16 10 18 c 14 -2 18 -11 23 -22 z" fill="none" stroke="#000000" stroke-linecap="round" stroke-linejoin="round" stroke-width="10"/>
			<path d="M 99.3 109 C 94.8 96.6 111 74.6 142 82.4 C 151 85.9 152 95 150 98.2 C 137 114 101 114 99.3 109 Z" fill="#ff6200" stroke="#000000" stroke-linecap="round" stroke-linejoin="round" stroke-width="10"/>
			<path d="m 114 92.9 c 4 .3 9 -1.5 10 -2.2 c 2 -1 7 -3.1 1 -3.6 c -8 -.2 -12 5.3 -11 5.8 z" fill="#ffffff" stroke-linecap="round" stroke-linejoin="round" stroke-width="10"/>
			<path d="m 107 105 c 14 -2 24 -4 37 -10.2 c -3 7.2 -13 9.2 -16 10.2 c -9 2 -14 3 -21 0 z" fill="#ef3400" stroke-linecap="round" stroke-linejoin="round" stroke-width="10"/>
		</symbol>
		<symbol id="hat_headache">
			<path d="m 94.7 105 l -48.9 48 c -6.2 0 -10.6 -4 -11.4 -10 L 84.5 93.3 Z" fill="#543129" stroke="#000000" stroke-linecap="round" stroke-linejoin="round" stroke-width="8"/>
			<path d="m 77.8 95 c 16.4 12 18.6 20 17.3 31 C 121 98.9 157 121 157 134 C 175 116 180 99.5 180 78.5 C 155 80 146 74.2 140 64.3 C 134 49.2 117 51.3 114 54 Z" fill="#c2d7e1" stroke-linecap="round" stroke-linejoin="round" stroke-width="8"/>
			<path d="M 179 84.9 L 149 96.1 L 146 109 L 180 97.4 Z" fill="#ffffff" stroke-linecap="round" stroke-linejoin="round" stroke-width="5"/>
			<path d="m 117 52.7 c 15 19 29 27.3 41 29.3 c -2 20 -9 27 -15 35 c -16 -7 -32 -4 -47.5 6 c .8 -13 -8.1 -21 -17.4 -27.9 z" fill="#3c4652" stroke-linecap="round" stroke-linejoin="round" stroke-width="8"/>
			<path d="m 115 54.4 c 11 14.8 32 24.9 44 27.1 c -4 18 -6 24.5 -18 35.5" fill="none" stroke="#000000" stroke-linecap="round" stroke-linejoin="round" stroke-width="5"/>
			<path d="m 117 56.3 c 9 11.7 21 17.4 33 22.5 c 6 -1 -9 -15.2 -14 -23.3 c -15 -6.7 -18 -3.7 -19 .8 z" fill="#5a738f" stroke-linecap="round" stroke-linejoin="round" stroke-width="5"/>
			<path d="m 77.8 95 c 16.4 12 18.1 19 16.8 30 C 120 97.8 155 122 157 134 C 175 116 180 99.5 180 78.5 C 155 80 146 74.2 140 64.3 C 134 49.2 117 51.3 114 54 Z" fill="none" stroke="#000000" stroke-linecap="round" stroke-linejoin="round" stroke-width="8"/>
			<path d="M 98.6 80.3 L 115 62.9 c 6 8.2 14 12.4 22 16.5 c -5 -.9 -9 .3 -16 -3.7 l 3 10.4 l -6 -3.4 l -1 12.4 l -3 -15.6 l -5 2.8 l 1 -6.3 c -4 3.3 -8 4.4 -11.4 4.3 z" fill="#5a738f" stroke-linecap="round" stroke-linejoin="round" stroke-width="5"/>
		</symbol>
		<symbol id="hat_rider">
			<path d="m 93 123 c 26 -17 30 -28.4 32 -37 c 5 -12.8 15 -21.6 28 -23.1 c 28 -1.2 50 -8.6 68 -19.8" fill="none" stroke="#000000" stroke-linecap="round" stroke-linejoin="round" stroke-width="10"/>
			<path d="m 129 85.8 c 31 1.8 35 2.4 20 37.2" fill="none" stroke="#000000" stroke-linecap="round" stroke-linejoin="round" stroke-width="10"/>
			<path d="M 142 66.5 C 121 49.6 120 53 107 74" fill="none" stroke="#000000" stroke-linecap="round" stroke-linejoin="round" stroke-width="10"/>
			<path d="m 153 64.7 c 10 9.6 20 10.1 27 7.6 c 5 -4.3 11 -16.4 5 -25.5 c -3 -7.1 -15 -14.3 -29 -6.7 c -9 5.8 -8 18.2 -3 24.6 z" fill="#b7c3de" stroke="#000000" stroke-linecap="round" stroke-linejoin="round" stroke-width="10"/>
			<path d="m 165 42.3 c -5 7 -1 10.6 3 14.6 c 6 5 7 5.3 13 5.7 c 1 -3.3 3 -7.3 1 -13.6 c -4 -7 -10 -7.8 -17 -6.7 z" fill="#ffffff" stroke-linecap="round" stroke-linejoin="round" stroke-width="10"/>
		</symbol>
		<symbol id="hat_chocolate">
			<path d="m 132 128 c -15 2 -32 14 -43.6 -7 c 0 -5 -.4 -9 10.6 -10 c -6.3 -10 -3.4 -19.1 13 -25.4 c -5 -5.4 0 -13.8 10 -20.5 c 1 -4.7 0 -9.5 0 -14.2 c 6 7 10 15.1 22 17 c 6 3.8 8 9.2 5 17 c 15 -1.5 10 17.1 8 18.1 c 14 -7.9 31 16 17 23 z" fill="#392e23" stroke-linecap="round" stroke-linejoin="round" stroke-width="10"/>
			<path d="m 133 64.4 c 11 3 20 7.7 17 21.6 c 11 2.7 14 7.8 8 16 c 8 -3.9 12 1 15 4 c 4 6 0 12 -13 13 c -15 2 -31 2 -46 2 c -12 -3 -6 -5 -2 -8 c 11 -1 22 -1 33 -7 c -11 1 -20 0 -29 -2 c -3 -2 -7 -9 6 -11.2 c 10 .3 21 .7 27 -5.1 l -1 -5.4 c -4 5.6 -13 3.3 -17 4.2 c -6 -5.6 -3 -6.1 -2 -8 c 2 -3.4 4 -7.8 4 -14.1 z" fill="#524436" stroke-linecap="round" stroke-linejoin="round" stroke-width="10"/>
			<path d="m 118 128 c -12 -1 -26.1 -1 -17 -14 c 10 2 20 1 29 -1 c 5 -3 5 -4 1 -5 c -9 2 -26 -2 -27 -5 c 1 -6.3 5 -9.2 10 -11.7 c 12 3.5 31 2.9 38 -5.9 c -7 0 -33 4.6 -33 -4.1 c 7 -3.1 8 -11.7 10 -18.7 c -15 4.5 -23 11.3 -18 23.4 c -27.4 12.3 -13.1 17 -16.6 26 c -5.1 2 -12.2 8 2.6 20 z" fill="#1e1410" stroke-linecap="round" stroke-linejoin="round" stroke-width="10"/>
			<path d="m 132 128 c -15 6 -41.5 11 -43.6 -7 c 0 -5 3.1 -11 10.6 -10 c -7.6 -8 -3.4 -19.1 13 -25.4 c -4 -4.2 -6 -14.3 10 -20.5 c 1 -4.7 0 -9.5 0 -14.2 c 6 7 13 14.8 22 17 c 5 2 9 10.7 5 17 c 18 1 9 15.1 8 18.1 c 14 -7.9 31 16 17 23 z" fill="none" stroke="#000000" stroke-linecap="round" stroke-linejoin="round" stroke-width="10"/>
		</symbol>
		<symbol id="hat_punk">
			<path d="m 80.8 149 c 3.6 -1 6.8 1 5.7 -4 c 1.8 -3 1.4 -7 2.9 -11 c 2.6 -1 3.9 -2 4.6 -4 c 2.3 -3 5.6 -7 10 -6 c 2 -4 7 -1 12 -3 c 3 0 5 -1 9 -1 c 0 -1 6 -2 7 1 c 3 3 8 1 12 3 c 2 0 3 -3 7 -2 c 3 1 7 4 11 3 h 10 c 6 4 9 -5 9 -10 l 1 -16.8 c 0 -3.8 1 -6.1 1 -10.2 c 0 -3 -1 -4.5 0 -7.7 c 0 -4.2 2 -9.2 2 -12.5 c 0 -2.6 2 -2.2 3 -6 c 1 -3.4 3 -6 3 -9.1 c 1 -5.4 1 -10.7 4 -15.4 c 2 -3 2 -6.7 2 -10.9 c 1 -4.2 -3 -5.4 -5 -8.5 c -4 -5.1 -14 -.1 -20 -1.7 c -5 -1.3 -2 -9.58 -9 -6.54 c -5 .16 -7 2.14 -11 3.34 c -5 -.1 -5 1.7 -12 .9 c -6 -1.7 -2 9.8 -10 7.1 c -5 .9 -8 5.2 -11 6.5 c -7 -.3 -5 8 -8 10.1 c -4 .2 -10 4.1 -11 8.4 c -2.3 4.2 -7.8 5.9 -9.5 11 c -5.3 1.7 -5.1 5.8 -6.5 9.8 c -2.7 2.7 -3.6 7.2 -6.5 9.2 c -1.1 3.4 -5.6 5.1 -3.2 10.8 c -1.9 3.8 -2.5 4.6 -4.9 9.7 c 2.1 5.5 -4.5 4.5 -4.4 8.5 c -.1 8 .9 15 -.7 22 c -1.4 5 .7 10 .7 15 c -2.9 -5 -2.1 7 1.1 8 c 4.6 2 9.6 1 14.4 1 l .2 -1 z" fill="#84083e" stroke-linecap="round" stroke-linejoin="round" stroke-width="10"/>
			<path d="m 144 123 l -11 -106 l 29 -5.7 l 13 4.3 l 20 3.8 l 3 13.5 l -15 46.6 l -3 43.5 z" fill="#e71d1d" stroke-linecap="round" stroke-linejoin="round" stroke-width="10"/>
			<path d="m 119 120 l -12 -42.2 l -2 6.7 l -5 -15.9 l -1.4 14.8 l -9.9 -25.1 l 8.2 -9.5 l 8.1 24 l -3 -31.1 l 34 -25.4 l 8 108.7 z" fill="#bb1036" stroke-linecap="round" stroke-linejoin="round" stroke-width="10"/>
			<path d="m 151 121 l -4 -17 l 6 7 l 2 -22.3 l 4 15.3 l 3 -25.5 l 1 29.5 l 7 -4 l -6 20 z" fill="#f29294" stroke-linecap="round" stroke-linejoin="round" stroke-width="8"/>
			<path d="m 80.1 148 c 2.4 -2 2.6 -2 5 -4 c 2.6 -2 2.8 -6 4.3 -10 c 2.6 -1 3.9 -2 4.6 -4 c 2.3 -3 5.6 -7 10 -6 c 2 -4 7 -1 12 -3 c 3 0 5 -1 9 -1 c 0 -1 6 -2 7 1 c 3 3 8 1 12 3 c 2 0 3 -3 7 -2 c 3 1 7 4 11 3 h 10 c 6 4 9 -5 9 -10 l 1 -16.8 c 0 -3.8 1 -6.1 1 -10.2 c 0 -3 -1 -4.5 0 -7.7 c 0 -4.2 2 -9.2 2 -12.5 c 0 -2.6 2 -2.2 3 -6 c 1 -3.4 3 -6 3 -9.1 c 1 -5.4 1 -10.7 4 -15.4 c 2 -3 2 -6.7 2 -10.9 c 1 -4.2 -3 -5.4 -5 -8.5 c -4 -5.1 -14 -.1 -20 -1.7 c -5 -1.3 -2 -9.58 -9 -6.54 c -5 .16 -7 2.14 -11 3.34 c -5 -.1 -5 1.7 -12 .9 c -6 -1.7 -2 9.8 -10 7.1 c -5 .9 -8 5.2 -11 6.5 c -7 -.3 -5 8 -8 10.1 c -4 .2 -10 4.1 -11 8.4 c -2.3 4.2 -7.8 5.9 -9.5 11 c -5.3 1.7 -5.1 5.8 -6.5 9.8 c -2.7 2.7 -3.6 7.2 -6.5 9.2 c -1.1 3.4 -5.6 5.1 -3.2 10.8 c -1.9 3.8 -2.5 4.6 -4.9 9.7 c 2.1 5.5 -4.5 4.5 -4.4 8.5 c -.1 8 .9 15 -.7 22 c -1.4 5 .7 10 .7 15 c -2.9 -5 -2.1 7 1.1 8 c 4.6 2 6.7 1 11.4 1 l 1.3 -1 z" fill="none" stroke="#000000" stroke-linecap="round" stroke-linejoin="round" stroke-width="8"/>
		</symbol>
		<symbol id="hat_bat">
			<path d="M 111 128 C 101 122 89.4 117 66.5 124 C 71.5 103 63.3 90.4 43 84.5 C 61.4 67.3 54.7 46.3 43.5 24.5 l 78.5 47 C 103 83.7 95.9 101 111 128 Z" fill="#544e47" stroke-linecap="round" stroke-linejoin="round" stroke-width="10"/>
			<path d="M 78.8 120 C 77.4 107 83.2 93.3 61.9 79.2 C 70.4 64.6 63.1 50 59.8 35.4 L 47.4 31.5 c 10 28.7 6 42.8 -2.5 52.3 c 20.2 9.3 21.5 25.2 22.6 41.2 z" fill="#6b594a" stroke-linecap="round" stroke-linejoin="round" stroke-width="10"/>
			<path d="M 52.8 45.8 L 95 74.8 C 85.1 90.2 90.1 106 94.5 121 l 16.5 6 C 102 107 99.7 87.8 119 70 L 45.8 27 Z" fill="#2e2821" stroke-linecap="round" stroke-linejoin="round" stroke-width="10"/>
			<path d="M 46 84.5 C 58.2 73.4 90.6 72.7 120 70.5" fill="none" stroke="#000000" stroke-linecap="round" stroke-linejoin="round" stroke-width="5"/>
			<path d="M 68 124 C 77.4 103 94.3 85.2 121 70.5" fill="none" stroke="#000000" stroke-linecap="round" stroke-linejoin="round" stroke-width="5"/>
			<path d="M 111 128 C 101 122 89.4 117 66.5 124 C 71.5 103 63.3 90.4 43 84.5 C 61.4 67.3 54.7 46.3 43.5 24.5 C 69.2 35.9 95.3 50.6 122 71.5 C 103 83.7 95.9 101 111 128 Z" fill="none" stroke="#000000" stroke-linecap="round" stroke-linejoin="round" stroke-width="10"/>
			<path d="m 179 125 c 6 -17 10 -33.2 -9 -50.8 c 17 -16.7 35 -33 63 -45.9 c -8 18.9 -10 37.7 5 56.6 c -14 5 -25 13.5 -20 38.1 c -15 -10 -27 -3 -39 2 z" fill="#544e47" stroke-linecap="round" stroke-linejoin="round" stroke-width="10"/>
			<path d="m 192 121 c 6 -9 6 -25.6 0 -48.2 c 11 -10.2 22 -19.1 36 -24 l 1 -21.2 C 206 41.2 187 56.5 171 72.8 C 183 84 186 101 182 125 Z" fill="#2e2821" stroke-linecap="round" stroke-linejoin="round" stroke-width="5"/>
			<path d="m 209 118 c -4 -17 -5 -32.2 11 -38 c -15 -13.9 -5 -22.9 7 -31.5 c 1 14.7 5 26.9 12 36 c -15 5.4 -23 16.5 -21 38.5 z" fill="#685b4a" stroke-linecap="round" stroke-linejoin="round" stroke-width="5"/>
			<path d="m 171 74.3 c 24 12 39 27.7 48 46.7" fill="none" stroke="#000000" stroke-linecap="round" stroke-linejoin="round" stroke-width="5"/>
			<path d="m 170 72.5 c 23 .5 46 4.7 69 12.5" fill="none" stroke="#000000" stroke-linecap="round" stroke-linejoin="round" stroke-width="5"/>
			<path d="m 179 125 c 6 -17 10 -33.2 -9 -50.8 c 17 -16.7 35 -33 63 -45.9 c -8 18.9 -10 37.7 5 56.6 c -14 5 -25 13.5 -20 38.1 c -15 -10 -27 -3 -39 2 z" fill="none" stroke="#000000" stroke-linecap="round" stroke-linejoin="round" stroke-width="10"/>
		</symbol>
		<symbol id="hat_vagabond">
			<path d="m 108 147 c -6 12 -9.2 54 17 57 c 2 3 3 9 15 12 c 28 9 29 13 33 16 c 10 -12 24 -23 34 -29 c 14 -11 10 -21 8 -31 z" fill="#3c355a" stroke-linecap="round" stroke-linejoin="round" stroke-width="10"/>
			<path d="m 144 189 c 6 4 7 7 24 13 c -1 2 -3 4 -5 3 c 0 3 4 5 9 8 c 5 -13 11 -13 17 -16 l -5 -3 c 5 0 10 0 15 -4 v 4 c 5 -2 8 -7 10 -13 z" fill="#5f4d76" stroke-linecap="round" stroke-linejoin="round" stroke-width="10"/>
			<path d="m 130 205 c 10 -3 15 -2 23 -1 c -5 -6 -17 -4 -31 -6 z" stroke-linecap="round" stroke-linejoin="round" stroke-width="10"/>
			<path d="m 104 144 c -4 11 -4 54 21 60 c 2 3 3 9 15 12 c 28 9 29 13 33 16 c 10 -12 24 -23 34 -29 c 14 -11 10 -21 8 -31 z" fill="none" stroke="#000000" stroke-linecap="round" stroke-linejoin="round" stroke-width="10"/>
			<path d="m 77.5 176 l 37.5 3 l 14 10 l 37 -2 l 13 -12 l 12 10 l 27 -8 l -1 -27 l -20 -7 l -72 6 l -8 12 l -40.6 -3 c -.5 6 -4.4 12 1.1 18 z" fill="#deedf4" stroke-linecap="round" stroke-linejoin="round" stroke-width="10"/>
			<path d="m 114 180 l 3 -19 l -40.2 -4 v 19 z" fill="#354449" stroke-linecap="round" stroke-linejoin="round" stroke-width="10"/>
			<path d="m 141 167 h 24" fill="none" stroke="#000000" stroke-linecap="round" stroke-linejoin="round" stroke-width="8"/>
			<path d="m 189 164 l 18 -3" fill="none" stroke="#000000" stroke-linecap="round" stroke-linejoin="round" stroke-width="8"/>
			<path d="m 132 190 l -2 -25 c 2 -10 13 -13 20 -18 l -24 1 l -10 15 l 1 19 z" fill="#a2bcc8" stroke-linecap="round" stroke-linejoin="round" stroke-width="8"/>
			<path d="m 117 180 l 1 -18" fill="none" stroke="#000000" stroke-linecap="round" stroke-linejoin="round" stroke-width="10"/>
			<path d="m 77.5 176 l 37.5 3 l 14 10 l 37 -2 l 13 -12 l 12 10 l 27 -8 l -1 -27 l -11 -9 l -81 8 l -8 12 l -40.6 -3 c -.5 6 -4.4 12 1.1 18 z" fill="none" stroke="#000000" stroke-linecap="round" stroke-linejoin="round" stroke-width="10"/>
			<path d="m 96 143 c 46 17 82 6 118 -3 c 7 -4 5 -17 -9 -16 C 170 63.9 89.4 87.4 84 123 C 64.3 130 50.4 150 70.8 168 C 92.6 171 101 157 96 143 Z" fill="#31284c" stroke-linecap="round" stroke-linejoin="round" stroke-width="10"/>
			<path d="M 111 93.1 C 100 113 81.8 141 137 141 c 27 -2 52 -4 78 -11 l -10 -8 C 185 102 162 81.1 111 93.1 Z" fill="#4f3f7e" stroke-linecap="round" stroke-linejoin="round" stroke-width="10"/>
			<ellipse cx="75.5" cy="141" fill="#4f3f7e" rx="10.1" ry="11" stroke-linecap="round" stroke-linejoin="round" stroke-width="10"/>
			<ellipse cx="77.8" cy="136" fill="#846db5" rx="2.83" ry="3.01" stroke-linecap="round" stroke-linejoin="round" stroke-width="10"/>
			<path d="m 140 106 c -10 -3 -8 -5 2 -6.1 c 4 -2.6 10 -3.2 18 -1.3 c 16 4.4 11 8.4 14 12.4 c 3 -1 5 -2 7 0 c 1 1 2 3 -1 4 l -5 4 c -7 -1 -4 -4 -6 -6 c -1 -3 -6 -4 -15 -3 c -4 -1 -2 -3 -2 -4 z" fill="#846db5" stroke-linecap="round" stroke-linejoin="round" stroke-width="10"/>
			<path d="m 96 143 c 46 17 82 6 118 -3 c 7 -4 5 -17 -9 -16 C 170 63.9 89.4 87.4 84 123 C 64.3 130 50.4 150 70.8 168 C 92.6 171 101 157 96 143 Z" fill="none" stroke="#000000" stroke-linecap="round" stroke-linejoin="round" stroke-width="10"/>
		</symbol>
		<symbol id="hat_proteccion">
			<path d="m 128 134 c -19 6 -35.5 13 -46 21 c -7.1 4 -12.6 -1 -9.9 -9 L 82.7 133 C 75.2 114 95.4 96.6 106 89.3 c -1 -10.5 20 -13.8 42 -11.4 c 3 1 7 3.6 10 5.4 c 16 8.6 28 21.7 34 37.7 l 22 5 l -2 13 l -50 7 z" fill="#9f651b" stroke-linecap="round" stroke-linejoin="round" stroke-width="10"/>
			<path d="m 141 129 c -13 4 -38 6 -42.4 3 c -2.1 -3 -8.4 -21 9.4 -43.2 c 29 11 35 24.2 33 40.2 z" fill="#f4d02c" stroke-linecap="round" stroke-linejoin="round" stroke-width="10"/>
			<path d="m 113 84 c 20 7.2 34 18 34 43 l 24 -2 c -2 -15 -2 -30.4 -21 -45.6 c -20 -2.7 -31 .7 -37 4.6 z" fill="#f4d02c" stroke-linecap="round" stroke-linejoin="round" stroke-width="10"/>
			<path d="m 177 124 c -1 -13 -4 -20 -8 -29.2 c 9 6.2 17 14.2 21 28.2 z" fill="#f4d02c" stroke-linecap="round" stroke-linejoin="round" stroke-width="10"/>
			<path d="m 148 131 l 19 6 l 47 -7 c -5 -2 -11 -6 -18 -8 c -13 2 -28 4 -48 9 z" fill="#f4d02c" stroke-linecap="round" stroke-linejoin="round" stroke-width="10"/>
			<path d="m 129 134 l 64 -13" fill="none" stroke="#000000" stroke-linecap="round" stroke-linejoin="round" stroke-width="8"/>
			<path d="m 134 82.2 c 0 -1 13 .3 13 .3 c 0 0 10 8 9 8.7 c -1 .4 -10 -5.8 -10 -5.8 c 0 0 -11 -1.6 -12 -3.2 z" fill="#f4d0ff" stroke-linecap="round" stroke-linejoin="round" stroke-width="8"/>
			<path d="m 102 102 c -2.2 0 2 -4.8 7 -8.7 c 7 -1.9 8 3.6 7 4.1 c -2 1.2 -3 1.8 -5 .9 c -3 -2.1 -5 2.7 -9 3.7 z" fill="#f4d0ff" stroke-linecap="round" stroke-linejoin="round" stroke-width="8"/>
			<path d="m 128 134 c -19 6 -35.5 13 -46 21 c -7.1 4 -13 -2 -10.3 -10 l 9.6 -12 C 77 113 95.4 96.6 106 89.3 c 0 -14 20 -13.8 42 -11.4 c 3 1 7 4.7 10 6.5 c 16 7.6 28 20.6 34 36.6 l 22 5 l -2 13 l -50 7 z" fill="none" stroke="#000000" stroke-linecap="round" stroke-linejoin="round" stroke-width="8"/>
		</symbol>
		<symbol id="hat_svensson">
			<path d="M 73.5 111 L 55.5 83.5 C 64.7 59.6 74.8 36.4 127 42.5 l 25 41 z" fill="#314b99" stroke-linecap="round" stroke-linejoin="round" stroke-width="7"/>
			<path d="M 70.5 109 L 55.3 83 C 54.6 67.4 63.8 59.8 72.8 52 C 81.2 64.3 89.8 76.3 95 92.5 C 86.8 94.6 78.7 102 70.5 109 Z" fill="#1b2d65" stroke-linecap="round" stroke-linejoin="round" stroke-width="7"/>
			<path d="m 73.5 111 c -5.9 -9 -19 -23.6 -18 -27.5 c 1.2 -23.8 36.8 -51.9 71.5 -41 c 3 1.3 18 29.6 25 41 z" fill="none" stroke="#000000" stroke-linecap="round" stroke-linejoin="round" stroke-width="7"/>
			<path d="M 66.3 147 C 58.3 141 54 117 104 90.2 C 126 77.4 171 74.3 175 89.8 C 177 100 161 112 129 127 C 115 134 80 156 66.3 147 Z" fill="#182c63" stroke="#000000" stroke-linecap="round" stroke-linejoin="round" stroke-width="7"/>
			<path d="m 75 183 c 3.2 -9 6.1 -19 10.6 -25 c -2.8 16 .2 21 6.3 30 c 2.1 -16 3.8 -23 8.1 -36 c 3 10 6 13 8 18 c 1 -13 2 -26 9 -38 c 9 16 31 22 70 16 c -7 -4 -15 -7 -20 -13 c 15 -1 31 6 47 16 c -11 -18 -14 -40 -50 -42 l 26 -6 c -26 -6.9 -45 -14.5 -78 3 c -4 -2 -7 -6.8 -9 -12.7 c -5.2 7.7 -8.5 13.7 -9 19.7 c -22.8 7 -24.2 20 -26.8 33 L 84.1 135 C 63.9 158 71.9 169 75 183 Z" fill="#ecbe63" stroke-linecap="round" stroke-linejoin="round" stroke-width="7"/>
			<path d="m 97.4 115 l -7.2 11 l 7 1 l -5.6 16 l 9.4 3 l -8.4 39 c -5.4 -7 -8.4 -16 -7.7 -28 l -10.7 25 c -.5 -15 -8.6 -27 9.2 -47 l -15.2 11 c 4.4 -14 14.2 -29 29.2 -31 z" fill="#b57d39" stroke-linecap="round" stroke-linejoin="round" stroke-width="7"/>
			<path d="m 146 99 l -1 6 c -3 3 -9 5 -15 6 l 8 4 c -5 2 -9 3 -13 3 c 4 2 7 4 11 3 c -3 3 -7 3 -10 4 c 7 3 14 5 21 5 c -3 2 -5 3 -8 3 c 4 3 9 3 13 4 c 1 5 -4 5 -6 8 l 18 3 c 4 -6 3 -11 4 -17 c 8 0 13 -2 18 -5 c -6 0 -11 0 -16 -3 c 4 0 6 -1 8 -3 c -5 0 -11 0 -16 -2 l 9 -2 c -6 -1 -13 -3 -18 -6 c -1 -4 1 -7 3 -10 z" fill="#fff5e1" stroke-linecap="round" stroke-linejoin="round" stroke-width="7"/>
			<path d="m 75 183 c 3.2 -9 6.1 -19 10.6 -25 c -1 12 .5 17 6.6 26 c 2.1 -16 4.8 -23 8.8 -36 c 3 10 5 17 7 22 c 1 -13 2 -26 9 -38 c 9 16 34 18 70 16 c -7 -4 -15 -7 -20 -13 c 15 -1 31 6 47 16 c -11 -18 -14 -40 -50 -42 l 26 -6 c -25 -4.4 -53 -8 -78 3 c -4 -2 -6 -6 -8 -11.9 C 98.8 102 96.8 108 94 113 C 76.7 124 69.8 133 67.2 146 L 84.1 135 C 63.9 158 71.9 169 75 183 Z" fill="none" stroke="#000000" stroke-linecap="round" stroke-linejoin="round" stroke-width="7"/>
		</symbol>
		<symbol id="hat_militar">
			<path d="M 80 149 L 58.5 129 c 18.3 -2 21.9 -16 23.5 -31 c 10.3 -.7 21 -3.3 33 -21.7 c 7 -12 23 -22.3 37 -27.3 c 26 -6.8 53 10.5 33 43 l -1 20 c 20 5 31 16 24 25 c -7 9 -66 1 -93 -6 c -15 4 -28.4 10 -35 18 z" fill="#375b2b" stroke-linecap="round" stroke-linejoin="round" stroke-width="10"/>
			<path d="m 88.2 99 c 3.1 9 2.8 17 -1.2 23 c 8.9 -10 20 -10 31 -13 c -1 10 -2 14 -3 22 c -13 4 -25.2 10 -35.1 19 L 59 130 c 14.1 -7 22 -19 29.2 -31 z" fill-opacity=".4" stroke-linecap="round" stroke-linejoin="round" stroke-width="10"/>
			<path d="m 151 92.8 c 0 29.2 25 25.2 21 -.8 c -4 1.3 -8 -1.2 -11 -5.5 c -1 3.8 -2 6.8 -10 6.3 z" fill="#fccb2b" stroke="#000000" stroke-linecap="round" stroke-linejoin="round" stroke-width="5"/>
			<path d="m 162 101 c 0 2 1 3 2 4 c 1 -2 3 -3 1 -6 c -4 -1.9 -3 0 -3 2 z" fill="#ffffff" stroke-linecap="round" stroke-linejoin="round" stroke-width="5"/>
			<path d="m 160 94.7 c 1 .6 3 .8 4 -.7 c 0 -.9 -1 -1.7 -2 -2.6 c -2 1.5 -2 2.4 -2 3.3 z" fill="#ffffff" stroke-linecap="round" stroke-linejoin="round" stroke-width="5"/>
			<path d="m 115 130 c 19 -6 43 -11 73 -16" fill="none" stroke="#000000" stroke-linecap="round" stroke-linejoin="round" stroke-width="8"/>
			<path d="M 80 149 L 58.5 129 c 18.3 -2 21.9 -16 23.5 -31 c 10.3 -.7 21 -3.3 33 -21.7 c 7 -12 23 -22.3 37 -27.3 c 26 -6.8 53 10.5 33 43 l -1 20 c 20 5 31 16 24 25 c -7 9 -66 1 -93 -6 c -15 4 -28.4 10 -35 18 z" fill="none" stroke="#000000" stroke-linecap="round" stroke-linejoin="round" stroke-width="10"/>
		</symbol>
		<symbol id="hat_policia">
			<path d="M 80 149 L 58.5 129 c 18.3 -2 21.9 -16 23.5 -31 c 10.3 -.7 21 -3.3 33 -21.7 c 7 -12 23 -22.3 37 -27.3 c 26 -6.8 53 10.5 33 43 l -1 20 c 20 5 31 16 24 25 c -7 9 -66 1 -93 -6 c -15 4 -28.4 10 -35 18 z" fill="#3165cb" stroke-linecap="round" stroke-linejoin="round" stroke-width="10"/>
			<path d="m 88.2 99 c 3.1 9 2.8 17 -1.2 23 c 8.9 -10 20 -10 31 -13 c -1 10 -2 14 -3 22 c -13 4 -25.2 10 -35.1 19 L 59 130 c 14.1 -7 22 -19 29.2 -31 z" fill-opacity=".4" stroke-linecap="round" stroke-linejoin="round" stroke-width="10"/>
			<path d="m 151 92.8 c 0 29.2 25 25.2 21 -.8 c -4 1.3 -8 -1.2 -11 -5.5 c -1 3.8 -2 6.8 -10 6.3 z" fill="#fccb2b" stroke="#000000" stroke-linecap="round" stroke-linejoin="round" stroke-width="5"/>
			<path d="m 162 101 c 0 2 1 3 2 4 c 1 -2 3 -3 1 -6 c -4 -1.9 -3 0 -3 2 z" fill="#ffffff" stroke-linecap="round" stroke-linejoin="round" stroke-width="5"/>
			<path d="m 160 94.7 c 1 .6 3 .8 4 -.7 c 0 -.9 -1 -1.7 -2 -2.6 c -2 1.5 -2 2.4 -2 3.3 z" fill="#ffffff" stroke-linecap="round" stroke-linejoin="round" stroke-width="5"/>
			<path d="m 115 130 c 19 -6 43 -11 73 -16" fill="none" stroke="#000000" stroke-linecap="round" stroke-linejoin="round" stroke-width="8"/>
			<path d="M 80 149 L 58.5 129 c 18.3 -2 21.9 -16 23.5 -31 c 10.3 -.7 21 -3.3 33 -21.7 c 7 -12 23 -22.3 37 -27.3 c 26 -6.8 53 10.5 33 43 l -1 20 c 20 5 31 16 24 25 c -7 9 -66 1 -93 -6 c -15 4 -28.4 10 -35 18 z" fill="none" stroke="#000000" stroke-linecap="round" stroke-linejoin="round" stroke-width="10"/>
		</symbol>
	</defs>

	<g id="personaje">
		<ellipse cx="135" cy="344" fill-opacity=".498" rx="86.3" ry="16.4"/>
		<path id="characterColor" style="fill:var(--colorRed)" d="m 135 111 c -18 0 -34 6 -43.5 17 c -8 9 -12.9 27 -15.7 50 v 0 c -11.3 0 -16.6 1 -26.1 4 c -16.2 5 -13.2 98 -.5 110 c 11.6 7 18.5 4 26.7 4 c 1.3 16 3.1 30 5.2 43 c 22.9 8 32.9 8 48.9 -3 c 5 -18 6 -38 6 -38 l 15 1 c 3 24 6 32 12 36 c 12 2 24 1 31 -3 l 7 -36 c 6 -30 11 -136 -13 -162 c -16 -16 -35 -23 -53 -23 z"/>
		<path d="m 75.9 296 c 1.4 18 3.4 30 5.2 43 c 16.4 7 34.9 9 48.9 -3 l 6 -38 l 15 1 c -1 13 0 23 7 35 c 10 2 26 3 36 -2 c 13 -44 10 -90 11 -135 c -2 31 -8 55 -18 67 c -24 12 -59 11 -73 3 c -17.6 -7 -34.1 -118 -14 -147 c -16.7 18 -22 36 -24.2 58 c -1.2 8 -2.9 25 -7 24 c -9.7 -1 -19.4 2 -29.2 8 c -3.4 28 -.5 55 9.6 82 c 8.2 4 16.6 7 26.7 4" fill-opacity=".337"/>
		<path d="m 135 111 c -18 0 -34 6 -43.5 17 c -8 9 -12.9 27 -15.7 50 v 0 c -11.3 0 -16.6 1 -26.1 4 c -16.2 5 -13.2 98 -.5 110 c 11.6 7 18.5 4 26.7 4 c 1.3 16 2.6 33 5.2 43 c 12.1 7 35.9 5 48.9 -3 c 4 -4 6 -38 6 -38 l 15 1 c 3 24 1 31 7 35 c 12 2 32 3 36 -2 c 3 -4 6 -24 7 -36 c 2 -22 11 -136 -13 -162 c -16 -16 -35 -23 -53 -23 z" fill="none" stroke="#000000" stroke-linecap="round" stroke-linejoin="round" stroke-width="10"/>
		<path d="m 153 303 c 12 -2 18 -5 24 -11 c -9 2 -16 2 -25 2 z"/>
		<path d="M 75.9 296 C 72.3 243 72.8 205 75.8 178" fill="#008000" stroke="#000000" stroke-linecap="round" stroke-linejoin="round" stroke-width="10"/>
		<g id="visor">
			<path d="m 130 207 c 19 12 79 3 85 -15 c 3 -12 1 -32 -16 -39 c -17 -9 -66 -9 -74 0 c -10 4 -11 46 5 54 z" fill="#4a646d" stroke="#000000" stroke-linecap="round" stroke-linejoin="round" stroke-width="10"/>
			<path d="m 131 155 c 6 31 13 32 41 31 c 12 0 29 0 39 -8 c -1 -16 -12 -23 -31 -25 c -17 -2 -35 -4 -49 2 z" fill="#94c9db"/>
			<path d="m 159 171 c 8 3 34 3 37 2 c 3 -1 3 -9 -2 -11 c -10 -5 -21 -8 -34 -6 c -8 4 -8 12 -1 15 z" fill="#fefefe"/>
		</g>
	</g>
	<g id="hat"></g>
	<g id="skin"></g>
	<g id="pet"></g>
</svg>
