<?xml version="1.0" encoding="UTF-8" standalone="no"?>
<!-- Created with Inkscape (http://www.inkscape.org/) -->

<svg width="60" height="60" viewBox="0 0 60 60" version="1.1" id="svg1071"
   xmlns="http://www.w3.org/2000/svg"
   xmlns:svg="http://www.w3.org/2000/svg">
   <defs>
      
   </defs>
   <symbol id="option_hat_astronauta">
      <path style="fill:#c6baad;" d="m 19.5,43.5 c -10.96,-8 -6,-24 5,-28 12,-3 30,6 19,22" />
      <path style="fill:#f7f4ec;" d="m 25.5,39.5 c -10,-3 -10,-14 -6,-20 4,-6 16,-6 23,-2 8,7 3,23 0,22"/>
      <path style="fill:none;stroke:#1b1910;stroke-width:3;stroke-linecap:round;stroke-linejoin:round" d="m 19.5,43.5 c -10.96,-8 -6,-24 5,-28 12,-3 30,6 19,22"/>
      <path style="fill:#37434f;stroke:#0b1218;stroke-width:3;stroke-linecap:round;stroke-linejoin:round" d="m 45.5,32.5 c -1,2 -5,-1 -8,-1 -3,0 -6.5,2.7 -10,2 -6.9,-1.4 -7,-9 -5,-12 3,-4 8.1,-7 13,-6 9.2,2 14,11 10,17 z"/>
      <path style="fill:#788faa;stroke:none;stroke-width:3;stroke-linecap:round;stroke-linejoin:round" d="m 35.5,20.5 c -0.9,-0.2 -2.8,0.9 -4,0 -1.7,-1.4 -0.9,-2.3 1,-3 2.2,-0.8 6,0 8,2 1,1 1,3 -1,3 -2,0 -2.6,-1.7 -4,-2 z"/>
      <path style="fill:#ad3418;stroke:none;stroke-width:2;stroke-linecap:round;stroke-linejoin:round" d="m 19.5,46.5 -1,-4 c 8,-6 17,-8 26,-6 v 4 c -9,-1 -17,1 -25,6 z"/>
      <path style="fill:#ffffff;fill-opacity:0.209;stroke:none;stroke-width:2;stroke-linecap:round;stroke-linejoin:round" d="m 23.5,39.5 c 0,0 3,2 4,2 7,-1 12,-1 18,-1 v -4 c -6,-2 -15,0 -22,3 z"/>
      <path style="fill:none;stroke:#180802;stroke-width:2;stroke-linecap:round;stroke-linejoin:round" d="m 18.5,46.5 -1,-4 c 8,-6 19,-8 28,-6 l -1,4 c -9,-1 -17,0 -26,6 z"/>
   </symbol>
   <symbol id="option_hat_bicho">
      <path style="fill:#186d52" d="m 29.6,19.7 c 7,0 9,6 8,12 0,3 2,3 3,4 4,2 4,10 -2,6 -2,-1 -3,-2 -5,0 -1,1 -4,2 -6,0 -2,-3 -3,-3 -6,0 -4,2 -7,-2 -3,-5 1,-1 3,-2 3,-5 1,-6 0,-12 8,-12 z"/>
      <path style="fill:#3fbe3f" d="m 30.6,19.7 c -9,0 -5,13 -7,15 -1,1 -5,3 -4,5 4,-3 8,-3 11,2 3,1 3,-4 6,-3 2,0 4,3 5,2 2,0 1,-4 1,-4 -2,0 -3,-2 -4,-3 0,-3 0,-4 -1,-9 -2,-4 -4,-5 -7,-5 z"/>
      <path style="fill:none;stroke:#021902;stroke-width:3;stroke-linecap:round;stroke-linejoin:round" d="m 29.6,19.7 c 0,0 -3,-5 3,-5"/>
      <circle style="fill:#031903" cx="32.6" cy="14.7" r="1.99" />
      <path style="fill:none;stroke:#083008;stroke-width:3;stroke-linecap:round;stroke-linejoin:round" d="m 29.6,19.7 c 7,0 9,6 8,12 0,3 2,3 3,4 4,2 4,10 -2,6 -2,-1 -3,-2 -5,0 -1,1 -4,2 -6,0 -2,-3 -3,-3 -6,0 -4,2 -7,-2 -3,-5 1,-1 3,-2 3,-5 1,-6 0,-12 8,-12 z"/>
      <ellipse style="fill:#091815" cx="32.6" cy="27.7" rx="6.6" ry="6.44" />
      <ellipse style="fill:#a6cbc5" cx="32.6" cy="27.7" rx="4.24" ry="4.13" />
      <path style="fill:#d6ecec" d="m 30.6,23.7 c -2,1 -1,4 1,5 1,1 4,2 5,0 1,-4 -2,-6 -6,-5 z"/>
      <circle style="fill:#421a34" cx="33.6" cy="27.7" r="1.58" />
   </symbol>
   <symbol id="option_hat_jason">
      <path style="fill:#1d1e26;stroke:#101012;stroke-width:3;stroke-linecap:round;stroke-linejoin:round" d="m 24.7,33.4 c -4,-0.3 -8,-1.1 -12.4,-4.3 -0.2,-1.6 -0.5,-3.4 1.4,-5 4,1.8 7,3.2 11,3.4"/>
      <path style="fill:#2c2d36;stroke:#101012;stroke-width:3;stroke-linecap:round;stroke-linejoin:round" d="M 29.7,19.6 18.7,18 c 2,-1.9 6,-3.4 8,-3.3 4,0.4 6,0.4 11,2"/>
      <path style="fill:#b5aa9f" d="m 23.7,31 c 1,9.2 6,14 13,14.5 6,0.3 11,-3.9 11,-14.3 -1,-11.1 -6,-14.3 -12,-14.8 -12,3.7 -11,9.3 -12,14.6 z"/>
      <path style="fill:#d3d0c6" d="m 29.7,19 c -5,6.7 -3,16.7 2,19.9 0,-1.6 2,-2.9 1,-6.3 1,-1.6 1,-1.1 3,-0.6 1,0.6 3,0.3 4,-1.6 0,1.4 0,2.7 -2,3 h -3 c 1,2.1 1,4.5 1,6.6 3,0.8 4,0.5 5,0 0,-1.9 0,-2.7 1,-6.1 0,-3.5 2,4 2,7.4 3,-2.4 4,-7.7 4,-14 -2,-6.9 -6,-9.1 -10,-10.4 -3,-0.8 -5,0 -8,2.1 z"/>
      <path style="fill:#b5aa9f" d="m 29.7,25.9 c -1,-0.2 -1,-0.2 0,-1 1,-0.6 2,-0.8 5,0 1,0.2 1,-0.8 2,-1.1 0,1.3 0,2.4 -2,2.9 -1,-0.5 -4,-1 -5,-0.8 z"/>
      <path style="fill:#b5aa9f" d="m 38.7,27 c -1,-0.5 0,-1.6 0,-2.9 1,1.8 2,1.8 2,2.1 z" />
      <ellipse style="fill:#b5aa9f" cx="35.7" cy="21.7" rx="0.75" ry="0.609"/>
      <ellipse style="fill:#b5aa9f" cx="38.7" cy="21.7" rx="0.702" ry="0.609" />
      <path style="fill:#f72842;stroke:#5a1c21;stroke-width:1.5;stroke-linecap:round;stroke-linejoin:round" d="m 29.7,29.1 c -2,-0.3 -2,-2.1 -1,-2.9 3,-0.8 6,0.3 7,1.1 0,0.7 0,2.6 -6,1.8 z"/>
      <path style="fill:#f72842;stroke:#5a1c21;stroke-width:1.5;stroke-linecap:round;stroke-linejoin:round" d="m 38.7,27.5 c 0,1.1 4,2.1 5,1.3 1,-0.2 1,-2.3 0,-2.6 -2,-0.8 -5,0.5 -5,1.3 z"/>
      <path style="fill:none;stroke:#20201b;stroke-width:3;stroke-linecap:round;stroke-linejoin:round" d="m 23.7,31 c 0,9.2 6,14 13,14.5 6,0.3 12,-3.9 11,-14.3 0,-10.8 -7,-15.1 -12,-14.8 -13,1 -11,10.1 -12,14.6 z"/>
      <path style="fill:#2c2d36;" d="m 21.7,31.8 c -2,-0.3 -4,-0.8 -6,-1.9 l 1,-3.2 c 1,0.6 2,1.1 5,1.9"/>
      <ellipse style="fill:#212018" cx="35.7" cy="37.6" rx="1.17" ry="0.935"/>
      <ellipse style="fill:#212018" cx="34.7" cy="34.4" rx="1.17" ry="0.935" />
      <ellipse style="fill:#212018" cx="39.7" cy="34.4" rx="1.17" ry="0.935" />
      <ellipse style="fill:#212018" cx="40.7" cy="37.6" rx="1.17" ry="0.935" />
      <path style="fill:#eeebe7" d="m 36.7,31.8 c 0,-1.1 0,-2.2 0,-3.5 0,-0.3 1,-0.3 1,0 0,1.1 0,1.6 0,1.9 1,0.2 2,0.2 2,0.5 -1,0.5 -2,2.1 -3,1.1 z"/>
      <path style="fill:#eeebe7" d="m 37.7,18.2 c 3,0 6,3.5 6,4 0,0.3 -2,0 -4,-1 -2,-1.6 -2,-2.4 -2,-3 z" />
   </symbol>
</svg>
