<?xml version="1.0" encoding="UTF-8" standalone="no"?>
<!-- Created with Inkscape (http://www.inkscape.org/) -->

<svg width="60" height="60" viewBox="0 0 60 60" version="1.1" xmlns="http://www.w3.org/2000/svg" xmlns:svg="http://www.w3.org/2000/svg">
   <!-- Created By Erik Medina (https://github.com/erme07) -->

   <symbol id="option_pet_robot">
      <path style="fill:none;stroke:#0a0909;stroke-width:1.04002;stroke-linecap:round;stroke-linejoin:round" d="M 27.4,19.4 25.8,14.7" />
      <ellipse style="fill:#0a0909" cx="25.8" cy="14.7" rx="1.98" ry="1.69" />
      <path style="fill:#b5ae94;stroke:#000000;stroke-width:1.66403;stroke-linecap:round;stroke-linejoin:round" d="M 40,25.7 C 31.3,28 22.7,30.4 21.1,24.9 20.3,20.2 29.8,18.6 38.4,19.4 40,21 40,23.3 40,25.7 Z" />
      <path style="fill:#565b60;stroke:#000000;stroke-width:1.04002;stroke-linecap:round;stroke-linejoin:round" d="m 30.5,28 c -0.7,-2.3 -1.5,-3.9 -0.7,-6.3 2.3,-1.5 5.4,-2.3 8.6,-2.3 1.6,0.8 1.6,3.1 1.6,6.3 z"/>
      <circle style="fill:#42cfde" cx="32.9" cy="23.3" r="1.04" />
      <circle style="fill:#42cfde" cx="36.8" cy="23.3" r="1.04" />
      <path style="fill:#84756b" d="m 25.8,24.1 c 0,0.8 0,0.8 0,1.6 0.8,0 0.8,0 0.8,0 0,-0.8 0,-0.8 0,-1.6 0,-0.8 -0.8,-1.6 -0.8,0 z"/>
      <path style="fill:#84756b" d="m 25,25.7 c 0,-0.8 0,-1.6 -0.7,-1.6 0,-0.8 0.7,-0.8 0.7,0 l 0.8,0.8 C 25,25.7 25,25.7 25,25.7 Z" />
      <path style="fill:#84756b" d="m 23.5,24.9 c 0,0 0,0 0,-0.8 0,0 0,-0.8 0.8,0 0,0.8 0,0.8 0,0.8 0,0.8 -0.8,0 -0.8,0 z" />
      <path style="fill:#84756b" d="M 23.5,21.7 29,21 c 0.8,0 2.3,-0.8 3.1,-0.8 -3.1,0 -6.3,0.8 -8.6,1.5 z" />
      <path style="fill:none;stroke:#000000;stroke-width:1.66403;stroke-linecap:round;stroke-linejoin:round" d="m 28.2,28.8 v 2.4" />
      <path style="fill:#575d60" d="m 22.7,45.3 c 3.1,0 5.5,0 8.6,-0.8 l 6.3,-2.4 c 1.6,-1.5 0.8,-3.1 -0.8,-3.9 l -14.1,1.6 c -1.6,0.8 -3.1,3.1 0,5.5 z" />
      <ellipse style="fill:none;stroke:#000000;stroke-width:1.04002;stroke-linecap:round;stroke-linejoin:round" cx="23.5" cy="42.1" rx="1.51" ry="1.45" />
      <ellipse style="fill:none;stroke:#000000;stroke-width:1.04002;stroke-linecap:round;stroke-linejoin:round" cx="29" cy="42.1" rx="1.51" ry="1.45" />
      <path style="fill:#202728" d="m 30.5,44.5 c 1.6,-1.6 0.8,-3.9 -0.7,-5.5 l 7,-0.8 c 2.4,1.6 2.4,3.2 0.8,3.9 z" />
      <path style="fill:none;stroke:#000000;stroke-width:1.04002;stroke-linecap:round;stroke-linejoin:round" d="M 30.5,44.5 C 32.1,43.7 32.1,40.6 29.8,39"  />
      <ellipse style="fill:#5a4942" cx="23.5" cy="42.1" rx="0.497" ry="0.441" />
      <ellipse style="fill:#5a4942" cx="29" cy="42.1" rx="0.474" ry="0.435" />
      <path style="fill:none;stroke:#000000;stroke-width:1.04002;stroke-linecap:round;stroke-linejoin:round" d="m 22.7,44.5 c 0.8,0.8 5.5,0.8 8.6,0 l 6.3,-2.4 c 1.6,-1.5 0.8,-3.1 -0.8,-3.9 l -14.1,1.6 c -2.4,0.8 -3.1,3.9 0,4.7 z" />
      <path style="fill:#575d60;stroke:#000000;stroke-width:0.416008;stroke-linecap:round;stroke-linejoin:round" d="m 32.9,41.4 3.9,-1.6"  />
      <path style="fill:#575d60;stroke:#000000;stroke-width:0.416008;stroke-linecap:round;stroke-linejoin:round" d="m 32.9,42.9 4.7,-1.5" />
      <path style="fill:#b7b099" d="m 21.9,39.8 h 9.4 l 5.5,-1.6 v -7.8 l -14.1,0.8 c -1.6,3.9 -1.6,5.5 -0.8,8.6 z" />
      <path style="fill:#847768" d="m 36.8,38.2 -6.3,1.6 C 29.8,37.4 29,35.1 29.8,31.2 l 7,-0.8 z"/>
      <path style="fill:#b7b099;stroke:#000000;stroke-width:2.08004;stroke-linecap:round;stroke-linejoin:round" d="M 29.8,39.8 C 29,36.7 29,34.3 29.8,31.2" />
      <path style="fill:none;stroke:#000000;stroke-width:1.66403;stroke-linecap:round;stroke-linejoin:round" d="m 21.9,39.8 h 9.4 l 5.5,-1.6 v -7.8 l -14.1,0.8 c -1.6,3.9 -1.6,5.5 -0.8,8.6 z" />
      <path style="fill:#847768" d="m 24.3,33.5 c -0.8,0 -0.8,2.4 0,3.9 0.7,0 3.9,0 3.1,-0.7 H 25 Z" />
      <path style="fill:#5d4c45" d="m 31.3,34.3 0.8,-1.6 h 2.4 l 0.7,1.6 v -2.4 h -3.9 z" />
   </symbol>

   <symbol id="option_pet_ovni">
      <path style="fill:#b3c3c9" d="m 30.1,25.7 c -5.3,2.6 -15,5.3 -15.9,8 -0.9,7 33.6,7.9 31.9,0 0,-1.8 -10.7,-5.4 -16,-8 z"/>
      <path style="fill:#717f93" d="m 15.1,32.8 c 8.8,7.1 25.6,5.3 31,0 0,7.9 -8.9,6.2 -16,7.1 -8.8,-0.9 -16.8,-1.8 -15,-7.1 z" />
      <path style="fill:none;stroke:#000000;stroke-width:1.87775;stroke-linecap:round;stroke-linejoin:round" d="m 30.1,25.7 c -5.3,2.6 -15,5.3 -15.9,8 -0.9,7 33.6,7.9 31.9,0 0,-1.8 -10.7,-5.4 -16,-8 z" />
      <ellipse style="fill:#1eb56e" cx="18.6" cy="33.7" rx="1.18" ry="0.965" />
      <ellipse style="fill:#f03448" cx="23" cy="34.5" rx="1.18" ry="0.965" />
      <ellipse style="fill:#5734f0" cx="27.5" cy="35.4" rx="1.18" ry="0.965" />
      <ellipse style="fill:#1fb56f" cx="32.8" cy="35.4" rx="1.18" ry="0.965" />
      <ellipse style="fill:#f03549" cx="37.2" cy="34.5" rx="1.18" ry="0.965" />
      <ellipse style="fill:#5735ef" cx="41.6" cy="32.8" rx="1.18" ry="0.965" />
      <path style="fill:#b3c3c9" d="m 21.3,31 c 6.2,3.5 12.4,2.7 17.7,0 -0.9,-4.4 -3.6,-8 -8.9,-8.9 -6.2,0.9 -8,4.5 -8.8,8.9 z" />
      <path style="fill:#6f93bd" d="M 39,29.2 C 33.7,31 29.2,31.9 26.6,31 22.1,29.2 24.8,26.6 26.6,23.9 23,24.8 22.1,27.5 21.3,31 30.1,36.3 39,31.9 39,31 Z"/>
      <path style="fill:none;stroke:#000000;stroke-width:1.87775;stroke-linecap:round;stroke-linejoin:round" d="m 21.3,31 c 6.2,3.5 12.4,2.7 17.7,0 -0.9,-4.4 -3.6,-8 -8.9,-8.9 -6.2,0.9 -8,4.5 -8.8,8.9 z" />
      <path style="fill:#fdfefe" d="m 33.7,27.5 c 0.8,0.8 1.7,0 0.8,-0.9 0,-0.9 -3.5,-2.7 -3.5,-1.8 0,0 1.8,0.9 2.7,2.7 z" />
   </symbol>

   <symbol id="option_pet_doggy">
      <path style="fill:#266d97;stroke:#000000;stroke-width:1.08544;stroke-linecap:round;stroke-linejoin:round" d="m 24.5,39.1 0.8,1.6 c 0.8,0 1.6,0 2.4,0 v -1.6" />
      <path style="fill:#266d97;stroke:#000000;stroke-width:1.08544;stroke-linecap:round;stroke-linejoin:round" d="m 35.9,36.6 0.9,4.1 c 0.8,0 2.4,0.8 3.2,0 0,-1.6 0,-4.1 0,-5.7" />
      <path style="fill:#45c4d0" d="m 24.5,39.1 c 0.8,0.8 0.8,2.4 0,3.3 -0.9,0.8 -2.5,0.8 -3.3,0 -0.8,-0.9 0,-2.5 0,-3.3 -2.5,-0.8 -3.3,-3.3 -1.7,-7.5 -4,-3.3 -3.2,-6.5 -0.8,-10.6 0,4.1 1.7,6.5 3.3,8.2 L 32.7,25.9 31,27.5 26.9,25.9 c 0,-2.5 0.8,-4.9 2.5,-5.7 2.4,0 3.3,1.6 4.1,1.6 L 38.4,21 c 1.6,-1.7 3.3,-2.5 5.7,0.8 0,0.8 2.5,2.5 0,3.3 l -2.4,2.4 c 0,1.7 2.4,1.7 3.2,2.5 -3.2,0.8 -8.1,3.3 -12.2,-0.8 L 31,32.4 c 1.7,0.9 2.5,1.7 9,0 1.7,0 2.5,0.9 1.7,1.7 -1.7,0.9 -3.3,1.7 -4.1,3.3 0,1.7 -0.8,3.3 -0.8,5 -0.9,0 -1.7,0 -2.5,0 -0.8,-0.9 -0.8,-2.5 -0.8,-3.3 -3.3,0 -5.8,0 -9,0 z" />
      <path style="fill:#266d97" d="m 17.9,22.6 c -0.8,4.9 2.5,7.4 3.3,8.2 -0.8,9.9 20.5,1.6 20.5,2.5 -0.9,1.7 -2.5,2.5 -4.1,4.1 0,3.3 -0.8,4.1 -0.8,5 h -3.3 c 0,-0.9 -0.8,-1.7 0,-3.3 -3.3,0 -5.8,0.8 -8.2,0 0,1.6 0,3.3 -0.8,4.1 -1.7,0 -2.5,0 -4.1,-0.8 0,-1.7 0,-2.5 0.8,-3.3 -3.3,-1.7 -3.3,-4.1 -1.7,-7.5 -2.4,-3.3 -4,-5.7 -1.6,-9 z" />
      <path style="fill:#35237d" d="M 31,32.4 32.7,30 c 3.2,1.6 5.7,1.6 9,0.8 l -0.9,2.5 c -4.9,0 -9,0.8 -9.8,-0.9 z" />
      <path style="fill:#a13078;stroke:#000000;stroke-width:1.08544;stroke-linecap:round;stroke-linejoin:round" d="M 40.8,32.4 V 30.8" id="path9219" />
      <path style="fill:#266d97;" d="m 32.7,25.9 c 0,0 -0.9,-0.8 -0.9,-0.8 -2.4,0.8 -5.7,0 -4.1,0.8 l 3.3,1.6 z"/>
      <path style="fill:none;stroke:#000000;stroke-width:1.08544;stroke-linecap:round;stroke-linejoin:round" d="m 24.5,39.1 c 0.8,0.8 0.8,2.4 0,3.3 -0.9,0.8 -2.5,0.8 -3.3,0 -0.8,-0.9 0,-2.5 0,-3.3 -2.5,-0.8 -3.3,-3.3 -1.7,-7.5 -4,-3.3 -3.2,-6.5 -0.8,-10.6 0,4.1 1.7,6.5 3.3,7.3 1.6,0 4.9,0 7.4,-0.8 -0.8,-0.8 -1.7,-0.8 -2.5,-2.4 0,0 0.8,-4.9 2.5,-4.9 2.4,0 3.3,1.6 4.1,1.6 L 38.4,21 c 2.4,-2.5 3.3,-2.5 5.7,0.8 0.8,0.8 2.5,2.5 0,3.3 l -2.4,2.4 c 0,1.7 2.4,1.7 3.2,2.5 -3.2,0.8 -8.1,3.3 -12.2,-0.8 L 31,32.4 c 1.7,0.9 2.5,1.7 9,0 1.7,0 2.5,0.9 1.7,1.7 -1.7,0.9 -3.3,1.7 -4.1,3.3 0,1.7 0,3.3 -0.8,5 -0.9,0.8 -1.7,0.8 -2.5,0 -0.8,0 -0.8,-2.5 -0.8,-3.3 -3.3,0 -5.8,0 -9,0 z" />
      <path style="fill:#d1e8f6;stroke:#000000;stroke-width:1.08544;stroke-linecap:round;stroke-linejoin:round" d="m 35.9,29.2 c 1.7,0 3.3,0 4.9,-0.9 1.7,0 2.5,-2.4 2.5,-3.2 0,-3.3 -3.3,-4.1 -4.9,-4.1 -2.5,0 -4.9,1.6 -4.9,4.1 0,1.6 0.8,3.2 2.4,4.1 z" />
      <ellipse style="fill:#10152a" cx="39.2" cy="24.3" rx="1.83" ry="1.53" />
      <path style="fill:#a13078" d="m 33.5,36.6 c 0.8,-0.8 1.6,-2.5 1.6,-3.3 0,-0.9 -1.6,-1.7 -2.4,-0.9 -0.9,0.9 -2.5,2.6 -2.5,3.4 0,1.6 2.5,1.6 3.3,0.8 z" />
      <path style="fill:#df65ce" d="m 31.8,33.3 c 0.9,0 0.9,0.8 0.9,1.7 0,0 0.8,-0.9 0.8,-0.9 0.8,0.9 0.8,1.7 0,2.5 -0.8,0.8 -0.8,1.7 -2.5,0.8 -0.8,-0.8 -0.8,-3.3 0.8,-4.1 z" />
      <path style="fill:none;stroke:#000000;stroke-width:0.651263;stroke-linecap:round;stroke-linejoin:round" d="m 33.5,36.6 c 0.8,-0.8 1.6,-2.5 1.6,-3.3 0,-0.9 -1.6,-1.7 -2.4,-0.9 -0.9,0.9 -2.5,2.6 -2.5,3.4 0,1.6 2.5,1.6 3.3,0.8 z" />
      <path style="fill:#000000" d="m 29.4,27.5 0.8,0.8 c 1.6,-0.8 1.6,-1.6 2.5,-2.4 0,0 -1.7,1.6 -2.5,0.8 -0.8,0 -1.6,-0.8 -1.6,-0.8 z"/>
      <path style="fill:#90a6c9" d="m 35.1,23.4 c -0.8,5.8 4.1,4.9 7.4,2.5 -0.8,3.3 -4.9,3.3 -6.6,2.4 -0.8,0 -3.2,-2.4 -0.8,-4.9 z"/>
   </symbol>
</svg>