<?xml version="1.0" encoding="UTF-8" standalone="no"?>
<!-- Created with Inkscape (http://www.inkscape.org/) -->

<svg width="60" height="60" viewBox="0 0 60 60" version="1.1" xmlns="http://www.w3.org/2000/svg" xmlns:svg="http://www.w3.org/2000/svg">
   <!-- Created By Erik Medina (https://github.com/erme07) -->
   <symbol id="option_skin_sport">
      <path style="fill:#1538a1" d="m 12.3,26.2 c -1.1,9 -0.2,15 0.6,20 5,3 10.2,4 16.5,2 v -2 h 3.2 l 0.3,2 c 5.1,0 9.1,0 14.1,-3 2,-4 2,-9 2,-17 -12,4 -24.6,2 -36.7,-2 z"/>
      <path style="fill:#6d87ad" d="m 42,39.2 c 0,-1 0,-2 0,-3 1,-1 4,-3 4,-6 l 3,-1 c -1,6 -2,6 -3,7 l -1,3 z" />
      <path style="fill:#6d87ad" d="m 17.8,28.2 c 0,3 -0.6,6 5.3,10 v 2 h 4.2 l -0.2,-4 c -5.1,-2 -5.1,-5 -5.9,-7 z" />
      <path style="fill:#ffffff;fill-opacity:0.25" d="m 19.1,28.2 c 1.1,5 4,9 8,13 l 14.9,-1 c 3,-3 5,-5 5,-11 -10,2 -18.9,1 -27.9,-1 z" />
      <path style="fill:none;stroke:#071428;stroke-width:3;stroke-linecap:round;stroke-linejoin:round" d="m 12.4,39.2 c 14.1,3 27.6,3 35.6,-1" />
      <path style="fill:#071428" d="m 32.1,45.2 c 2.9,0 6.9,-1 9.9,-1 -2,1 -5,2 -9.4,2 z" />
      <path style="fill:none;stroke:#071428;stroke-width:3;stroke-linecap:round;stroke-linejoin:round" d="m 12.3,26.2 c -1.1,9 -0.2,15 0.6,20 5,3 10.2,4 16.5,2 v -2 h 3.2 l 0.3,2 c 5.1,0 9.1,0 14.1,-3 2,-4 2,-9 1,-17 -12,4 -23.6,2 -35.7,-2 z" />
   </symbol>

   <symbol id="option_skin_banana">
      <path style="fill:#392c22;stroke:#100c08;stroke-width:2;stroke-linecap:round;stroke-linejoin:round" d="M 12.5,50 8.2,48.8 c -1.1,-1.7 -1.7,-2.9 0,-4.9 l 4.3,-0.7"  />
      <path style="fill:#b5811b" d="M 19.6,53.1 C 16.4,42.8 30.1,45.5 32.3,52.2 41,52.4 48.7,41.9 48.7,35.6 51.4,34.9 52,37.2 53.6,39.4 54.7,36.2 54.2,26.6 45.9,31.1 43.2,32.7 40.5,38.7 37.7,43 36.6,39 35,34.9 30.6,31.7 L 19,32.9 c -0.5,7.6 -2.6,9.6 -6.5,10.3 V 50 c 1.7,2.7 3.9,3.1 7.1,3.1 z"  />
      <path style="fill:#bda284;stroke:#1e1102;stroke-width:2;stroke-linecap:round;stroke-linejoin:round" d="m 30.6,31.7 c -2.2,-1.6 -5.5,-3.6 -7.7,-3.8 -1,-0.4 -3.8,-0.7 -7.1,0 -4.4,0.7 -8.2,12.6 -4.9,11.7 6,-9.2 15.3,-7.9 19.7,-7.9 z"  />
      <path style="fill:none;stroke:#754008;stroke-width:2;stroke-linecap:round;stroke-linejoin:round" d="m 13.1,45.7 c 0,0 9.8,0.7 9.8,-13.3"  />
      <path style="fill:#754008" d="m 12.5,50 c 2.2,0.4 3.9,1.3 6,0 l 0.6,2.9 C 16.9,52.7 14.7,52.2 12.5,50 Z"  />
      <path style="fill:#754008" d="m 53.1,36 c 0.5,1.8 1.1,1.4 0.5,2.5 l -4.9,-2.7 -1.7,5 c 0.6,-1.8 -1.1,-4.1 0,-5.7 1.1,-2 5.5,-1.3 6.1,0.9 z"  />
      <path style="fill:#d3b526" d="m 25.1,31.7 c 2.8,10.6 7.7,13.1 12.1,13.1 6.6,-1.4 6.6,-4.7 8.7,-9.7 1.1,-6.3 -1,-3.6 -2.1,-2.4 -2.8,2.4 -5,6.5 -6.6,9.6 0,-5.6 -3.3,-8.1 -6,-10.1 -3.3,-0.7 -5,-1.1 -6.1,-0.5 z" />
      <path style="fill:none;stroke:#754008;stroke-width:2;stroke-linecap:round;stroke-linejoin:round" d="m 32.3,52.2 c 0,0 4.9,-3.1 5.4,-9.2"  />
      <path style="fill:none;fill-opacity:0.2;stroke:#1e1102;stroke-width:2;stroke-linecap:round;stroke-linejoin:round" d="m 19.6,53.1 c -2.2,-10.8 10.5,-7.6 12.7,-0.9 8.7,0.2 16.4,-8.5 15.8,-16.4 3.3,-0.7 3.9,1.4 5.5,3.6 1.1,-3.2 0.6,-12.8 -7.7,-8.3 -2.7,1.6 -6,5.8 -8.2,11.9 -1.1,-4 -2.7,-8.1 -7.1,-11.3 -4.4,0 -8.2,-0.4 -12.1,1.8 0,7.7 -2.1,9 -6,9.7 V 50 c 1.7,2.7 4.4,3.1 7.1,3.1 z"  />
      <path style="fill:#524539" d="m 8.06,46.1 3.54,-0.2 0,-1.7 -2.88,0.5 c -0.5,0.5 -0.66,1 -0.66,1.4 z"  />
      <path style="fill:#ffffff;fill-opacity:0.5" d="m 18,28.6 c -1.6,0.2 -2.7,0.4 -4.4,2 0,0.5 0,0.9 0.6,1.1 -0.6,1 -0.6,1.4 0,1.4 0.5,0 0.5,-0.2 1.1,-0.4 0.5,-1 2.1,-1.2 3.2,-1.4 0.6,0 1.1,-0.4 1.7,-0.9 1.7,0.7 3.3,0 4.9,0 0.6,-0.5 0.6,-0.7 -1.1,-1.1 -1.1,0 -3.8,-0.5 -7.6,1.1 1,-0.7 2.7,-1.4 1.6,-1.8 z"  />
   </symbol>

   <symbol id="option_skin_momia">
      <path style="fill:#eecea7" d="m 11.2,24.4 c 0,12 0.7,22.3 2.1,31.4 4.3,2.3 9.9,2.3 14.2,-0.9 0.7,-3.5 2.1,-6.7 2.1,-11.2 1.5,0.4 0.7,0 4.3,0.4 0,6.4 0.7,9.3 2.1,10.2 2.9,0.6 7.1,0.9 10.7,-0.6 2.1,-9.1 3.5,-19.3 3.5,-30.5 -11.3,6.5 -24.1,6.2 -39,1.2 z" />
      <path style="fill:#fff5de" d="m 17.6,26.1 c 2.1,9.5 7.1,12.9 14.9,12.7 9.9,0.9 14.2,-5 15.6,-14.4 -9.2,3.8 -18.5,5.3 -30.5,1.7 z" />
      <path style="fill:none;stroke:#b5826b;stroke-width:1.5;stroke-linecap:round;stroke-linejoin:round" d="M 13.3,53.4 C 17.6,53.1 24,52.2 28.9,51.1 l -0.7,-1.8 c -2.8,0 -7.1,-1.5 -9.9,-3.5 h -5.7 c 8.5,0.3 16.3,-2.1 24.1,-5.3 -8.5,-0.3 -13.5,-0.8 -25.5,-2.6 11.3,1.4 25.5,3.2 37.6,1.8 l 0.7,-3.3 C 36,36.1 24,34.1 11.2,30" />
      <path style="fill:none;stroke:#b5826b;stroke-width:1.5;stroke-linecap:round;stroke-linejoin:round" d="m 32.5,28.2 c 5.6,1.2 11.3,2.9 17,2.6" />
      <path style="fill:none;stroke:#b5826b;stroke-width:1.5;stroke-linecap:round;stroke-linejoin:round" d="m 33.9,49.9 c 3.5,-0.6 7.1,-1.4 8.5,-2.6 h 5.7 c -5,0 -9.2,0 -14.2,-0.9" />
      <path style="fill:none;stroke:#2e2218;stroke-width:3;stroke-linecap:round;stroke-linejoin:round" d="m 9.77,24.4 c 0,12 1.43,22.3 2.83,31.4 5,2.3 10.6,1.5 14.9,-0.9 1.4,-2.3 1.4,-7.1 2.1,-11.2 1.5,0.4 0.7,0 4.3,0.4 0,6.4 0.7,9.3 2.1,10.2 2.9,0.6 9.2,1.2 10.7,-0.3 1.4,-1.1 3.5,-18.8 3.5,-30.8 -10.6,6.5 -25.5,6.2 -40.43,1.2 z" />
      <path style="fill:#2e2218" d="m 33.9,45.2 c 4.2,-0.6 5.7,-1.5 7.8,-3.2 -2.8,0.6 -5.7,0.6 -7.8,0.6 z" />
   </symbol>

   <symbol id="option_skin_kid">
      <path style="fill:#1e3e68" d="m 12.1,44.9 -0.6,-6.8 c 15.2,2.5 28.6,2.5 37.8,-0.2 -0.6,1.9 -1.2,3.7 -1.2,5.7 -4.9,1.9 -9.8,2.9 -15.2,2.9 l -0.7,-2.1 h -3 l -0.7,2.4 c -5.4,0.8 -10.3,0.1 -16.4,-1.9 z"/>
      <path style="fill:#8c2a5a" d="m 10.9,36.8 0.6,-13.6 c 3,2.7 10.4,3.8 21.4,3.8 l 7.2,5.6 4.3,-5.8 4.9,-1.5 -0.6,10.9 c -9.2,3.6 -21.3,3.6 -37.8,0.6 z"/>
      <path style="fill:#ad3939" d="m 18.8,25.3 c 1.2,4.9 3.6,9.6 7.3,12.8 l 17.7,0.5 c 1.8,-3 4.3,-6.4 4.9,-12.4 H 45 l -4.9,6.2 -7.2,-5.2 z"/>
      <path style="fill:none;stroke:#000000;stroke-width:2.8;stroke-linecap:round;stroke-linejoin:round" d="M 11.4,36.9 C 26,40.4 40.1,40 48.7,36.5"/>
      <path style="fill:none;stroke:#000000;stroke-width:2.8;stroke-linecap:round;stroke-linejoin:round" d="m 11.5,23.2 c -1.2,9.7 0,15.7 0.6,21.7 4.8,2.7 10.3,3.3 17.1,1.6 v -2.1 h 3.7 v 2.1 c 4.8,0.3 9.7,-0.2 15.2,-2.7 1.2,-4 1.2,-10.3 1.2,-18.5 l -4.9,1.5 c -1.2,3.4 -3.1,4.5 -4.3,5.8 -2.4,-1.3 -4.8,-2.9 -7.2,-5.6 -6.2,-0.2 -11,0.5 -21.4,-3.8 z"/>
      <path style="fill:#000000" d="m 32.2,43 c 3.1,0 6.7,-0.2 9.7,-0.8 -1.8,1.1 -4.2,1.9 -9,2.4 z"/>
      <path style="fill:#312c29;stroke:#000000;stroke-width:2.8;stroke-linecap:round;stroke-linejoin:round" d="m 12.7,50.6 0.7,5.5 c 4.8,1.8 9.7,1.8 14.5,-0.6 l 1.3,-4.9 c -6.1,1.8 -11.6,1.8 -16.5,0 z"/>
      <path style="fill:#312c29;stroke:#000000;stroke-width:2.8;stroke-linecap:round;stroke-linejoin:round" d="m 32.9,50 c 5.4,0.6 9,0 13.9,-1.8 -0.5,3 -1.2,4.2 -1.8,5.5 -3.7,1.1 -7.3,1.8 -11,0.6 C 33.4,53 32.9,51.2 32.9,50 Z"/>
   </symbol>
</svg>
