<?xml version="1.0" encoding="UTF-8" standalone="no"?>
<!-- Created with Inkscape (http://www.inkscape.org/) -->

<svg width="60" height="60" viewBox="0 0 60 60" version="1.1" xmlns="http://www.w3.org/2000/svg" xmlns:svg="http://www.w3.org/2000/svg">
   <!-- Created By Erik Medina (https://github.com/erme07) -->
   <symbol id="option_skin_sport">
      <path style="fill:#1538a1" d="m 12.3,26.2 c -1.1,9 -0.2,15 0.6,20 5,3 10.2,4 16.5,2 v -2 h 3.2 l 0.3,2 c 5.1,0 9.1,0 14.1,-3 2,-4 2,-9 2,-17 -12,4 -24.6,2 -36.7,-2 z"/>
      <path style="fill:#6d87ad" d="m 42,39.2 c 0,-1 0,-2 0,-3 1,-1 4,-3 4,-6 l 3,-1 c -1,6 -2,6 -3,7 l -1,3 z" />
      <path style="fill:#6d87ad" d="m 17.8,28.2 c 0,3 -0.6,6 5.3,10 v 2 h 4.2 l -0.2,-4 c -5.1,-2 -5.1,-5 -5.9,-7 z" />
      <path style="fill:#ffffff;fill-opacity:0.25" d="m 19.1,28.2 c 1.1,5 4,9 8,13 l 14.9,-1 c 3,-3 5,-5 5,-11 -10,2 -18.9,1 -27.9,-1 z" />
      <path style="fill:none;stroke:#071428;stroke-width:3;stroke-linecap:round;stroke-linejoin:round" d="m 12.4,39.2 c 14.1,3 27.6,3 35.6,-1" />
      <path style="fill:#071428" d="m 32.1,45.2 c 2.9,0 6.9,-1 9.9,-1 -2,1 -5,2 -9.4,2 z" />
      <path style="fill:none;stroke:#071428;stroke-width:3;stroke-linecap:round;stroke-linejoin:round" d="m 12.3,26.2 c -1.1,9 -0.2,15 0.6,20 5,3 10.2,4 16.5,2 v -2 h 3.2 l 0.3,2 c 5.1,0 9.1,0 14.1,-3 2,-4 2,-9 1,-17 -12,4 -23.6,2 -35.7,-2 z" />
   </symbol>

   <symbol id="option_skin_sport2">
      <path style="fill:#860d2e" d="m 12.8,25.8 c -1,9 0,14 1,20 5,3 10,4 17,2 v -2 h 3 v 2 c 5,0 10,0 15,-3 1,-4 1,-9 1,-17 -12,4 -24,2 -37,-2 z" />
      <path style="fill:#470c36" d="m 11.8,33.8 c 8,2 17,3 24,2 v -5 c -7,-1 -15,-3 -23,-5 z"  />
      <path style="fill:#470c36" d="m 35.8,40.8 v -5 c 4,0 10,-2 14,-3 v 5 c -5,2 -9,2 -14,3 z"  />
      <path style="fill:#ffffff;fill-opacity:0.1" d="m 19.8,27.8 c 1,5 4,9 8,12 h 16 c 2,-3 4,-6 5,-11 -10,1 -20,1 -29,-1 z"  />
      <path style="fill:none;stroke:#1b0405;stroke-width:2.65;stroke-linecap:round;stroke-linejoin:round" d="m 13.8,37.8 c 14,4 27,4 35,0"  />
      <path style="fill:#1b0405;stroke:none;stroke-width:2.65;stroke-linecap:round;stroke-linejoin:round" d="m 32.8,43.8 c 3,0 7,0 10,0 -1,1 -4,2 -9,2 z"  />
      <path style="fill:none;stroke:#1b0405;stroke-width:2.65;stroke-linecap:round;stroke-linejoin:round" d="m 12.8,25.8 c -1,9 0,14 1,20 5,3 10,4 17,2 v -2 h 3 v 2 c 5,0 10,0 15,-3 1,-4 1,-9 0,-17 -12,4 -23,2 -36,-2 z" />
   </symbol>

   <symbol id="option_skin_banana">
      <path style="fill:#392c22;stroke:#100c08;stroke-width:2;stroke-linecap:round;stroke-linejoin:round" d="M 12.5,50 8.2,48.8 c -1.1,-1.7 -1.7,-2.9 0,-4.9 l 4.3,-0.7"  />
      <path style="fill:#b5811b" d="M 19.6,53.1 C 16.4,42.8 30.1,45.5 32.3,52.2 41,52.4 48.7,41.9 48.7,35.6 51.4,34.9 52,37.2 53.6,39.4 54.7,36.2 54.2,26.6 45.9,31.1 43.2,32.7 40.5,38.7 37.7,43 36.6,39 35,34.9 30.6,31.7 L 19,32.9 c -0.5,7.6 -2.6,9.6 -6.5,10.3 V 50 c 1.7,2.7 3.9,3.1 7.1,3.1 z"  />
      <path style="fill:#bda284;stroke:#1e1102;stroke-width:2;stroke-linecap:round;stroke-linejoin:round" d="m 30.6,31.7 c -2.2,-1.6 -5.5,-3.6 -7.7,-3.8 -1,-0.4 -3.8,-0.7 -7.1,0 -4.4,0.7 -8.2,12.6 -4.9,11.7 6,-9.2 15.3,-7.9 19.7,-7.9 z"  />
      <path style="fill:none;stroke:#754008;stroke-width:2;stroke-linecap:round;stroke-linejoin:round" d="m 13.1,45.7 c 0,0 9.8,0.7 9.8,-13.3"  />
      <path style="fill:#754008" d="m 12.5,50 c 2.2,0.4 3.9,1.3 6,0 l 0.6,2.9 C 16.9,52.7 14.7,52.2 12.5,50 Z"  />
      <path style="fill:#754008" d="m 53.1,36 c 0.5,1.8 1.1,1.4 0.5,2.5 l -4.9,-2.7 -1.7,5 c 0.6,-1.8 -1.1,-4.1 0,-5.7 1.1,-2 5.5,-1.3 6.1,0.9 z"  />
      <path style="fill:#d3b526" d="m 25.1,31.7 c 2.8,10.6 7.7,13.1 12.1,13.1 6.6,-1.4 6.6,-4.7 8.7,-9.7 1.1,-6.3 -1,-3.6 -2.1,-2.4 -2.8,2.4 -5,6.5 -6.6,9.6 0,-5.6 -3.3,-8.1 -6,-10.1 -3.3,-0.7 -5,-1.1 -6.1,-0.5 z" />
      <path style="fill:none;stroke:#754008;stroke-width:2;stroke-linecap:round;stroke-linejoin:round" d="m 32.3,52.2 c 0,0 4.9,-3.1 5.4,-9.2"  />
      <path style="fill:none;fill-opacity:0.2;stroke:#1e1102;stroke-width:2;stroke-linecap:round;stroke-linejoin:round" d="m 19.6,53.1 c -2.2,-10.8 10.5,-7.6 12.7,-0.9 8.7,0.2 16.4,-8.5 15.8,-16.4 3.3,-0.7 3.9,1.4 5.5,3.6 1.1,-3.2 0.6,-12.8 -7.7,-8.3 -2.7,1.6 -6,5.8 -8.2,11.9 -1.1,-4 -2.7,-8.1 -7.1,-11.3 -4.4,0 -8.2,-0.4 -12.1,1.8 0,7.7 -2.1,9 -6,9.7 V 50 c 1.7,2.7 4.4,3.1 7.1,3.1 z"  />
      <path style="fill:#524539" d="m 8.06,46.1 3.54,-0.2 0,-1.7 -2.88,0.5 c -0.5,0.5 -0.66,1 -0.66,1.4 z"  />
      <path style="fill:#ffffff;fill-opacity:0.5" d="m 18,28.6 c -1.6,0.2 -2.7,0.4 -4.4,2 0,0.5 0,0.9 0.6,1.1 -0.6,1 -0.6,1.4 0,1.4 0.5,0 0.5,-0.2 1.1,-0.4 0.5,-1 2.1,-1.2 3.2,-1.4 0.6,0 1.1,-0.4 1.7,-0.9 1.7,0.7 3.3,0 4.9,0 0.6,-0.5 0.6,-0.7 -1.1,-1.1 -1.1,0 -3.8,-0.5 -7.6,1.1 1,-0.7 2.7,-1.4 1.6,-1.8 z"  />
   </symbol>

   <symbol id="option_skin_momia">
      <path style="fill:#eecea7" d="m 11.2,24.4 c 0,12 0.7,22.3 2.1,31.4 4.3,2.3 9.9,2.3 14.2,-0.9 0.7,-3.5 2.1,-6.7 2.1,-11.2 1.5,0.4 0.7,0 4.3,0.4 0,6.4 0.7,9.3 2.1,10.2 2.9,0.6 7.1,0.9 10.7,-0.6 2.1,-9.1 3.5,-19.3 3.5,-30.5 -11.3,6.5 -24.1,6.2 -39,1.2 z" />
      <path style="fill:#fff5de" d="m 17.6,26.1 c 2.1,9.5 7.1,12.9 14.9,12.7 9.9,0.9 14.2,-5 15.6,-14.4 -9.2,3.8 -18.5,5.3 -30.5,1.7 z" />
      <path style="fill:none;stroke:#b5826b;stroke-width:1.5;stroke-linecap:round;stroke-linejoin:round" d="M 13.3,53.4 C 17.6,53.1 24,52.2 28.9,51.1 l -0.7,-1.8 c -2.8,0 -7.1,-1.5 -9.9,-3.5 h -5.7 c 8.5,0.3 16.3,-2.1 24.1,-5.3 -8.5,-0.3 -13.5,-0.8 -25.5,-2.6 11.3,1.4 25.5,3.2 37.6,1.8 l 0.7,-3.3 C 36,36.1 24,34.1 11.2,30" />
      <path style="fill:none;stroke:#b5826b;stroke-width:1.5;stroke-linecap:round;stroke-linejoin:round" d="m 32.5,28.2 c 5.6,1.2 11.3,2.9 17,2.6" />
      <path style="fill:none;stroke:#b5826b;stroke-width:1.5;stroke-linecap:round;stroke-linejoin:round" d="m 33.9,49.9 c 3.5,-0.6 7.1,-1.4 8.5,-2.6 h 5.7 c -5,0 -9.2,0 -14.2,-0.9" />
      <path style="fill:none;stroke:#2e2218;stroke-width:3;stroke-linecap:round;stroke-linejoin:round" d="m 9.77,24.4 c 0,12 1.43,22.3 2.83,31.4 5,2.3 10.6,1.5 14.9,-0.9 1.4,-2.3 1.4,-7.1 2.1,-11.2 1.5,0.4 0.7,0 4.3,0.4 0,6.4 0.7,9.3 2.1,10.2 2.9,0.6 9.2,1.2 10.7,-0.3 1.4,-1.1 3.5,-18.8 3.5,-30.8 -10.6,6.5 -25.5,6.2 -40.43,1.2 z" />
      <path style="fill:#2e2218" d="m 33.9,45.2 c 4.2,-0.6 5.7,-1.5 7.8,-3.2 -2.8,0.6 -5.7,0.6 -7.8,0.6 z" />
   </symbol>

   <symbol id="option_skin_kid">
      <path style="fill:#1e3e68" d="m 12.1,44.9 -0.6,-6.8 c 15.2,2.5 28.6,2.5 37.8,-0.2 -0.6,1.9 -1.2,3.7 -1.2,5.7 -4.9,1.9 -9.8,2.9 -15.2,2.9 l -0.7,-2.1 h -3 l -0.7,2.4 c -5.4,0.8 -10.3,0.1 -16.4,-1.9 z"/>
      <path style="fill:#8c2a5a" d="m 10.9,36.8 0.6,-13.6 c 3,2.7 10.4,3.8 21.4,3.8 l 7.2,5.6 4.3,-5.8 4.9,-1.5 -0.6,10.9 c -9.2,3.6 -21.3,3.6 -37.8,0.6 z"/>
      <path style="fill:#ad3939" d="m 18.8,25.3 c 1.2,4.9 3.6,9.6 7.3,12.8 l 17.7,0.5 c 1.8,-3 4.3,-6.4 4.9,-12.4 H 45 l -4.9,6.2 -7.2,-5.2 z"/>
      <path style="fill:none;stroke:#000000;stroke-width:2.8;stroke-linecap:round;stroke-linejoin:round" d="M 11.4,36.9 C 26,40.4 40.1,40 48.7,36.5"/>
      <path style="fill:none;stroke:#000000;stroke-width:2.8;stroke-linecap:round;stroke-linejoin:round" d="m 11.5,23.2 c -1.2,9.7 0,15.7 0.6,21.7 4.8,2.7 10.3,3.3 17.1,1.6 v -2.1 h 3.7 v 2.1 c 4.8,0.3 9.7,-0.2 15.2,-2.7 1.2,-4 1.2,-10.3 1.2,-18.5 l -4.9,1.5 c -1.2,3.4 -3.1,4.5 -4.3,5.8 -2.4,-1.3 -4.8,-2.9 -7.2,-5.6 -6.2,-0.2 -11,0.5 -21.4,-3.8 z"/>
      <path style="fill:#000000" d="m 32.2,43 c 3.1,0 6.7,-0.2 9.7,-0.8 -1.8,1.1 -4.2,1.9 -9,2.4 z"/>
      <path style="fill:#312c29;stroke:#000000;stroke-width:2.8;stroke-linecap:round;stroke-linejoin:round" d="m 12.7,50.6 0.7,5.5 c 4.8,1.8 9.7,1.8 14.5,-0.6 l 1.3,-4.9 c -6.1,1.8 -11.6,1.8 -16.5,0 z"/>
      <path style="fill:#312c29;stroke:#000000;stroke-width:2.8;stroke-linecap:round;stroke-linejoin:round" d="m 32.9,50 c 5.4,0.6 9,0 13.9,-1.8 -0.5,3 -1.2,4.2 -1.8,5.5 -3.7,1.1 -7.3,1.8 -11,0.6 C 33.4,53 32.9,51.2 32.9,50 Z"/>
   </symbol>

<symbol id="option_skin_arbusto">
      <path
         style="display:inline;fill:none;fill-opacity:1;stroke:#000000;stroke-width:1.84496;stroke-linecap:round;stroke-linejoin:round;stroke-dasharray:none;stroke-opacity:1"
         d="M 22,32.9 C 19.4,28.6 17.8,21.6 13.3,24.2" id="path4875" />
      <path
         style="display:inline;fill:none;fill-opacity:1;stroke:#000000;stroke-width:1.84496;stroke-linecap:round;stroke-linejoin:round;stroke-dasharray:none;stroke-opacity:1"
         d="m 46.3,31.2 c 0,-1.8 -0.9,-4.4 -2.6,-7" id="path4877" />
      <path
         style="display:inline;fill:#e7c38f;fill-opacity:1;stroke:#34241d;stroke-width:2.3062;stroke-linecap:round;stroke-linejoin:round;stroke-dasharray:none;stroke-opacity:1"
         d="M 52.5,47.7 C 56,31.2 38.5,21.6 18.1,33.8 c -2.1,5.3 -3.9,6.1 -6,7.9 -5.64,9.5 -1.4,9.5 10.7,8.6 12.3,-0.9 28.8,-1.7 29.7,-2.6 z"
         id="path737" />
      <path
         style="display:inline;fill:none;stroke:#299415;stroke-width:1.1531;stroke-linecap:round;stroke-linejoin:round;stroke-dasharray:none;stroke-opacity:1"
         d="m 21.1,41.7 c 1.7,-4.5 2.6,-8.8 7.8,-4.5 2.7,-6 5.3,-4.3 8.8,-3.4 1.7,-2.6 6.9,-0.9 6.9,1.7 1.7,0.8 3.4,1.7 3.4,4.4 2.8,1.8 0.9,7 -3.4,6.1 -3.5,0 -7.8,0.9 -11.3,0.9 -2.6,0.8 -5.3,0.8 -7.9,0.8 -1.7,-0.8 -3.4,0 -5.2,0 -9.8,0.9 -5,-5.2 0.9,-6 z"
         id="path2751" />
      <path
         style="display:inline;fill:none;stroke:#299415;stroke-width:1.1531;stroke-linecap:round;stroke-linejoin:round;stroke-dasharray:none;stroke-opacity:1"
         d="m 19.4,45.1 c 0,-0.8 0.8,-1.7 2.6,-2.6 V 46 c 0.8,-2.6 1.7,-4.3 3.4,-6.1 -0.8,1.8 -0.8,4.4 -0.8,5.2 2.6,-2.6 4.3,-5.2 7,-6.9 -0.9,1.7 -1.8,4.3 -1.8,6.1 0.9,-1.8 2.7,-4.4 5.3,-6.1 -1.8,2.6 -2.6,4.3 -2.6,6.9 2.6,-3.4 5.2,-6.9 8.6,-8.8 -1.7,2.8 -2.6,6.2 -3.4,8 1.7,-2.6 3.4,-4.4 5.2,-6.1 0,1.7 -0.9,3.5 -0.9,5.2 0.9,-0.9 0.9,-2.6 3.4,-2.6 -1.7,0.9 -1.7,2.6 -1.7,4.3 0.9,-0.8 1.7,-1.7 2.6,-3.4"
         id="path3359" />
      <ellipse
         style="display:inline;fill:#c62139;fill-opacity:1;stroke:none;stroke-width:1.42675;stroke-linecap:round;stroke-linejoin:round;stroke-dasharray:none;stroke-opacity:1"
         id="path3413" ry="1.62" rx="1.57" cy="37.2" cx="35.1" />
      <ellipse
         style="display:inline;fill:#c62139;fill-opacity:1;stroke:none;stroke-width:1.42675;stroke-linecap:round;stroke-linejoin:round;stroke-dasharray:none;stroke-opacity:1"
         id="ellipse4817" ry="1.62" rx="1.57" cy="42.5" cx="24.6" />
      <ellipse
         style="display:inline;fill:#c62139;fill-opacity:1;stroke:none;stroke-width:1.42675;stroke-linecap:round;stroke-linejoin:round;stroke-dasharray:none;stroke-opacity:1"
         id="ellipse4819" ry="1.62" rx="1.57" cy="41.7" cx="42.9" />
      <path
         style="display:inline;fill:#ce9363;fill-opacity:1;stroke:none;stroke-width:1.84496;stroke-linecap:round;stroke-linejoin:round;stroke-dasharray:none;stroke-opacity:1"
         d="m 14.4,49.4 c -3.2,0 -2.8,-3.4 0,-6.9 2.5,-1.7 3.7,-1.7 5,-5.3 0,-0.9 0,-1.7 0,-1.7 -1.5,1.7 -3.6,5.3 -6.3,7 -4.14,6.9 -2,6.9 1.3,6.9 z"
         id="path4933" />
      <path
         style="display:inline;fill:#f7dfad;fill-opacity:1;stroke:none;stroke-width:1.84496;stroke-linecap:round;stroke-linejoin:round;stroke-dasharray:none;stroke-opacity:1"
         d="m 21.1,33.8 c 8.7,-2.6 16.6,-3.5 24.3,-1.8 -2.5,-1.7 -4.3,-2.6 -12.1,-2.6 -2.6,0 -8.7,1.8 -12.2,4.4 z"
         id="path5817" />
   </symbol>

   <symbol id="option_skin_hotdog">
      <path
         style="display:inline;fill:#e4c489;fill-opacity:1;stroke:none;stroke-width:2.15163;stroke-linecap:round;stroke-linejoin:round;stroke-dasharray:none;stroke-opacity:1"
         d="m 45.2,48.8 c 5.6,0.8 10.5,-18.7 3.1,-24.3 l -2.4,1.6 c 0.9,8.9 0,15.4 -0.7,22.7 z" id="path15470" />
      <path
         style="display:inline;fill:#c68639;fill-opacity:1;stroke:none;stroke-width:2.15163;stroke-linecap:round;stroke-linejoin:round;stroke-dasharray:none;stroke-opacity:1"
         d="m 46.8,48 c 3.3,-9.8 4,-17.9 0.8,-21.9 l 1.6,-1.6 C 56.5,35.8 48.3,48 46.8,48 Z" id="path15735" />
      <path
         style="display:inline;fill:none;fill-opacity:0.47;stroke:#000000;stroke-width:2.15163;stroke-linecap:round;stroke-linejoin:round;stroke-dasharray:none;stroke-opacity:1"
         d="m 45.2,48.8 c 5.6,0.8 10.5,-18.7 3.1,-24.3 l -2.4,1.6 c 0.9,8.9 0,15.4 -0.7,22.7 z" id="path15472" />
      <path
         style="display:inline;fill:#db0909;fill-opacity:1;stroke:#000000;stroke-width:1.7213;stroke-linecap:round;stroke-linejoin:round;stroke-dasharray:none;stroke-opacity:1"
         d="m 45.2,30.1 c -4.1,0.9 -16.4,3.3 -13.9,7.4 0.8,2.4 12.3,1.6 11.4,4 -0.9,1.6 -13,0.8 -12.2,3.2 0,3.3 17.8,1.6 16.3,-4.8 -0.9,-3.3 -8.1,-2.4 -12.2,-3.3 4.1,-1.6 9,-3.2 12.2,-4 0.8,-0.9 0.8,-2.5 -1.6,-2.5 z"
         id="path7565" />
      <path
         style="display:inline;fill:#e6df2b;fill-opacity:1;stroke:#000000;stroke-width:1.7213;stroke-linecap:round;stroke-linejoin:round;stroke-dasharray:none;stroke-opacity:1"
         d="m 35.3,31.7 c 1.8,1.7 5.8,3.3 4.9,4.1 -13,2.4 3.4,12.2 5,11.4 1.6,-2.5 -7.4,-5.7 -6.5,-7.3 0,-0.8 4.9,-0.8 4.9,-2.4 0.7,-5.8 -6.5,-7.4 -7.4,-7.4 -0.9,0 -2.5,0.9 -0.9,1.6 z"
         id="path7567" />
      <path
         style="display:inline;fill:#c8883c;fill-opacity:1;stroke:none;stroke-width:1.7213;stroke-linecap:round;stroke-linejoin:round;stroke-dasharray:none;stroke-opacity:1"
         d="M 20.7,51.2 C 11,49.6 7.82,34.2 13.5,26.9 c 4,-4.9 12.1,-2.4 13,0 3.2,8.9 2.3,24.3 -5.8,24.3 z"
         id="path12918" />
      <path
         style="display:inline;fill:#e4c589;fill-opacity:1;stroke:none;stroke-width:1.7213;stroke-linecap:round;stroke-linejoin:round;stroke-dasharray:none;stroke-opacity:1"
         d="m 21.6,51.2 c 1.6,-1.6 2.4,-4 1.6,-8.1 1.6,-0.8 0.8,-4 0,-6.5 2.4,-2.4 0,-7.3 -1.6,-12.1 l 4.9,1.6 c 5.6,21.1 -2.5,26 -4.9,25.1 z"
         id="path13735" />
      <path
         style="display:inline;fill:#7f2300;fill-opacity:0.47;stroke:none;stroke-width:2.15163;stroke-linecap:round;stroke-linejoin:round;stroke-dasharray:none;stroke-opacity:1"
         d="m 12.7,30.1 c 0.8,4.1 4.1,4.1 4.8,4.9 0.8,1.6 0.8,2.5 0.8,4.1 -8,-0.9 4.1,21.1 9.8,1.6 0,7.3 -2.5,9.8 -6.5,10.5 -6.4,0 -12.23,-12.1 -8.9,-21.1 z"
         id="path14688" />
      <path
         style="display:inline;fill:none;fill-opacity:1;stroke:#000000;stroke-width:2.15163;stroke-linecap:round;stroke-linejoin:round;stroke-dasharray:none;stroke-opacity:1"
         d="M 20.7,51.2 C 11,49.6 9.37,34.2 13.5,26.9 c 4.8,-4 12.1,-2.4 13,0 2.3,8.9 2.3,24.3 -5.8,24.3 z"
         id="path12920" />
   </symbol>

   <symbol id="option_skin_gift">
      <path
         style="display:inline;fill:#b9bfda;fill-opacity:1;stroke:#000000;stroke-width:2.35004;stroke-linecap:round;stroke-linejoin:round;stroke-dasharray:none;stroke-opacity:1"
         d="m 10.9,28.9 12.6,3.5 1.4,18.7 -12.1,-4.4 z" id="path16402" />
      <path
         style="display:inline;fill:#e9eff4;fill-opacity:1;stroke:none;stroke-width:2.35004;stroke-linecap:round;stroke-linejoin:round;stroke-dasharray:none;stroke-opacity:1"
         d="M 24.9,51.1 23.5,32.4 50,30.7 c -0.7,8 -1.9,15 -3.3,18.6 z" id="path16404" />
      <path
         style="display:inline;fill:#b2bbd1;fill-opacity:1;stroke:none;stroke-width:2.35004;stroke-linecap:round;stroke-linejoin:round;stroke-dasharray:none;stroke-opacity:1"
         d="m 32,51.1 c 0.4,-4.4 1.1,-8.9 0.8,-19.5 h 4.5 l -1.9,18.6 z" id="path21156" />
      <path
         style="display:inline;fill:none;fill-opacity:1;stroke:#000000;stroke-width:2.35004;stroke-linecap:round;stroke-linejoin:round;stroke-dasharray:none;stroke-opacity:1"
         d="m 24.9,51.1 -1.4,-18.7 27,-2.6 c -0.7,8 -2.4,15.9 -3.8,19.5 z" id="path17648" />
      <path
         style="display:inline;fill:#f7ef5d;fill-opacity:1;stroke:none;stroke-width:1.17502;stroke-linecap:round;stroke-linejoin:round;stroke-dasharray:none;stroke-opacity:1"
         d="M 33.5,52 C 34.2,46.7 35.9,36 35,31.6 l -0.8,-0.9 h 5.5 c 0.2,0 1,0.9 1.1,0.9 0.6,2.6 -0.1,15.1 -2.2,19.5 z"
         id="path22040" />
      <path
         style="display:inline;fill:#d6aa31;fill-opacity:1;stroke:none;stroke-width:1.17502;stroke-linecap:round;stroke-linejoin:round;stroke-dasharray:none;stroke-opacity:1"
         d="M 34,48.4 33.8,52 39,51.1 39.7,48.4 Z" id="path22042" />
      <path
         style="display:inline;fill:#fffbde;fill-opacity:1;stroke:none;stroke-width:1.17502;stroke-linecap:round;stroke-linejoin:round;stroke-dasharray:none;stroke-opacity:1"
         d="m 35.2,33.4 h 6.2 c -0.3,-1 0,-2.7 -1.3,-2.7 h -5.9 c 1,1.7 1,2.7 1,2.7 z" id="path24101" />
      <path
         style="display:inline;fill:none;fill-opacity:1;stroke:#000000;stroke-width:1.17502;stroke-linecap:round;stroke-linejoin:round;stroke-dasharray:none;stroke-opacity:1"
         d="M 33.5,52 C 34.2,46.7 35.9,36 35,31.6 l -0.8,-0.9 h 5.5 c 0.2,0 1,0.9 1.1,0.9 0.6,2.6 -0.1,15.1 -2.2,19.5 z"
         id="path22458" />
      <path
         style="display:inline;fill:#d6aa31;fill-opacity:1;stroke:none;stroke-width:1.17502;stroke-linecap:round;stroke-linejoin:round;stroke-dasharray:none;stroke-opacity:1"
         d="m 21.1,52 c -0.8,-6.3 -1.7,-12.4 -2,-19.6 -0.2,-0.8 0.7,-1.7 1.2,-1.7 l -3.5,-0.9 c -0.9,0 -1.4,0.9 -1.8,0.9 0.5,7.1 1,13.2 1.9,18.6 -0.1,1.8 3.1,3.5 4.2,2.7 z"
         id="path25399" />
      <path
         style="display:inline;fill:#f7e85a;fill-opacity:1;stroke:none;stroke-width:1.17502;stroke-linecap:round;stroke-linejoin:round;stroke-dasharray:none;stroke-opacity:1"
         d="m 15,30.7 c 1.2,0.9 2.5,0.9 3.9,0.9 l 1.5,-0.9 -3.2,-1.8 c -1.8,0.9 -1.7,1.8 -2.2,1.8 z" id="path25405" />
      <path
         style="display:inline;fill:#976a18;fill-opacity:1;stroke:none;stroke-width:1.17502;stroke-linecap:round;stroke-linejoin:round;stroke-dasharray:none;stroke-opacity:1"
         d="m 16.5,47.5 4,0.9 0.7,3.6 -4.3,-1.8 z" id="path26427" />
      <path
         style="display:inline;fill:none;fill-opacity:1;stroke:#000000;stroke-width:1.17502;stroke-linecap:round;stroke-linejoin:round;stroke-dasharray:none;stroke-opacity:1"
         d="m 21.1,51.1 c -0.8,-6.2 -1.7,-11.5 -2,-18.7 -0.2,-0.8 0.7,-1.7 1.2,-1.7 l -3.5,-0.9 c -0.9,0 -1.4,0.9 -1.8,0.9 0.5,7.1 1,13.2 1.9,18.6 0.3,0.9 3.1,2.7 4.2,1.8 z"
         id="path25401" />
      <path
         style="display:inline;fill:#b9bfda;fill-opacity:1;stroke:#000000;stroke-width:1.88004;stroke-linecap:round;stroke-linejoin:round;stroke-dasharray:none;stroke-opacity:1"
         d="m 10.8,28.1 4.5,-1.8 -0.1,3.5 z" id="path28017" />
      <path
         style="display:inline;fill:#b9bfda;fill-opacity:1;stroke:#000000;stroke-width:1.88004;stroke-linecap:round;stroke-linejoin:round;stroke-dasharray:none;stroke-opacity:1"
         d="m 50.7,28.9 -4.5,-1.8 v 2.7 z" id="path28019" />
   </symbol>

   <symbol id="option_skin_astronauta">
      <path
         style="display:inline;fill:#d1c4b2;fill-opacity:1;stroke:none;stroke-width:2.80382;stroke-linecap:round;stroke-linejoin:round;stroke-dasharray:none;stroke-opacity:1"
         d="m 11.8,24.2 c -0.1,10.5 0.6,22.1 2.7,31.6 4.8,2.2 10.4,2.2 14,-1.1 1.2,-3.1 0.8,-6.3 0.5,-9.4 h 4.3 l 1.3,9.4 c 4.8,1.1 7.9,1.1 12.3,-0.9 C 47.8,46.3 50,36.7 50,25.1 42.5,29.4 26.6,30.4 11.8,24.2 Z"
         id="path13166" />
      <path
         style="display:inline;fill:#847062;fill-opacity:1;stroke:none;stroke-width:2.24304;stroke-linecap:round;stroke-linejoin:round;stroke-dasharray:none;stroke-opacity:1"
         d="m 13.4,50.5 0.8,5.3 c 5.1,3.3 10.1,3.3 14.8,0 l 0.7,-5.3 c -5.4,0 -10.9,1.1 -16.3,0 z" id="path19851" />
      <path
         style="display:inline;fill:#7b6d5a;fill-opacity:1;stroke:none;stroke-width:2.24304;stroke-linecap:round;stroke-linejoin:round;stroke-dasharray:none;stroke-opacity:1"
         d="m 33.1,48.4 1.3,6.3 c 3.9,1.1 8.1,2.2 12.5,0 l 0.9,-6.3 c -5.3,1.1 -9.8,1.1 -14.7,0 z" id="path19853" />
      <path
         style="display:inline;fill:none;fill-opacity:1;stroke:#1b1910;stroke-width:2.24304;stroke-linecap:round;stroke-linejoin:round;stroke-dasharray:none;stroke-opacity:1"
         d="m 13.4,50.5 c 5.2,1.1 10.3,1.1 15.9,0" id="path13709" />
      <path
         style="display:inline;fill:none;fill-opacity:1;stroke:#1b1910;stroke-width:2.24304;stroke-linecap:round;stroke-linejoin:round;stroke-dasharray:none;stroke-opacity:1"
         d="m 33.8,48.4 c 4.5,1.1 8.7,1.1 14,0" id="path13711" />
      <path
         style="display:inline;fill:#f7f4ec;fill-opacity:1;stroke:none;stroke-width:2.24304;stroke-linecap:round;stroke-linejoin:round;stroke-dasharray:none;stroke-opacity:1"
         d="m 19.2,26.2 c 0.3,5.3 0.9,10.5 6.8,11.6 L 22.6,38.9 29,40 27.7,41.1 C 45.8,48.4 51,32.6 50,26.2 c -8.5,3.2 -19.8,2.2 -30.8,0 z"
         id="path18034" />
      <path
         style="display:inline;fill:#d66921;fill-opacity:1;stroke:none;stroke-width:2.24304;stroke-linecap:round;stroke-linejoin:round;stroke-dasharray:none;stroke-opacity:1"
         d="M 11.8,24.2 C 25.4,29.4 38,29.4 50,25.1 v 5.3 c -10.6,2.2 -21.5,4.3 -38.3,-2 z" id="path13715" />
      <path
         style="display:inline;fill:#9c3010;fill-opacity:1;stroke:none;stroke-width:1.4019;stroke-linecap:round;stroke-linejoin:round;stroke-dasharray:none;stroke-opacity:1"
         d="m 12.1,28.4 7.8,3.1 C 19.6,29.4 19.2,28.4 19,26.2 l -6.9,-2 z" id="path25319" />
      <path
         style="display:inline;fill:none;fill-opacity:1;stroke:#1b1910;stroke-width:2.24304;stroke-linecap:round;stroke-linejoin:round;stroke-dasharray:none;stroke-opacity:1"
         d="m 11.8,28.4 c 13.1,7.4 29.7,4.2 38.2,2" id="path13713" />
      <path
         style="display:inline;fill:#f7f4ec;fill-opacity:1;stroke:#1b1910;stroke-width:2.24304;stroke-linecap:round;stroke-linejoin:round;stroke-dasharray:none;stroke-opacity:1"
         d="m 36.1,37.8 c 0.2,-2 0.6,-4.2 0.6,-6.3 l 6.9,-1.1 c 0,2.2 0,4.3 -1.1,6.3 z" id="path13707" />
      <path
         style="display:inline;fill:#d66921;fill-opacity:1;stroke:#1b1910;stroke-width:1.4019;stroke-linecap:round;stroke-linejoin:round;stroke-dasharray:none;stroke-opacity:1"
         d="m 32.2,45.3 c 3,-3.2 4.9,-5.3 5.7,-7.5 h 3.6 c -1,4.3 -5.2,6.4 -8.2,7.5 z" id="path23607" />
      <path
         style="display:inline;fill:none;fill-opacity:1;stroke:#1b1910;stroke-width:2.80382;stroke-linecap:round;stroke-linejoin:round;stroke-dasharray:none;stroke-opacity:1"
         d="m 11.8,24.2 c -0.1,10.5 0.6,22.1 2.7,31.6 4.8,2.2 10.4,2.2 14,-1.1 1.2,-3.1 1.3,-6.3 1.2,-9.4 h 3.6 l 1.3,9.4 c 4.8,1.1 7.9,1.1 12.3,-0.9 C 47.8,46.3 50,36.7 50,25.1 42.5,29.4 26.6,30.4 11.8,24.2 Z"
         id="path13705" />
      <path
         style="display:inline;fill:#294798;fill-opacity:1;stroke:none;stroke-width:2.24304;stroke-linecap:round;stroke-linejoin:round;stroke-dasharray:none;stroke-opacity:1"
         d="m 15.3,37.8 -0.1,-5.2 4.9,1 0.2,5.3 z" id="path21151" />
      <path
         style="display:inline;fill:#ffff00;fill-opacity:1;stroke:none;stroke-width:8;stroke-linecap:round;stroke-linejoin:round;stroke-dasharray:none;stroke-opacity:1"
         id="path22792" d="m 96.3,264 -3.7,5 1.7,5 -5.5,-2 -4.8,4 0.3,-6 -4.7,-4 5.7,-1 1.9,-6 3.2,5 z"
         transform="matrix(0.187,0.041,-0.023,0.235,7.4,-30.6)" />
      <path
         style="display:inline;fill:none;fill-opacity:1;stroke:#1b1910;stroke-width:1.4019;stroke-linecap:round;stroke-linejoin:round;stroke-dasharray:none;stroke-opacity:1"
         d="m 39.4,33.6 h 2.1" id="path26740" />
      <path
         style="display:inline;fill:none;fill-opacity:1;stroke:#1b1910;stroke-width:1.4019;stroke-linecap:round;stroke-linejoin:round;stroke-dasharray:none;stroke-opacity:1"
         d="m 39.4,35.8 1.1,-1.1" id="path26742" />
   </symbol>

   <symbol id="option_skin_calabaza">
      <path
         style="display:inline;fill:#ff6200;fill-opacity:1;stroke:none;stroke-width:2.18693;stroke-linecap:round;stroke-linejoin:miter;stroke-dasharray:none"
         d="m 18.6,28.7 c -11.6,10.7 -1.7,23.1 0,19.8 1.6,2.4 5.7,3.3 7.4,0.8 2.5,0.8 6.6,3.3 9.9,0 1.6,2.5 8.3,1.6 10.7,-0.8 C 48.3,50.9 57.4,41 48.3,32 L 45,36.1 40.9,33.6 37.5,36.9 35.1,33.6 32.6,36.1 30.1,32 26,34.4 Z"
         id="path823" />
      <path
         style="display:inline;fill:none;fill-opacity:1;stroke:#bd341b;stroke-width:1.09346;stroke-linecap:round;stroke-linejoin:round;stroke-dasharray:none;stroke-opacity:1"
         d="M 18.6,47.6 C 16.1,42.7 16.9,36.9 22.7,32" id="path2530" />
      <path
         style="display:inline;fill:none;fill-opacity:1;stroke:#bd341b;stroke-width:1.74954;stroke-linecap:round;stroke-linejoin:round;stroke-dasharray:none;stroke-opacity:1"
         d="M 26,50.1 C 22.7,46 21.9,41 26,34.4" id="path2532" />
      <path
         style="display:inline;fill:none;fill-opacity:1;stroke:#bd341b;stroke-width:1.74954;stroke-linecap:round;stroke-linejoin:round;stroke-dasharray:none;stroke-opacity:1"
         d="M 32.6,50.9 C 30.1,46.8 31.8,41 32.6,36.1" id="path2534" />
      <path
         style="display:inline;fill:none;fill-opacity:1;stroke:#bd341b;stroke-width:1.74954;stroke-linecap:round;stroke-linejoin:round;stroke-dasharray:none;stroke-opacity:1"
         d="m 38.4,50.9 c 2.5,-4.1 4.9,-8.2 0.8,-14.8" id="path2536" />
      <path
         style="display:inline;fill:none;fill-opacity:1;stroke:#bd341b;stroke-width:1.09346;stroke-linecap:round;stroke-linejoin:round;stroke-dasharray:none;stroke-opacity:1"
         d="m 47.5,48.5 c 0.8,-3.3 0.8,-8.3 -1.7,-12.4" id="path2538" />
      <path
         style="display:inline;fill:#290c00;fill-opacity:0.411;stroke:none;stroke-width:1.09346;stroke-linecap:round;stroke-linejoin:round;stroke-dasharray:none;stroke-opacity:1"
         d="m 13.6,45.2 c 1.7,0 2.5,-0.9 3.3,-2.5 4.1,4.9 5.8,4.1 6.6,0.8 3.3,4.1 5.8,3.3 7.4,0.8 2.5,2.5 4.2,2.5 7.5,1.7 1.6,1.6 2.5,0 4.1,-0.8 0,2.4 2.5,0.8 5,-0.9 1.6,1.7 2.4,2.5 3.3,3.3 -1.7,0.9 -2.5,1.7 -4.2,1.7 -3.3,1.6 -6.6,3.3 -10.7,0.8 -3.3,1.7 -6.6,1.7 -10.7,-0.8 -1.7,2.5 -4.2,1.6 -6.6,-0.8 -1.7,1.6 -3.3,0.8 -5,-3.3 z"
         id="path10220" />
      <path
         style="display:inline;fill:#ff8c00;fill-opacity:1;stroke:none;stroke-width:1.09346;stroke-linecap:round;stroke-linejoin:round;stroke-dasharray:none;stroke-opacity:1"
         d="M 23.5,33.6 C 21,37.7 21,41 21.9,41 c 0.8,-2.4 1.6,-4.1 3.3,-6.6 z" id="path10813" />
      <path
         style="display:inline;fill:#ff8c00;fill-opacity:1;stroke:none;stroke-width:1.09346;stroke-linecap:round;stroke-linejoin:round;stroke-dasharray:none;stroke-opacity:1"
         d="m 28.5,33.6 c -3.3,5 -2.5,9.9 -0.9,9.1 1.7,-2.5 2.5,-4.1 4.2,-6.6 l -0.9,-3.3 z" id="path11007" />
      <path
         style="display:inline;fill:#ff8c00;fill-opacity:1;stroke:none;stroke-width:1.09346;stroke-linecap:round;stroke-linejoin:round;stroke-dasharray:none;stroke-opacity:1"
         d="m 33.4,36.1 c 1.7,2.5 1.7,5.8 2.5,8.2 1.6,0 2.5,-0.8 2.5,-8.2 l -2.5,-1.7 z" id="path11009" />
      <path
         style="display:inline;fill:#ff8c00;fill-opacity:1;stroke:none;stroke-width:1.09346;stroke-linecap:round;stroke-linejoin:round;stroke-dasharray:none;stroke-opacity:1"
         d="m 40.9,35.3 c 1.6,2.4 3.3,4.9 3.3,8.2 1.6,0.8 1.6,0 1.6,-6.6 z" id="path11011" />
      <path
         style="display:inline;fill:#ff8c00;fill-opacity:1;stroke:none;stroke-width:1.09346;stroke-linecap:round;stroke-linejoin:round;stroke-dasharray:none;stroke-opacity:1"
         d="m 46.6,34.4 c 1.7,1.7 4.2,4.2 4.2,8.3 0.8,-2.5 1.6,-4.1 -2.5,-10.7 z" id="path11013" />
      <path
         style="display:inline;fill:#ff8c00;fill-opacity:1;stroke:none;stroke-width:1.09346;stroke-linecap:round;stroke-linejoin:round;stroke-dasharray:none;stroke-opacity:1"
         d="m 20.2,30.3 c -2.5,2.5 -5.8,5 -4.9,12.4 -0.9,-2.5 -2.5,-5.8 4.1,-13.2 z" id="path11015" />
      <path
         style="display:inline;fill:#002a15;fill-opacity:1;stroke:#0a0909;stroke-width:1.09346;stroke-linecap:round;stroke-linejoin:round;stroke-dasharray:none;stroke-opacity:1"
         d="M 14.4,46 C 12,46 9.47,45.2 7.82,42.7 l 3.28,-0.8 c 0.9,0.8 1.7,1.6 2.5,1.6" id="path11017" />
      <path
         style="display:inline;fill:#0f4925;fill-opacity:1;stroke:#0a0909;stroke-width:1.09346;stroke-linecap:round;stroke-linejoin:round;stroke-dasharray:none;stroke-opacity:1"
         d="m 7.82,40.2 c 0,-0.8 0.83,-2.5 3.28,-1.6 0.9,0.8 0.9,2.4 0,3.3 -1.63,0.8 -4.93,0.8 -7.4,-1.7 -0.83,0 0,-1.6 1.65,-1.6 0.82,1.6 1.65,1.6 2.47,1.6 0.83,0 1.65,0 1.65,-0.8 0,0.8 -0.82,0.8 -1.65,0.8 z"
         id="path11073" />
      <path
         style="display:inline;fill:none;stroke:#000000;stroke-width:2.18693;stroke-linecap:round;stroke-linejoin:miter;stroke-dasharray:none;stroke-opacity:1"
         d="m 18.6,28.7 c -11.6,10.7 -1.7,23.1 0,19.8 1.6,2.4 5.7,3.3 7.4,0.8 2.5,0.8 6.6,3.3 9.9,0 1.6,2.5 8.3,1.6 10.7,-0.8 1.7,2.4 10.8,-8.3 1.7,-16.5 L 45,36.1 40.9,32.8 37.5,36.9 35.1,33.6 32.6,36.1 30.1,32 26,34.4 Z"
         id="path1646" />
   </symbol>
</svg>
